<svg width="63" height="40" viewBox="0 0 63 40" fill="none" xmlns="http://www.w3.org/2000/svg">
<g clip-path="url(#clip0_5203_5076)">
<path opacity="0.8" d="M62.693 21.7648C62.6372 21.4852 62.5674 21.2126 62.4977 20.9401C62.4977 20.9401 62.4977 20.9261 62.4977 20.9191C62.0512 19.2626 61.3116 17.704 60.3279 16.2921C60.3279 16.2921 60.3209 16.2782 60.3139 16.2782C59.6512 15.3276 58.8767 14.447 57.9977 13.6502C57.7605 13.4335 57.5163 13.2308 57.2651 13.0281C57.2302 13.0002 57.1884 12.9722 57.1535 12.9373C56.9023 12.7416 56.6442 12.5459 56.3791 12.3641C56.3791 12.3641 56.3791 12.3641 56.3721 12.3641C56.093 12.1754 55.814 11.9937 55.5209 11.819C55.486 11.798 55.4512 11.777 55.4163 11.7561C55.1721 11.6093 54.9209 11.4765 54.6698 11.3437C54.607 11.3087 54.5442 11.2738 54.4814 11.2458C54.2023 11.1061 53.9233 10.9733 53.6302 10.8474C53.6163 10.8474 53.6023 10.8335 53.5884 10.8265C53.2884 10.6937 52.9814 10.5749 52.6674 10.463C52.5907 10.4351 52.514 10.4071 52.4372 10.3792C52.193 10.2953 51.9558 10.2184 51.7046 10.1415C51.6139 10.1136 51.5233 10.0856 51.4326 10.0646C51.1116 9.97378 50.7837 9.88991 50.4558 9.82001C50.1279 9.75012 49.8 9.6942 49.4791 9.63829C49.3814 9.62431 49.2907 9.61033 49.193 9.59635C48.9488 9.56141 48.7046 9.53345 48.4605 9.51248C48.3698 9.50549 48.2791 9.49151 48.1814 9.48452C47.5326 9.4356 46.8837 9.42162 46.2419 9.44259C46.1581 9.44259 46.0744 9.44958 45.9907 9.45657C45.7395 9.47055 45.4814 9.49151 45.2302 9.51248C45.1535 9.51947 45.0767 9.52646 45.007 9.53345C44.3581 9.60334 43.7233 9.71517 43.0953 9.86195C43.0395 9.87593 42.9837 9.88991 42.9209 9.90389C42.6488 9.96679 42.3767 10.0437 42.1116 10.1206C42.0628 10.1345 42.0209 10.1485 41.9721 10.1625C41.3442 10.3512 40.7233 10.5819 40.1233 10.8474C40.0953 10.8614 40.0674 10.8754 40.0395 10.8824C39.7535 11.0082 39.4744 11.141 39.1953 11.2878C39.1814 11.2948 39.1674 11.3018 39.1465 11.3087C38.5535 11.6163 37.9744 11.9657 37.4233 12.3432C37.4233 12.3432 37.4093 12.3502 37.4093 12.3571C37.3326 12.4061 37.2558 12.462 37.186 12.5179C36.9558 12.3502 36.7186 12.1964 36.4814 12.0426C36.2233 11.8819 35.9651 11.7351 35.7 11.6023C35.6651 11.5883 35.6372 11.5673 35.6023 11.5534C35.5535 11.5324 35.5047 11.5114 35.4628 11.4835C35.2953 11.3996 35.1209 11.3157 34.9465 11.2458C35.0163 11.3018 35.086 11.3577 35.1488 11.4206C35.1488 11.4206 35.1558 11.4276 35.1628 11.4346C35.2116 11.4765 35.2535 11.5254 35.3023 11.5743C35.7698 12.0077 36.2023 12.476 36.614 12.9582C36.607 12.9582 36.593 12.9722 36.586 12.9792C35.5465 11.777 34.3395 10.7286 32.993 9.85496C32.993 9.85496 32.9791 9.84797 32.9721 9.84098C31.9116 9.15603 30.7744 8.57591 29.5744 8.12859C29.2535 8.00977 28.9186 7.89794 28.5907 7.7931C28.5419 7.77913 28.493 7.76515 28.4442 7.75117C28.1093 7.65332 27.7744 7.56246 27.4395 7.47858C27.4395 7.47858 27.4326 7.47858 27.4256 7.47858C27.0698 7.39471 26.714 7.32482 26.3512 7.26191C26.3093 7.25493 26.2605 7.24794 26.2186 7.24095C25.9186 7.19202 25.6116 7.15008 25.3047 7.11514C25.2279 7.10815 25.1512 7.10116 25.0744 7.08718C24.7395 7.05223 24.4116 7.03127 24.0698 7.01729C24.0488 7.01729 24.0349 7.01729 24.014 7.01729C23.6581 7.00331 23.3093 7.00331 22.9465 7.0103C22.8558 7.0103 22.7651 7.0103 22.6814 7.01729C22.4093 7.02428 22.1372 7.04524 21.8651 7.06621C21.7674 7.0732 21.6628 7.08019 21.5651 7.09417C21.2093 7.12912 20.8535 7.17105 20.4977 7.22697C20.1488 7.28288 19.8 7.35278 19.4581 7.42267C19.3605 7.44364 19.2558 7.47159 19.1581 7.49256C18.907 7.54848 18.6558 7.61837 18.4046 7.68826C18.307 7.71622 18.2093 7.74418 18.1186 7.77214C17.4558 7.96784 16.807 8.20548 16.186 8.47107C16.1023 8.50602 16.0256 8.54096 15.9488 8.57591C15.7047 8.68774 15.4605 8.79957 15.2233 8.91839C15.1535 8.95333 15.0767 8.98828 15.007 9.02323C14.4 9.33775 13.814 9.6942 13.2558 10.0716C13.207 10.1066 13.1512 10.1415 13.1023 10.1765C12.8651 10.3442 12.6279 10.5189 12.3977 10.7007C12.3558 10.7286 12.3209 10.7636 12.2791 10.7915C11.7349 11.2249 11.2256 11.6792 10.7442 12.1684C10.7233 12.1894 10.7023 12.2174 10.6814 12.2383C10.4512 12.469 10.2349 12.7136 10.0186 12.9582C10.0047 12.9722 9.9907 12.9862 9.98372 13.0002C9.52326 13.5314 9.10465 14.0905 8.72093 14.6776C8.72093 14.6776 8.71395 14.6916 8.70698 14.6916C8.12791 15.5722 7.63256 16.5088 7.24186 17.4873C6.82326 18.5217 6.51628 19.5981 6.32791 20.7094C6.32093 20.7723 6.30698 20.8282 6.3 20.8911C6.27209 21.0589 6.25116 21.2266 6.23023 21.3944C6.21628 21.4782 6.2093 21.5621 6.20233 21.646C6.18837 21.7997 6.17442 21.9605 6.16046 22.1143C6.15349 22.2191 6.14651 22.317 6.13953 22.4218C6.13256 22.5686 6.12558 22.7153 6.1186 22.8551C6.1186 22.974 6.1186 23.0928 6.1186 23.2046C6.1186 23.3374 6.1186 23.4702 6.1186 23.61C6.1186 23.7428 6.12558 23.8826 6.13256 24.0154C6.13256 24.1342 6.13953 24.26 6.15349 24.3788C6.16744 24.5396 6.1814 24.7003 6.19535 24.8611C6.20233 24.9589 6.21628 25.0568 6.22326 25.1546C6.25116 25.4132 6.29302 25.6648 6.33488 25.9235V25.9374C6.33488 25.9584 6.34186 25.9794 6.34884 26.0073C6.3907 26.224 6.43256 26.4407 6.48139 26.6573C6.53023 26.888 6.59302 27.1116 6.64884 27.3423C8.82558 35.4499 17.2116 40.7688 26.0721 39.3919C26.8605 39.2661 27.6279 39.0914 28.3744 38.8747C28.5279 38.8328 28.6814 38.7838 28.8349 38.7349C29.707 38.4553 30.5442 38.1129 31.3395 37.7075C31.5628 37.5957 31.786 37.4768 32.0023 37.358C32.9023 36.8548 33.7465 36.2817 34.5209 35.6456C34.7163 35.4849 34.9047 35.3241 35.086 35.1634C35.8186 36.0021 37.2419 37.1134 38.6372 37.8752C40.0535 38.672 41.6163 39.2801 43.3046 39.6435C46.7512 40.3844 50.1837 40.021 53.1977 38.7908C54.4535 38.2806 55.6395 37.6236 56.7209 36.8338C56.9233 36.687 57.1256 36.5333 57.3209 36.3725C57.614 36.1349 57.9 35.8833 58.1791 35.6247C58.4581 35.3661 58.7233 35.1005 58.9814 34.8279C60.6977 32.9757 61.9605 30.7042 62.5744 28.1321C63.0907 25.9794 63.0977 23.8336 62.6721 21.7997L62.693 21.7648Z" fill="black"/>
<path d="M43.7023 37.365C53.235 37.365 60.9628 29.6233 60.9628 20.0734C60.9628 10.5235 53.235 2.78177 43.7023 2.78177C34.1696 2.78177 26.4419 10.5235 26.4419 20.0734C26.4419 29.6233 34.1696 37.365 43.7023 37.365Z" fill="url(#paint0_linear_5203_5076)"/>
<path opacity="0.5" d="M57.5372 9.75012L29.2744 10.5819C28.1721 12.2663 27.3419 14.1674 26.8674 16.2432C26.7558 16.7465 26.6651 17.2427 26.6023 17.7389L60.6349 16.7395C60.1326 14.1884 59.0651 11.805 57.5372 9.75012Z" fill="#14F46F"/>
<path opacity="0.5" d="M47.5256 3.21509C41.3233 1.80325 35.1419 3.935 31.0884 8.27538L55.6046 7.55547C53.4279 5.47265 50.6791 3.935 47.5256 3.21509Z" fill="#14F46F"/>
<path d="M40.0186 36.3026C30.8302 34.2128 25.0395 25.1337 26.9512 15.9287C26.9233 16.0336 26.8953 16.1384 26.8674 16.2432C24.7535 25.553 30.5791 34.8209 39.8721 36.9387C49.1651 39.0564 58.4163 33.2203 60.5302 23.9105C60.5512 23.8057 60.5721 23.6939 60.593 23.589C58.3465 32.7171 49.207 38.3925 40.0186 36.3026Z" fill="#03481F"/>
<path d="M43.7023 33.4859C51.0965 33.4859 57.0907 27.4809 57.0907 20.0734C57.0907 12.6658 51.0965 6.66083 43.7023 6.66083C36.3081 6.66083 30.314 12.6658 30.314 20.0734C30.314 27.4809 36.3081 33.4859 43.7023 33.4859Z" fill="#121F23"/>
<path opacity="0.5" d="M46.6674 6.99634C39.4535 5.35384 32.2814 9.88294 30.6419 17.1029C30.607 17.2427 30.593 17.3825 30.5721 17.5223L56.5953 16.4389C55.3046 11.8679 51.6279 8.12162 46.6744 6.99634H46.6674Z" fill="#475B60"/>
<path opacity="0.5" d="M56.9651 18.3191L30.3419 19.4234C30.3209 19.8497 30.3209 20.2691 30.3419 20.6884L57.0698 19.5771C57.0558 19.1508 57.0209 18.7314 56.9651 18.3121V18.3191Z" fill="#475B60"/>
<path d="M56.5116 23.0299C54.1046 30.0332 47.5395 34.08 40.3256 32.4375C38.1279 31.9343 36.3698 30.7112 34.7721 29.3343C33.1744 27.9574 32.5256 27.8106 34.0953 29.4321C35.8395 31.2354 38.107 32.5633 40.7302 33.1644C47.9442 34.8069 55.1163 30.2778 56.7558 23.0578C57.0837 21.5971 57.0488 21.4852 56.5116 23.0369V23.0299Z" fill="#08B44E"/>
<path d="M46.3744 8.60389C51.7744 9.83401 55.6605 14.1744 56.5884 19.3116C56.8186 20.5766 57.1465 20.4718 57.0698 19.2207C56.707 13.4405 52.5977 8.33829 46.6744 6.98935C40.5 5.58449 34.3605 8.69475 31.6884 14.1534C31.2419 15.069 31.5767 15.1948 32.5744 13.8179C35.6233 9.59638 40.9884 7.37377 46.3814 8.60389H46.3744Z" fill="#1A282D"/>
<path d="M35.6093 9.91787C38.6302 7.68827 42.5721 6.73772 46.5209 7.63236C50.8465 8.61786 54.2023 11.5953 55.8419 15.3835C56.4488 16.7884 56.5953 16.1663 55.9953 14.7685C54.3558 10.9733 51 7.98183 46.6674 6.99633C42.614 6.07374 38.5744 7.10117 35.5186 9.45658C33.9209 10.6867 33.907 11.176 35.6093 9.91787Z" fill="#031116"/>
<path d="M38.407 10.8055L37.8628 13.2098L35.2744 24.6234L38.3442 25.3224L39.914 18.4169L40.8419 13.8878L46.6186 15.2018L47.1628 12.7975L41.3372 11.4695L38.407 10.8055Z" fill="url(#paint1_linear_5203_5076)"/>
<path d="M47.6581 13.5803L47.1628 12.7975L46.6186 15.2018L40.8419 13.8878L39.914 18.4169L38.3442 25.3224L35.2744 24.6235L35.7628 25.4063L38.8395 26.1052L40.4093 19.1997L41.3302 14.6706L47.107 15.9846L47.6581 13.5803Z" fill="#031116"/>
<path d="M48.1465 14.3631L47.6512 13.5803L47.107 15.9846L41.3302 14.6706L40.4023 19.1997L38.8326 26.1122L35.7558 25.4132L36.2512 26.1961L38.6581 26.7412C39.0279 26.8251 39.3977 26.5944 39.4814 26.224L40.8977 19.9825L41.8256 15.4534L46.9326 16.6137C47.3023 16.6975 47.6721 16.4669 47.7558 16.0965L48.1465 14.3561V14.3631Z" fill="#1A282D"/>
<path d="M43.1511 25.0676L42.7569 26.8056L50.3699 28.5384L50.764 26.8004L43.1511 25.0676Z" fill="url(#paint2_linear_5203_5076)"/>
<path d="M43.1581 25.0708L50.7698 26.8041L50.2744 26.0213L43.3326 24.4417C42.9628 24.3578 42.6 24.5885 42.5093 24.9589L42.2651 26.0283L42.7605 26.8111L43.1581 25.0708Z" fill="#ADFFCE"/>
<path d="M50.7698 26.8041L50.3791 28.5445L42.7605 26.8111L43.2558 27.5939L50.8674 29.3273L51.2651 27.5869L50.7698 26.8041Z" fill="#031116"/>
<path d="M51.2651 27.5869L50.8674 29.3273L43.2558 27.5939L43.7512 28.3767L50.5116 29.9144C50.9791 30.0192 51.4535 29.7257 51.5581 29.2574L51.7605 28.3698L51.2651 27.5869Z" fill="#1A282D"/>
<path d="M37.8628 13.2099L38.407 10.8055L41.3372 11.4695L47.1628 12.7975L46.6674 12.0147L40.8419 10.6867L38.4558 10.1415C38.1558 10.0716 37.8558 10.2604 37.793 10.5609L37.3674 12.4201L34.7791 23.8337L35.2744 24.6165L37.8628 13.2029V13.2099Z" fill="#ADFFCE"/>
<path d="M18.4186 36.9037C28.5909 36.9037 36.8372 28.6425 36.8372 18.4519C36.8372 8.26118 28.5909 0 18.4186 0C8.24629 0 0 8.26118 0 18.4519C0 28.6425 8.24629 36.9037 18.4186 36.9037Z" fill="url(#paint3_linear_5203_5076)"/>
<path opacity="0.5" d="M27.9558 2.67691L0.348837 14.8733C-0.0697675 16.9771 -0.125581 19.1927 0.244186 21.4433C0.334884 21.9815 0.446512 22.5127 0.57907 23.0299L33.8233 8.33828C32.3023 6.01782 30.293 4.08876 27.9558 2.67691Z" fill="#14F46F"/>
<path opacity="0.5" d="M15.4395 0.244639C8.74186 1.34896 3.48837 5.94095 1.22093 11.8679L25.1651 1.28605C22.1791 0.104852 18.8442 -0.314508 15.4395 0.244639Z" fill="#14F46F"/>
<path d="M21.293 35.9741C11.3651 37.6027 2.00233 30.9628 0.195349 21.0938C0.209302 21.2127 0.223256 21.3245 0.244186 21.4433C1.8907 31.501 11.3651 38.3156 21.4047 36.6661C31.4442 35.0166 38.2465 25.5251 36.6 15.4674C36.5791 15.3486 36.5581 15.2368 36.5372 15.1249C37.9744 25.0498 31.2209 34.3456 21.293 35.9741Z" fill="#03481F"/>
<path d="M18.4186 32.766C26.3099 32.766 32.707 26.3574 32.707 18.4519C32.707 10.5464 26.3099 4.1377 18.4186 4.1377C10.5274 4.1377 4.13023 10.5464 4.13023 18.4519C4.13023 26.3574 10.5274 32.766 18.4186 32.766Z" fill="#121F23"/>
<path opacity="0.5" d="M16.1093 4.3334C8.32326 5.61245 3.04884 12.9722 4.32558 20.7723C4.35349 20.9261 4.39535 21.0659 4.42326 21.2127L29.707 9.67326C26.5953 5.66837 21.4535 3.45274 16.1093 4.3334Z" fill="#475B60"/>
<path opacity="0.5" d="M30.8233 11.3786L4.95349 23.1906C5.1 23.617 5.27442 24.0363 5.46279 24.4417L31.4442 12.5808C31.2558 12.1684 31.0535 11.763 30.8302 11.3716L30.8233 11.3786Z" fill="#475B60"/>
<path d="M32.2744 16.2572C32.707 24.1482 28.2279 30.6273 20.4419 31.9063C18.0698 32.2977 15.2372 32.0671 13.1023 31.3472C10.9674 30.6273 10.4791 30.5853 12.6767 31.5569C15.1186 32.6332 17.8953 33.0386 20.7279 32.5773C28.514 31.2983 33.7884 23.9385 32.5116 16.1384C32.2535 14.5658 32.1767 14.5099 32.2674 16.2572H32.2744Z" fill="#08B44E"/>
<path d="M16.4651 6.03879C22.2977 5.08125 27.8791 7.80709 30.8581 12.5179C31.5907 13.6781 31.8767 13.4405 31.2977 12.2383C28.6186 6.66783 22.514 3.28499 16.1163 4.33339C9.44651 5.42373 4.6186 10.9733 4.16512 17.4454C4.08837 18.5357 4.47209 18.5148 4.90465 16.7534C6.22326 11.3507 10.6395 6.99633 16.4651 6.03879Z" fill="#1A282D"/>
<path d="M6.34884 11.6722C8.44186 8.24741 11.9581 5.72426 16.2209 5.01833C20.8884 4.24951 25.4023 5.84308 28.5419 8.92538C29.707 10.0646 29.6023 9.39366 28.4442 8.2544C25.3047 5.15812 20.7837 3.55756 16.1023 4.32639C11.7279 5.04629 8.14186 7.68826 6.06977 11.2458C4.98837 13.105 5.16977 13.5873 6.34186 11.6652L6.34884 11.6722Z" fill="#031116"/>
<path d="M9.46744 11.4206L9.89302 14.0206L11.9093 26.3428L15.2302 25.7977L14.0093 18.333L13.1093 13.4894L19.3465 12.462L18.9209 9.86896L12.6279 10.9034L9.46744 11.4206Z" fill="url(#paint4_linear_5203_5076)"/>
<path d="M19.7233 10.4421L18.9209 9.86896L19.3465 12.462L13.1093 13.4894L14.0093 18.333L15.2302 25.7977L11.9093 26.3428L12.7116 26.916L16.0326 26.3708L14.8116 18.9132L13.9116 14.0626L20.1488 13.0421L19.7233 10.4421Z" fill="#031116"/>
<path d="M20.5256 11.0152L19.7233 10.4421L20.1488 13.0421L13.9116 14.0695L14.8116 18.9132L16.0326 26.3708L12.7116 26.916L13.514 27.4891L16.1093 27.0627C16.507 26.9998 16.7791 26.6224 16.7093 26.224L15.607 19.4863L14.707 14.6427L20.2256 13.7341C20.6233 13.6712 20.8953 13.2937 20.8256 12.8953L20.5186 11.0222L20.5256 11.0152Z" fill="#1A282D"/>
<path d="M28.1135 22.2635L19.8933 23.615L20.2006 25.491L28.4209 24.1395L28.1135 22.2635Z" fill="url(#paint5_linear_5203_5076)"/>
<path d="M19.8907 23.61L28.1093 22.2611L27.307 21.6879L19.807 22.9181C19.4093 22.981 19.1372 23.3584 19.207 23.7568L19.3953 24.91L20.1977 25.4831L19.8907 23.603V23.61Z" fill="#ADFFCE"/>
<path d="M28.1093 22.261L28.4163 24.1412L20.1977 25.4901L21 26.0702L29.2186 24.7143L28.9116 22.8412L28.1093 22.261Z" fill="#031116"/>
<path d="M28.9116 22.8412L29.2186 24.7213L21 26.0702L21.8023 26.6434L29.1 25.4412C29.6093 25.3573 29.9512 24.8751 29.8674 24.3648L29.714 23.4073L28.9116 22.8342V22.8412Z" fill="#1A282D"/>
<path d="M9.89302 14.0206L9.46744 11.4206L12.6279 10.9034L18.9209 9.86896L18.1186 9.29584L11.8256 10.3303L9.25116 10.7566C8.93023 10.8125 8.70698 11.1131 8.76279 11.4416L9.0907 13.4545L11.107 25.7767L11.9093 26.3498L9.89302 14.0276V14.0206Z" fill="#ADFFCE"/>
<path opacity="0.1" d="M31.1512 5.03231C31.207 5.08124 31.2488 5.13715 31.3046 5.19307C31.3605 5.15812 31.4163 5.13016 31.4721 5.09522C31.2907 4.99737 31.1093 4.9065 30.9209 4.82263C30.9907 4.89253 31.0674 4.95543 31.1372 5.01833C31.1372 5.01833 31.1512 5.02532 31.1512 5.03231Z" fill="black"/>
<path opacity="0.5" d="M39.4535 26.0143C40.3884 21.0519 40.1372 18.3959 39.4953 15.9846C39.4046 15.6561 39.314 15.3346 39.2093 15.0131C39.2093 15.0061 39.2093 14.9991 39.2023 14.9851C38.5814 13.0491 37.7163 11.2738 36.6419 9.74313C36.6419 9.74313 36.6349 9.72915 36.6279 9.72915C35.9023 8.69473 35.093 7.77213 34.193 6.97535C33.9488 6.75868 33.7046 6.55599 33.4535 6.36029C33.4186 6.33233 33.3767 6.30437 33.3419 6.27641C33.0907 6.0877 32.8326 5.89899 32.5674 5.73124C32.5674 5.73124 32.5674 5.73124 32.5605 5.73124C32.2884 5.54952 32.0093 5.38877 31.7233 5.22801C31.6884 5.20704 31.6535 5.19307 31.6186 5.1721C31.5698 5.14414 31.5139 5.12317 31.4651 5.09521C31.4093 5.13016 31.3535 5.15812 31.2977 5.19307C32.7 6.56997 33.893 8.17053 34.8 9.93184C34.8 9.93883 34.807 9.94582 34.814 9.95281C34.9674 10.2533 35.1139 10.5609 35.2535 10.8754C36.2651 13.1609 36.8372 15.6911 36.8372 18.361C36.8372 21.5481 36.0349 24.5396 34.6116 27.1536C34.3814 27.5729 34.1372 27.9853 33.8791 28.3837C33.7465 28.5864 33.614 28.7821 33.4814 28.9778C33.286 29.2574 33.0837 29.523 32.8744 29.7886C32.6093 30.124 32.3372 30.4525 32.0581 30.7671C31.8628 30.9837 31.6535 31.2004 31.4512 31.4101C31.3116 31.5499 31.1721 31.6827 31.0326 31.8155C31.8 32.766 33.3628 34.059 34.8837 34.9397C36.6488 32.8709 38.693 30.124 39.4674 26.0143H39.4535Z" fill="black"/>
</g>
<defs>
<linearGradient id="paint0_linear_5203_5076" x1="47.7711" y1="3.43366" x2="39.5251" y2="37.0137" gradientUnits="userSpaceOnUse">
<stop stop-color="#14F46F"/>
<stop offset="1" stop-color="#024727"/>
</linearGradient>
<linearGradient id="paint1_linear_5203_5076" x1="41.5278" y1="11.6242" x2="40.6935" y2="30.4644" gradientUnits="userSpaceOnUse">
<stop stop-color="#14F46F"/>
<stop offset="1" stop-color="#024727"/>
</linearGradient>
<linearGradient id="paint2_linear_5203_5076" x1="47.4207" y1="11.7618" x2="46.5863" y2="30.6021" gradientUnits="userSpaceOnUse">
<stop stop-color="#14F46F"/>
<stop offset="1" stop-color="#024727"/>
</linearGradient>
<linearGradient id="paint3_linear_5203_5076" x1="15.7769" y1="0.361889" x2="21.1339" y2="36.8718" gradientUnits="userSpaceOnUse">
<stop stop-color="#14F46F"/>
<stop offset="1" stop-color="#024727"/>
</linearGradient>
<linearGradient id="paint4_linear_5203_5076" x1="12.8855" y1="10.9799" x2="19.6467" y2="29.9298" gradientUnits="userSpaceOnUse">
<stop stop-color="#14F46F"/>
<stop offset="1" stop-color="#024727"/>
</linearGradient>
<linearGradient id="paint5_linear_5203_5076" x1="18.7797" y1="8.74706" x2="25.541" y2="27.697" gradientUnits="userSpaceOnUse">
<stop stop-color="#14F46F"/>
<stop offset="1" stop-color="#024727"/>
</linearGradient>
<clipPath id="clip0_5203_5076">
<rect width="63" height="40" fill="white"/>
</clipPath>
</defs>
</svg>
