<?xml version="1.0" encoding="UTF-8"?>
<svg id="Capa_1" data-name="Capa 1" xmlns="http://www.w3.org/2000/svg" xmlns:xlink="http://www.w3.org/1999/xlink" version="1.1" viewBox="0 0 269.4773557 130">
  <defs>
    <style>
      .cls-1 {
        fill: #121f23;
      }

      .cls-1, .cls-2, .cls-3, .cls-4, .cls-5, .cls-6 {
        stroke-width: 0px;
      }

      .cls-7 {
        stroke: #2493f8;
      }

      .cls-7, .cls-8, .cls-9, .cls-10 {
        fill: none;
        stroke-width: 1.5px;
      }

      .cls-8 {
        stroke: url(#Degradado_sin_nombre_2);
      }

      .cls-2 {
        fill: #031116;
      }

      .cls-3 {
        fill: #ffb9ca;
      }

      .cls-4 {
        fill: #a7d4fc;
      }

      .cls-9 {
        stroke: #056c2f;
      }

      .cls-5 {
        fill: #e0b8ff;
      }

      .cls-10 {
        stroke: url(#Degradado_sin_nombre);
      }

      .cls-6 {
        fill: #14f46f;
      }
    </style>
    <linearGradient id="Degradado_sin_nombre" data-name="Degradado sin nombre" x1="150" y1="67.5" x2="268" y2="67.5" gradientTransform="translate(0 132) scale(1 -1)" gradientUnits="userSpaceOnUse">
      <stop offset="0" stop-color="#f1003a"/>
      <stop offset="1" stop-color="#ffb9ca"/>
    </linearGradient>
    <linearGradient id="Degradado_sin_nombre_2" data-name="Degradado sin nombre 2" x1="120.9999972" y1="20.4769979" x2="248.9999892" y2="20.521996" gradientTransform="translate(0 132) scale(1 -1)" gradientUnits="userSpaceOnUse">
      <stop offset="0" stop-color="#9228f3"/>
      <stop offset="1" stop-color="#ce90ff"/>
    </linearGradient>
  </defs>
  <rect class="cls-1" x=".75" y=".75" width="87.5" height="33.5" rx="6" ry="6"/>
  <rect class="cls-9" x=".75" y=".75" width="87.5" height="33.5" rx="6" ry="6"/>
  <path class="cls-6" d="M11.1339998,23v-10.6920004h3.4182005c2.7701988,0,4.5359993,1.4418001,4.5359993,5.3459997,0,3.2723999-1.2150002,5.3460007-4.5359993,5.3460007h-3.4182005ZM13.4667997,20.9102001h.9071999c1.3770008,0,2.2356005-.8262005,2.2356005-3.1914005v-.1619987c0-2.2356005-.7776003-3.1590004-2.2356005-3.1590004h-.9071999v6.5123997ZM28.6236992,18.1399994c0,.3726006-.0485992.8262005-.1295986,1.1501999h-5.5080013c.016201,1.198801.9882011,2.0088005,2.5757999,2.0088005.9234009,0,1.9116001-.3078003,2.5272007-.7775993v1.9764004c-.7614002.4535999-1.7819996.6641998-2.7702007.6641998-2.9645996,0-4.6331997-1.7334003-4.6331997-4.3578014,0-2.5919991,1.6037998-4.3091993,4.1148014-4.3091993,2.3165989,0,3.8231983,1.4580002,3.8231983,3.6449995ZM24.7194996,16.3255997c-1.0529995,0-1.6847992.6317997-1.7171993,1.5552006h3.4020004c-.016201-1.0044003-.6804008-1.5552006-1.6848011-1.5552006ZM35.2916985,14.4949999c2.0898018,0,3.4344025,1.5875998,3.4344025,4.3415995,0,2.7863998-1.3770027,4.3254013-3.4344025,4.3254013-1.0043983,0-1.9277992-.4050007-2.5271988-1.0854015v3.8394012h-2.2679996v-11.2590008h2.1060009v1.1340008c.5831985-.8100004,1.5876007-1.2960005,2.6891975-1.2960005ZM36.3609009,18.9176006v-.1620007c0-1.4741993-.6966019-2.3166008-1.7010002-2.3166008-.7938004,0-1.4904022.4535999-1.895401,1.1826v2.4138012c.4049988.7451992,1.1016006,1.1987991,1.895401,1.1987991,1.0043983,0,1.7010002-.8585987,1.7010002-2.3165989ZM44.2439995,23.1620007c-2.4948006,0-4.1471977-1.7334003-4.1471977-4.3254013,0-2.6082001,1.6523972-4.3415995,4.1471977-4.3415995s4.1633987,1.7333994,4.1633987,4.3415995c0,2.592001-1.6685982,4.3254013-4.1633987,4.3254013ZM44.2439995,21.2989998c1.1987991,0,1.7820015-.8586006,1.7820015-2.348999v-.243c0-1.5552006-.6641998-2.3490009-1.7820015-2.3490009-1.1825981,0-1.7658005.8747997-1.7658005,2.3490009v.243c0,1.5713997.6641998,2.348999,1.7658005,2.348999ZM53.9901009,23.1620007c-1.2312012,0-2.5272026-.3564014-3.1590004-.8424015v-1.9115982c.7938004.5993996,1.9602013.9719982,3.0617981.9719982,1.0206032,0,1.441803-.2753983,1.441803-.7937984,0-.5346012-.4211998-.6480007-.8262024-.7290001l-1.4094009-.2754002c-1.7819977-.3402004-2.4299965-1.2312012-2.4299965-2.3976002,0-1.7334003,1.4255981-2.6892004,3.5477982-2.6892004,1.0368004,0,2.1870003.2592001,2.9322014.7128v1.9116001c-.7290001-.5021992-1.8468018-.8586006-2.8998032-.8586006-.9233971,0-1.2959976.2916012-1.2959976.7452011,0,.5508003.5508003.6641998.9234009.7451992l1.3283997.243c1.7495995.3402004,2.4461975,1.1826,2.4461975,2.4785995,0,1.6686001-1.4417992,2.6892014-3.6611977,2.6892014ZM64.0439987,13.7983999c-1.0691986,0-1.5551987-.5670004-1.5551987-1.4094,0-.9558001.6156006-1.4094,1.5551987-1.4094,1.0205994,0,1.5065994.5670004,1.5065994,1.4094,0,.9558001-.6156006,1.4094-1.5065994,1.4094ZM59.8157997,23v-1.8630009h3.1590004v-4.6169987h-2.4137993v-1.8630009h4.681797v6.4799995h2.7702026v1.8630009h-8.1972008ZM69.3511963,16.5200005v-1.8630009h2.5110016v-2.349h2.2680054v2.349h3.6287994v1.8630009h-3.6287994v2.8188c0,1.166399.421196,1.8953991,1.6523972,1.8953991.4860001,0,1.0367966-.1295986,1.3445969-.3563995v1.8630009c-.3725967.226799-1.1663971.4211998-2.0087967.4211998-2.2356033,0-3.2562027-1.2636013-3.2562027-3.4344006v-3.2075996h-2.5110016Z"/>
  <rect class="cls-1" x="101.75" y=".75" width="97.5" height="33.5" rx="6" ry="6"/>
  <rect class="cls-9" x="101.75" y=".75" width="97.5" height="33.5" rx="6" ry="6"/>
  <path class="cls-6" d="M111.2269974,12.3079996h2.2840042l.6159973,7.1118002h.0319977l.7779999-4.4712h1.927002l.7779999,4.4712h.0320053l.6159973-7.1118002h2.2679977l-1.2470016,10.6920004h-2.6089935l-.8420029-4.5198002h-.0319977l-.8430023,4.5198002h-2.4459991l-1.3120041-10.6920004ZM125.8649979,13.7983999c-1.0690002,0-1.5550003-.5670004-1.5550003-1.4094,0-.9558001.6160049-1.4094,1.5550003-1.4094,1.0210037,0,1.5070038.5670004,1.5070038,1.4094,0,.9558001-.6160049,1.4094-1.5070038,1.4094ZM121.637001,23v-1.8630009h3.1589966v-4.6169987h-2.4139938v-1.8630009h4.6819992v6.4799995h2.7699966v1.8630009h-8.1969986ZM131.1730042,16.5200005v-1.8630009h2.5110016v-2.349h2.2679901v2.349h3.628006v1.8630009h-3.628006v2.8188c0,1.166399.4210052,1.8953991,1.6520081,1.8953991.4859924,0,1.0370026-.1295986,1.3450012-.3563995v1.8630009c-.3730011.226799-1.1670074.4211998-2.0090027.4211998-2.2360077,0-3.2559967-1.2636013-3.2559967-3.4344006v-3.2075996h-2.5110016ZM146.3289948,14.4949999c1.6529999,0,2.7220001.9558001,2.7220001,3.2886v5.2164001h-2.2679901v-4.9248009c0-1.0853996-.45401-1.6362-1.3120117-1.6362-.6809998,0-1.344986.3402004-1.7659912,1.0368004v5.5242004h-2.2680054v-11.3400002h2.2680054v3.8880005c.7290039-.6803999,1.6519928-1.0530005,2.6239929-1.0530005ZM156.7400055,11.6599998h2.2679901v11.3400002h-2.1230011v-1.1340008c-.5829926.8100014-1.5869904,1.2960014-2.6729889,1.2960014-2.072998,0-3.4500122-1.5552006-3.4500122-4.3254013,0-2.7539997,1.3610077-4.3415995,3.4500122-4.3415995,1.0049896,0,1.9279938.4211998,2.5279999,1.1015997v-3.9365997ZM154.8439941,21.2341995c.7940063,0,1.5070038-.469799,1.8960114-1.2311993v-2.3490009c-.3890076-.7451992-1.102005-1.2150002-1.8960114-1.2150002-1.019989,0-1.7009888.8424015-1.7009888,2.2842007v.2105999c0,1.4418011.6809998,2.3003998,1.7009888,2.3003998ZM167.8300018,16.5685997c-1.3280029,0-2.2839966.6156006-2.5919952,1.5876007v2.9807987h3.223999v1.8630009h-7.5650024v-1.8630009h2.072998v-4.6169987h-2.1060028v-1.8630009h4.2290039v1.4580002c.4530029-.9396,1.4579926-1.5551996,2.6730042-1.5551996.42099,0,.8909912.0648003,1.1009979.1457996v2.0087996c-.2590027-.0971985-.6320038-.1457996-1.0370026-.1457996ZM178.6459961,21.4447994c.1940002,0,.4210052-.0485992.5339966-.1457996v1.5552006c-.3399963.1943989-.9069977.3078003-1.3769989.3078003-.9069977,0-1.7169952-.4211998-1.9279938-1.3446007-.4530029.8423996-1.3930054,1.3446007-2.5749969,1.3446007-1.5720062,0-2.6730042-.955801-2.6730042-2.4948006,0-1.6362,1.197998-2.7054005,3.1100006-2.7054005.6970062,0,1.4089966.1133995,1.9279938.3563995v-.469799c0-1.0529995-.6639862-1.4904003-1.8149872-1.4904003-1.0360107,0-1.9920044.3726006-2.6560059.9234009v-1.9440002c.6959991-.5022001,1.927002-.8424006,3.1750031-.8424006,2.2839966,0,3.5639954,1.1501999,3.5639954,3.0780001v2.8512001c0,.4050007.0160065,1.0205994.7129974,1.0205994ZM174.0769958,21.3638c.6970062,0,1.2799988-.3078003,1.5879974-.8099995v-.9071999c-.3729858-.1782017-.8099976-.2916012-1.3119965-.2916012-.8909912,0-1.3450012.4374008-1.3450012,1.0530014,0,.6317997.4210052.9557991,1.0690002.9557991ZM179.8540039,14.6569996h1.9929962l.598999,6.3180008h.0330048c.2099915-1.8306007.4049988-3.1914005.875-6.3180008h2.1380005c.4700012,3.1266003.6640015,4.4874001.875,6.3180008h.0319977l.6159973-6.3180008h1.9759979l-1.1660004,8.3430004h-2.6730042l-.2589874-1.7658005c-.1460114-.9557991-.3079987-2.3976002-.45401-4.0499992h-.0159912c-.1620026,1.6523991-.3079987,3.0131989-.45401,4.0175991l-.2749939,1.7982006h-2.6569977l-1.1829987-8.3430004Z"/>
  <rect class="cls-1" x=".75" y="47.75" width="136.5" height="33.5" rx="6" ry="6"/>
  <rect class="cls-9" x=".75" y="47.75" width="136.5" height="33.5" rx="6" ry="6"/>
  <path class="cls-6" d="M10.9882002,64.6539993c0-3.5639992,1.7981997-5.5079994,4.7628002-5.5079994.9882002,0,2.0087996.2106018,2.5595999.5022011v2.2031975c-.6966-.437397-1.3931999-.6155968-2.138401-.6155968-2.2355995,0-2.7215996,1.6199989-2.7215996,3.3209991v.1781998c0,1.9925995.7128,3.3371964,2.7215996,3.3371964.7452011,0,1.4418011-.1781998,2.138401-.6317978v2.2032013c-.5669994.3078003-1.5876007.5184021-2.5595999.5184021-2.9646006,0-4.7628002-1.9440002-4.7628002-5.5080032ZM24.6546993,70.1620026c-2.4947987,0-4.1471996-1.7334061-4.1471996-4.3254013,0-2.6082001,1.652401-4.3416023,4.1471996-4.3416023,2.4948006,0,4.1634007,1.7334023,4.1634007,4.3416023,0,2.5919952-1.6686001,4.3254013-4.1634007,4.3254013ZM24.6546993,68.2990036c1.198801,0,1.7820015-.8586044,1.7820015-2.3490067v-.2429962c0-1.5551987-.6642017-2.348999-1.7820015-2.348999-1.1826,0-1.7657986.8748016-1.7657986,2.348999v.2429962c0,1.5714035.6641998,2.3490067,1.7657986,2.3490067ZM30.4803009,70v-1.862999h3.1590004v-7.6301994h-2.608202v-1.8468018h4.8761997v9.4770012h2.7540016v1.862999h-8.1809998ZM40.2750015,70v-1.862999h3.1589966v-7.6301994h-2.6081963v-1.8468018h4.8761978v9.4770012h2.7540016v1.862999h-8.1809998ZM58.0077019,65.1399994c0,.3726044-.0486031.8262024-.1296005,1.1501999h-5.5080032c.016201,1.1987991.9882011,2.0088043,2.5758018,2.0088043.9234009,0,1.9115982-.3078003,2.5271988-.7776031v1.9764023c-.7613983.453598-1.7819977.6641998-2.7701988.6641998-2.9645996,0-4.6332016-1.7334061-4.6332016-4.3578033,0-2.5919991,1.6038017-4.3092003,4.1148033-4.3092003,2.316597,0,3.8232002,1.4580002,3.8232002,3.6450005ZM54.1035004,63.3255997c-1.0530014,0-1.6847992.6318016-1.7172012,1.5551987h3.4020004c-.016201-1.0043983-.6804008-1.5551987-1.6847992-1.5551987ZM60.1884003,65.8366013c0-2.6244011,1.6847992-4.3416023,4.3578033-4.3416023,1.0691986,0,1.9763947.2268028,2.6082001.5670013v2.0412025c-.6642075-.4698029-1.441803-.6642036-2.2194061-.6642036-1.6199989,0-2.3813972.9071999-2.3813972,2.2680016v.2429962c0,1.5714035.9395981,2.2680054,2.3652,2.2680054.8748016,0,1.6362-.259201,2.2356033-.6641998v2.0249939c-.7614059.3888016-1.7334061.5832062-2.6568069.5832062-2.5919952,0-4.3091965-1.668602-4.3091965-4.3254013ZM69.3511963,63.5200005v-1.862999h2.5110016v-2.3490028h2.2680054v2.3490028h3.6287994v1.862999h-3.6287994v2.8187981c0,1.1664047.421196,1.895401,1.6523972,1.895401.4860001,0,1.0367966-.1296005,1.3445969-.3563995v1.862999c-.3725967.226799-1.1663971.4212036-2.0087967.4212036-2.2356033,0-3.2562027-1.2636032-3.2562027-3.4344025v-3.2075996h-2.5110016ZM96.9596024,60.1665993c-.2916031-.1457977-.7776031-.243-1.1987991-.243-1.1016006,0-1.668602.5670013-1.668602,1.425602v.3078003h3.0456009v1.862999h-3.0456009v4.6170006h3.0456009v1.862999h-7.6949997v-1.862999h2.3651962v-4.6170006h-2.4785995v-1.862999h2.4785995v-.4374008c0-1.9602013,1.3608017-3.0131989,3.3534012-3.0131989.7452011,0,1.4094009.1295967,1.7982025.3239975v1.6362ZM106.9810028,65.1399994c0,.3726044-.0490036.8262024-.1300049,1.1501999h-5.5079956c.0169983,1.1987991.9889984,2.0088043,2.5759964,2.0088043.9240036,0,1.9120026-.3078003,2.5270004-.7776031v1.9764023c-.7610016.453598-1.7819977.6641998-2.7699966.6641998-2.9640045,0-4.6329041-1.7334061-4.6329041-4.3578033,0-2.5919991,1.6039047-4.3092003,4.1148987-4.3092003,2.3160019,0,3.8230057,1.4580002,3.8230057,3.6450005ZM103.0770035,63.3255997c-1.0530014,0-1.6850052.6318016-1.7170029,1.5551987h3.4020004c-.0169983-1.0043983-.6809998-1.5551987-1.6849976-1.5551987ZM116.776001,65.1399994c0,.3726044-.0490036.8262024-.1299973,1.1501999h-5.5080032c.0159988,1.1987991.987999,2.0088043,2.5759964,2.0088043.9230042,0,1.9120026-.3078003,2.5270004-.7776031v1.9764023c-.760994.453598-1.7819977.6641998-2.7699966.6641998-2.965004,0-4.6330032-1.7334061-4.6330032-4.3578033,0-2.5919991,1.6040039-4.3092003,4.1150055-4.3092003,2.3159943,0,3.822998,1.4580002,3.822998,3.6450005ZM112.8720016,63.3255997c-1.0530014,0-1.6850052.6318016-1.7180023,1.5551987h3.4020004c-.0159988-1.0043983-.6800003-1.5551987-1.6839981-1.5551987ZM122.5530014,70.1620026c-1.2310028,0-2.5270004-.3563995-3.1590042-.8423996v-1.9116058c.7940063.5994034,1.9599991.9720001,3.0620041.9720001,1.0199966,0,1.4410019-.2753983,1.4410019-.7938004,0-.5345993-.4210052-.647995-.826004-.7289963l-1.4089966-.2753983c-1.7820053-.3402023-2.4300003-1.2312012-2.4300003-2.3976059,0-1.7333946,1.4249954-2.6891975,3.5479965-2.6891975,1.0360031,0,2.1870041.259201,2.9319992.7128029v1.9115982c-.7289963-.5022011-1.8470001-.8586006-2.9000015-.8586006-.9229965,0-1.2959976.2915993-1.2959976.7451973,0,.5508041.5510025.6641998.9230042.7452011l1.3289948.2430038c1.7490005.3401947,2.4459991,1.1826019,2.4459991,2.4785995,0,1.668602-1.4419937,2.6892014-3.6609955,2.6892014Z"/>
  <rect class="cls-2" x="150" y="47" width="118" height="35" rx="5" ry="5"/>
  <rect class="cls-10" x="150" y="47" width="118" height="35" rx="5" ry="5"/>
  <path class="cls-3" d="M160.6970062,70v-10.6920013h2.5749969l1.6040039,3.8556023h.0329895l1.5870056-3.8556023h2.5269928v10.6920013h-2.2189941v-4.9571991l.0809937-2.1222h-.0319977l-1.4909973,3.3371964h-1.0039978l-1.4909973-3.3371964h-.0319977l.0809937,2.1222v4.9571991h-2.2189941ZM174.6549988,70.1620026c-2.4949951,0-4.147995-1.7334061-4.147995-4.3254013,0-2.6082001,1.6529999-4.3416023,4.147995-4.3416023,2.4940033,0,4.1629944,1.7334023,4.1629944,4.3416023,0,2.5919952-1.6689911,4.3254013-4.1629944,4.3254013ZM174.6549988,68.2990036c1.197998,0,1.7819977-.8586044,1.7819977-2.3490067v-.2429962c0-1.5551987-.6649933-2.348999-1.7819977-2.348999-1.1829987,0-1.7659912.8748016-1.7659912,2.348999v.2429962c0,1.5714035.6639862,2.3490067,1.7659912,2.3490067ZM183.0399933,70l-3.2079926-8.3429985h2.5279999l2.0570068,6.4314003h.048996l2.0889893-6.4314003h2.5279999l-3.223999,8.3429985h-2.8190002ZM198.2129974,65.1399994c0,.3726044-.048996.8262024-.1300049,1.1501999h-5.5079956c.0169983,1.1987991.9889984,2.0088043,2.576004,2.0088043.923996,0,1.9120026-.3078003,2.5269928-.7776031v1.9764023c-.7609863.453598-1.7819977.6641998-2.769989.6641998-2.9640045,0-4.6330109-1.7334061-4.6330109-4.3578033,0-2.5919991,1.6040039-4.3092003,4.1150055-4.3092003,2.3159943,0,3.822998,1.4580002,3.822998,3.6450005ZM194.3090057,63.3255997c-1.053009,0-1.6850128.6318016-1.7170105,1.5551987h3.4020081c-.0169983-1.0043983-.6809998-1.5551987-1.6849976-1.5551987ZM216.8300018,63.5685997c-1.3280029,0-2.2839966.6155968-2.5919952,1.5875969v2.9808044h3.223999v1.862999h-7.5650024v-1.862999h2.072998v-4.6170006h-2.1060028v-1.862999h4.2290039v1.4580002c.4530029-.9396019,1.4579926-1.5552025,2.6730042-1.5552025.42099,0,.8909912.0648003,1.1009979.1458015v2.0088005c-.2590027-.0972023-.6320038-.1458015-1.0370026-.1458015ZM227.6459961,68.4448013c.1940002,0,.4210052-.0485992.5339966-.1457977v1.5551987c-.3399963.194397-.9069977.3078003-1.3769989.3078003-.9069977,0-1.7169952-.4212036-1.9279938-1.3446045-.4530029.8423996-1.3930054,1.3446045-2.5749969,1.3446045-1.5720062,0-2.6730042-.9558029-2.6730042-2.4948044,0-1.6362,1.197998-2.7053986,3.1100006-2.7053986.6970062,0,1.4089966.1134033,1.9279938.3563995v-.4698029c0-1.0529976-.6639862-1.4903946-1.8149872-1.4903946-1.0360107,0-1.9920044.3725967-2.6560059.9234009v-1.9440041c.6959991-.5021973,1.927002-.8423996,3.1750031-.8423996,2.2839966,0,3.5639954,1.1501999,3.5639954,3.0779991v2.8512039c0,.4049988.0160065,1.0205994.7129974,1.0205994ZM223.0769958,68.3638c.6970062,0,1.2799988-.3078003,1.5879974-.8099976v-.9072037c-.3729858-.1781998-.8099976-.2915955-1.3119965-.2915955-.8909912,0-1.3450012.4373932-1.3450012,1.0529938,0,.6318054.4210052.9558029,1.0690002.9558029ZM234.5079956,61.4949989c1.6529999,0,2.7220001.9558029,2.7220001,3.2886009v5.2164001h-2.2679901v-4.9247971c0-1.0854034-.4380035-1.6362038-1.3120117-1.6362038-.6809998,0-1.3450012.3402023-1.7659912,1.0368004v5.5242004h-2.2680054v-8.3429985h2.1220093v1.0368004c.7449951-.7614021,1.7169952-1.1988029,2.769989-1.1988029ZM245.1450043,68.5419998c1.5549927,0,2.4299927.9234009,2.4299927,2.3003998,0,1.5065994-.9389954,2.2356033-2.4459991,2.2356033h-3.6940002c-1.7330017,0-2.5589905-.8748016-2.5589905-2.2356033,0-1.4741974,1.019989-2.3003998,2.5589905-2.3003998h.6320038v-1.2798004c-1.6849976-.2753983-2.5919952-1.3283997-2.5919952-2.802597,0-1.8792038,1.4420013-2.9646034,3.6779938-2.9646034h.2590027l3.0449982-2.348999.9889984,1.652401-2.3329926,1.1016006c.9229889.469799,1.4249878,1.3445969,1.4249878,2.4785995,0,1.6037979-1.019989,2.6406021-2.7369995,2.8997955v1.2636032h1.3440094ZM241.6779938,64.4596024c0,.8261948.503006,1.3121948,1.32901,1.3121948.8419952,0,1.3119965-.5021973,1.3119965-1.3121948v-.0810013c0-.8423996-.5019989-1.3283997-1.3119965-1.3283997-.8430023,0-1.32901.5021973-1.32901,1.3283997v.0810013ZM244.3190002,71.3932037c.6159973,0,.875-.2106018.875-.6480026,0-.5184021-.3730011-.6480026-.875-.6480026h-2.2030029c-.6320038,0-.875.226799-.875.6480026,0,.5184021.3560028.6480026.875.6480026h2.2030029ZM256.9809875,65.1399994c0,.3726044-.0489807.8262024-.1299744,1.1501999h-5.5080109c.0169983,1.1987991.9889984,2.0088043,2.576004,2.0088043.923996,0,1.9119873-.3078003,2.5270081-.7776031v1.9764023c-.7610168.453598-1.7820129.6641998-2.7700195.6641998-2.9639893,0-4.6329956-1.7334061-4.6329956-4.3578033,0-2.5919991,1.6040039-4.3092003,4.1150055-4.3092003,2.3159943,0,3.8229828,1.4580002,3.8229828,3.6450005ZM253.0769958,63.3255997c-1.0529938,0-1.6849976.6318016-1.7169952,1.5551987h3.4019928c-.0169983-1.0043983-.6809998-1.5551987-1.6849976-1.5551987Z"/>
  <rect class="cls-1" x=".75" y="94.75" width="107.5" height="33.5" rx="6" ry="6"/>
  <rect class="cls-7" x=".75" y="94.75" width="107.5" height="33.5" rx="6" ry="6"/>
  <path class="cls-4" d="M10.5184002,117l2.5757999-10.6920013h3.5153999l2.5919991,10.6920013h-2.4785995l-.4373989-2.0090027h-2.9322004l-.4373999,2.0090027h-2.3976002ZM13.7746,113.0149994h2.1059999l-1.0368004-4.8759995h-.0323992l-1.0368004,4.8759995ZM26.1126995,108.6569977h2.2679996v8.3430023h-2.1222v-1.0530014c-.6803989.7779999-1.5875988,1.215004-2.6405983,1.215004-1.8468018,0-2.6892014-1.2310028-2.6892014-3.0940018v-5.4110031h2.2679996v4.9900055c0,.6309967.1458015,1.586998,1.2474003,1.586998.7290001,0,1.2960014-.4049988,1.6686001-1.0530014v-5.5240021ZM30.1725006,110.5199966v-1.862999h2.5109978v-2.348999h2.2680016v2.348999h3.6287994v1.862999h-3.6287994v2.8190002c0,1.1660004.4211998,1.8950043,1.652401,1.8950043.4860001,0,1.0368004-.1289978,1.3446007-.3560028v1.862999c-.3726006.227005-1.1664009.4210052-2.0088005.4210052-2.2355995,0-3.2562027-1.2639999-3.2562027-3.4340057v-3.2080002h-2.5109978ZM44.2439995,117.1620026c-2.4948006,0-4.1471977-1.7330017-4.1471977-4.3250046,0-2.6090012,1.6523972-4.3419952,4.1471977-4.3419952s4.1633987,1.7329941,4.1633987,4.3419952c0,2.5920029-1.6685982,4.3250046-4.1633987,4.3250046ZM44.2439995,115.2990036c1.1987991,0,1.7820015-.8590012,1.7820015-2.3490067v-.2429962c0-1.5550003-.6641998-2.348999-1.7820015-2.348999-1.1825981,0-1.7658005.875-1.7658005,2.348999v.2429962c0,1.5710068.6641998,2.3490067,1.7658005,2.3490067ZM51.7868996,111.7190018h4.5198021v1.8139954h-4.5198021v-1.8139954ZM67.8023987,112.1399994c0,.3730011-.0485992.826004-.1296005,1.1500015h-5.5079994c.016201,1.1989975.9882011,2.0090027,2.5758018,2.0090027.9234009,0,1.9115982-.3080063,2.5271988-.7779999v1.9769974c-.7613983.4529953-1.7819977.6640015-2.7702026.6640015-2.9645958,0-4.6331978-1.7330017-4.6331978-4.3580017,0-2.5920029,1.6038017-4.3089981,4.1147995-4.3089981,2.3166008,0,3.8232002,1.4580002,3.8232002,3.6449966ZM63.898201,110.3259964c-1.0530014,0-1.6847992.6310043-1.7172012,1.5550003h3.4020004c-.0161972-1.0049973-.680397-1.5550003-1.6847992-1.5550003ZM69.1892014,117l2.9160004-4.1959991-2.8835983-4.1470032h2.5595932l1.8630066,2.8670044h.0161972l1.8791962-2.8670044h2.5110016l-2.8674011,4.1470032,2.8998032,4.1959991h-2.575798l-1.895401-2.7220001h-.0162048l-1.8953934,2.7220001h-2.5110016ZM83.6333008,107.7979965c-1.0691986,0-1.5551987-.5669937-1.5551987-1.4089966,0-.9560013.6156006-1.4089966,1.5551987-1.4089966,1.0205994,0,1.5065994.5669937,1.5065994,1.4089966,0,.9560013-.6156006,1.4089966-1.5065994,1.4089966ZM79.405098,117v-1.862999h3.1590042v-4.6170044h-2.4138031v-1.862999h4.6818008v6.4800034h2.7702026v1.862999h-8.1972046ZM88.9405975,110.5199966v-1.862999h2.5110016v-2.348999h2.2679977v2.348999h3.6287994v1.862999h-3.6287994v2.8190002c0,1.1660004.4212036,1.8950043,1.6524048,1.8950043.4860001,0,1.0367966-.1289978,1.3445969-.3560028v1.862999c-.3725967.227005-1.1663971.4210052-2.0087967.4210052-2.2356033,0-3.2562027-1.2639999-3.2562027-3.4340057v-3.2080002h-2.5110016Z"/>
  <rect class="cls-1" x="121" y="94" width="128" height="35" rx="5" ry="5"/>
  <rect class="cls-8" x="121" y="94" width="128" height="35" rx="5" ry="5"/>
  <path class="cls-5" d="M131.9880066,111.6539993c0-3.564003,1.7979889-5.5079956,4.7630005-5.5079956.9879913,0,2.0089874.2109985,2.5599976.5019989v2.2029953c-.6970062-.4369965-1.3939972-.6149979-2.1390076-.6149979-2.2350006,0-2.720993,1.6200027-2.720993,3.3209991v.1780014c0,1.9929962.7119904,3.336998,2.720993,3.336998.7450104,0,1.4420013-.1780014,2.1390076-.6319962v2.2039948c-.5670013.3069992-1.5879974.5180054-2.5599976.5180054-2.9650116,0-4.7630005-1.9440002-4.7630005-5.5080032ZM145.6549988,117.1620026c-2.4949951,0-4.147995-1.7330017-4.147995-4.3250046,0-2.6090012,1.6529999-4.3419952,4.147995-4.3419952,2.4940033,0,4.1629944,1.7329941,4.1629944,4.3419952,0,2.5920029-1.6689911,4.3250046-4.1629944,4.3250046ZM145.6549988,115.2990036c1.197998,0,1.7819977-.8590012,1.7819977-2.3490067v-.2429962c0-1.5550003-.6649933-2.348999-1.7819977-2.348999-1.1829987,0-1.7659912.875-1.7659912,2.348999v.2429962c0,1.5710068.6639862,2.3490067,1.7659912,2.3490067ZM158.0579987,108.4950027c1.1820068,0,1.7980042.7779999,1.7980042,2.2029953v6.302002h-2.1220093v-5.7350006c0-.5510025-.1949921-.8259964-.5509949-.8259964-.2919922,0-.5670013.1619949-.7449951.4539948v6.1070023h-1.977005v-5.7020035c0-.5839996-.1620026-.8269958-.5019989-.8269958s-.6159973.1949997-.7940063.534996v5.9940033h-2.121994v-8.3430023h1.9600067v.9720001c.3730011-.7449951,1.0049896-1.1339951,1.8149872-1.1339951.7290039,0,1.2310028.3239975,1.4740143.9559937.4369965-.6639938,1.068985-.9559937,1.7659912-.9559937ZM166.0859985,108.4950027c2.0899963,0,3.4349976,1.5879974,3.4349976,4.3419952,0,2.7860031-1.3769989,4.3250046-3.4349976,4.3250046-1.0039978,0-1.927002-.4049988-2.5269928-1.0849991v3.8389969h-2.2680054v-11.2590027h2.1060028v1.1340027c.5829926-.8099976,1.5879974-1.2959976,2.6889954-1.2959976ZM167.1560059,112.9179993v-.1620026c0-1.4749985-.6970062-2.3169937-1.701004-2.3169937-.7940063,0-1.4909973.4539948-1.8959961,1.1829987v2.413002c.4049988.7459946,1.1019897,1.1989975,1.8959961,1.1989975,1.0039978,0,1.701004-.8580017,1.701004-2.3160019ZM175.0390015,117.1620026c-2.4949951,0-4.147995-1.7330017-4.147995-4.3250046,0-2.6090012,1.6529999-4.3419952,4.147995-4.3419952,2.4940033,0,4.1629944,1.7329941,4.1629944,4.3419952,0,2.5920029-1.6689911,4.3250046-4.1629944,4.3250046ZM175.0390015,115.2990036c1.197998,0,1.7819977-.8590012,1.7819977-2.3490067v-.2429962c0-1.5550003-.6649933-2.348999-1.7819977-2.348999-1.1829987,0-1.7660065.875-1.7660065,2.348999v.2429962c0,1.5710068.6640015,2.3490067,1.7660065,2.3490067ZM186.2910004,108.6569977h2.2680054v8.3430023h-2.1220093v-1.0530014c-.6799927.7779999-1.5869904,1.215004-2.6399994,1.215004-1.8470001,0-2.6900024-1.2310028-2.6900024-3.0940018v-5.4110031h2.2680054v4.9900055c0,.6309967.1459961,1.586998,1.2480011,1.586998.7290039,0,1.2960052-.4049988,1.6679993-1.0530014v-5.5240021ZM195.7129974,108.4950027c1.6529999,0,2.7220001.9559937,2.7220001,3.2889938v5.2160034h-2.2679901v-4.9250031c0-1.0849991-.4370117-1.635994-1.3120117-1.635994-.6809998,0-1.3450012.3399963-1.7659912,1.0369949v5.5240021h-2.2680054v-8.3430023h2.121994v1.0370026c.7450104-.762001,1.7170105-1.1989975,2.7700043-1.1989975ZM206.1239929,105.6600037h2.2680054v11.3399963h-2.121994v-1.1340027c-.5839996.8100052-1.5879974,1.2960052-2.6730042,1.2960052-2.0740051,0-3.451004-1.5550003-3.451004-4.3250046,0-2.7539978,1.3610077-4.3419952,3.451004-4.3419952,1.0039978,0,1.927002.4209976,2.5269928,1.1019974v-3.9369965ZM204.2279968,115.2340012c.7940063,0,1.5070038-.4700012,1.8959961-1.2310028v-2.348999c-.3889923-.7450027-1.1019897-1.2149963-1.8959961-1.2149963-1.0200043,0-1.701004.8419952-1.701004,2.2839966v.2109985c0,1.4420013.6809998,2.3000031,1.701004,2.3000031ZM214.4279938,107.7979965c-1.0690002,0-1.5549927-.5669937-1.5549927-1.4089966,0-.9560013.6150055-1.4089966,1.5549927-1.4089966,1.0210114,0,1.5070038.5669937,1.5070038,1.4089966,0,.9560013-.6159973,1.4089966-1.5070038,1.4089966ZM210.1999969,117v-1.862999h3.1589966v-4.6170044h-2.4139862v-1.862999h4.6819916v6.4800034h2.7700043v1.862999h-8.1970062ZM225.0970001,108.4950027c1.6529999,0,2.7220001.9559937,2.7220001,3.2889938v5.2160034h-2.2680054v-4.9250031c0-1.0849991-.4369965-1.635994-1.3119965-1.635994-.6809998,0-1.3450012.3399963-1.7659912,1.0369949v5.5240021h-2.2680054v-8.3430023h2.121994v1.0370026c.7450104-.762001,1.7170105-1.1989975,2.7700043-1.1989975ZM235.7350006,115.5419998c1.5549927,0,2.4299927.9229965,2.4299927,2.3000031,0,1.5069962-.9399872,2.2360001-2.446991,2.2360001h-3.6930084c-1.7339935,0-2.5599976-.875-2.5599976-2.2360001,0-1.4740067,1.0209961-2.3000031,2.5599976-2.3000031h.6320038v-1.2799988c-1.6849976-.2750015-2.5919952-1.3280029-2.5919952-2.802002,0-1.8799973,1.4409943-2.9649963,3.677002-2.9649963h.2590027l3.04599-2.348999.9880066,1.6519928-2.3330078,1.102005c.9240112.4700012,1.4260101,1.3450012,1.4260101,2.4789963,0,1.6030045-1.0210114,2.6399994-2.7380066,2.8990021v1.2639999h1.3450012ZM232.2680054,111.4599991c0,.826004.5019989,1.3120041,1.3279877,1.3120041.8430023,0,1.3120117-.5020065,1.3120117-1.3120041v-.0810013c0-.8429947-.5019989-1.3289948-1.3120117-1.3289948-.8419952,0-1.3279877.5019989-1.3279877,1.3289948v.0810013ZM234.9080048,118.3929977c.6159973,0,.875-.2099991.875-.647995,0-.5180054-.3720093-.6480026-.875-.6480026h-2.2030029c-.6320038,0-.875.2269974-.875.6480026,0,.5189972.3569946.647995.875.647995h2.2030029Z"/>
</svg>