<svg id="SvgjsSvg1304" width="288" height="288" xmlns="http://www.w3.org/2000/svg" version="1.1" xmlns:xlink="http://www.w3.org/1999/xlink" xmlns:svgjs="http://svgjs.com/svgjs"><defs id="SvgjsDefs1305"></defs><g id="SvgjsG1306"><svg xmlns="http://www.w3.org/2000/svg" viewBox="0 0 888 298" width="288" height="288"><path fill="#8f070e" d="M0 0 C1.05499695 -0.01283524 2.1099939 -0.02567047 3.19696045 -0.03889465 C4.33240295 -0.04628159 5.46784546 -0.05366852 6.63769531 -0.0612793 C7.81164856 -0.06935104 8.98560181 -0.07742279 10.19512939 -0.08573914 C12.67987598 -0.09956666 15.16464146 -0.11029476 17.64941406 -0.11816406 C21.43754308 -0.13536961 25.22479765 -0.17926883 29.01269531 -0.22338867 C31.42935558 -0.23351669 33.84602324 -0.24203245 36.26269531 -0.2487793 C37.39004089 -0.26628738 38.51738647 -0.28379547 39.67889404 -0.30183411 C46.50602605 -0.28312567 50.91350445 0.50122226 56.71582031 4.17700195 C60.2629912 7.99703214 61.84195415 10.43149177 61.83607483 15.59353638 C61.83813683 16.98599579 61.83813683 16.98599579 61.84024048 18.40658569 C61.83484756 19.93867172 61.83484756 19.93867172 61.8293457 21.50170898 C61.82949173 22.5748938 61.82963776 23.64807861 61.82978821 24.75378418 C61.82908948 28.3141479 61.82129892 31.87445983 61.81347656 35.43481445 C61.81161224 37.8981829 61.81018841 40.36155171 61.80918884 42.82492065 C61.80536478 49.31867491 61.79553542 55.8124069 61.78448486 62.30615234 C61.77247313 70.09213284 61.76786797 77.87812119 61.76203156 85.66410828 C61.75232363 97.50175499 61.73316627 109.33935286 61.71582031 121.17700195 C35.31582031 121.17700195 8.91582031 121.17700195 -18.28417969 121.17700195 C-18.44461492 93.96540309 -18.44461492 93.96540309 -18.47949219 82.3684082 C-18.50340582 74.45439939 -18.53169947 66.54057564 -18.5859375 58.62670898 C-18.6293907 52.24654741 -18.65331608 45.86658429 -18.66368866 39.48628616 C-18.67108088 37.0518036 -18.68551602 34.61733192 -18.70709991 32.18293381 C-18.73612584 28.77365371 -18.74013588 25.36519427 -18.73828125 21.95581055 C-18.75266235 20.94880096 -18.76704346 19.94179138 -18.78186035 18.90426636 C-18.74788835 13.1349996 -18.20026254 9.72431068 -14.28417969 5.17700195 C-9.60450001 0.84829825 -6.23916434 0.06630698 0 0 Z " transform="translate(54.284 104.823)" class="color078F3F svgShape"></path><path fill="#b40817" d="M0 0 C1.05499695 -0.01283524 2.1099939 -0.02567047 3.19696045 -0.03889465 C4.33240295 -0.04628159 5.46784546 -0.05366852 6.63769531 -0.0612793 C7.81164856 -0.06935104 8.98560181 -0.07742279 10.19512939 -0.08573914 C12.67987598 -0.09956666 15.16464146 -0.11029476 17.64941406 -0.11816406 C21.43754308 -0.13536961 25.22479765 -0.17926883 29.01269531 -0.22338867 C31.42935558 -0.23351669 33.84602324 -0.24203245 36.26269531 -0.2487793 C37.39004089 -0.26628738 38.51738647 -0.28379547 39.67889404 -0.30183411 C46.50602605 -0.28312567 50.91350445 0.50122226 56.71582031 4.17700195 C60.2629912 7.99703214 61.84195415 10.43149177 61.83607483 15.59353638 C61.83813683 16.98599579 61.83813683 16.98599579 61.84024048 18.40658569 C61.83484756 19.93867172 61.83484756 19.93867172 61.8293457 21.50170898 C61.82949173 22.5748938 61.82963776 23.64807861 61.82978821 24.75378418 C61.82908948 28.3141479 61.82129892 31.87445983 61.81347656 35.43481445 C61.81161224 37.8981829 61.81018841 40.36155171 61.80918884 42.82492065 C61.80536478 49.31867491 61.79553542 55.8124069 61.78448486 62.30615234 C61.77247313 70.09213284 61.76786797 77.87812119 61.76203156 85.66410828 C61.75232363 97.50175499 61.73316627 109.33935286 61.71582031 121.17700195 C35.31582031 121.17700195 8.91582031 121.17700195 -18.28417969 121.17700195 C-18.44461492 93.96540309 -18.44461492 93.96540309 -18.47949219 82.3684082 C-18.50340582 74.45439939 -18.53169947 66.54057564 -18.5859375 58.62670898 C-18.6293907 52.24654741 -18.65331608 45.86658429 -18.66368866 39.48628616 C-18.67108088 37.0518036 -18.68551602 34.61733192 -18.70709991 32.18293381 C-18.73612584 28.77365371 -18.74013588 25.36519427 -18.73828125 21.95581055 C-18.75266235 20.94880096 -18.76704346 19.94179138 -18.78186035 18.90426636 C-18.74788835 13.1349996 -18.20026254 9.72431068 -14.28417969 5.17700195 C-9.60450001 0.84829825 -6.23916434 0.06630698 0 0 Z " transform="translate(238.284 96.823)" class="color08B44E svgShape"></path><path fill="#d80a32" d="M0 0 C1.05499695 -0.01283524 2.1099939 -0.02567047 3.19696045 -0.03889465 C4.33240295 -0.04628159 5.46784546 -0.05366852 6.63769531 -0.0612793 C7.81164856 -0.06935104 8.98560181 -0.07742279 10.19512939 -0.08573914 C12.67987598 -0.09956666 15.16464146 -0.11029476 17.64941406 -0.11816406 C21.43754308 -0.13536961 25.22479765 -0.17926883 29.01269531 -0.22338867 C31.42935558 -0.23351669 33.84602324 -0.24203245 36.26269531 -0.2487793 C37.39004089 -0.26628738 38.51738647 -0.28379547 39.67889404 -0.30183411 C46.50602605 -0.28312567 50.91350445 0.50122226 56.71582031 4.17700195 C60.2629912 7.99703214 61.84195415 10.43149177 61.83607483 15.59353638 C61.83813683 16.98599579 61.83813683 16.98599579 61.84024048 18.40658569 C61.83484756 19.93867172 61.83484756 19.93867172 61.8293457 21.50170898 C61.82949173 22.5748938 61.82963776 23.64807861 61.82978821 24.75378418 C61.82908948 28.3141479 61.82129892 31.87445983 61.81347656 35.43481445 C61.81161224 37.8981829 61.81018841 40.36155171 61.80918884 42.82492065 C61.80536478 49.31867491 61.79553542 55.8124069 61.78448486 62.30615234 C61.77247313 70.09213284 61.76786797 77.87812119 61.76203156 85.66410828 C61.75232363 97.50175499 61.73316627 109.33935286 61.71582031 121.17700195 C35.31582031 121.17700195 8.91582031 121.17700195 -18.28417969 121.17700195 C-18.44461492 93.96540309 -18.44461492 93.96540309 -18.47949219 82.3684082 C-18.50340582 74.45439939 -18.53169947 66.54057564 -18.5859375 58.62670898 C-18.6293907 52.24654741 -18.65331608 45.86658429 -18.66368866 39.48628616 C-18.67108088 37.0518036 -18.68551602 34.61733192 -18.70709991 32.18293381 C-18.73612584 28.77365371 -18.74013588 25.36519427 -18.73828125 21.95581055 C-18.75266235 20.94880096 -18.76704346 19.94179138 -18.78186035 18.90426636 C-18.74788835 13.1349996 -18.20026254 9.72431068 -14.28417969 5.17700195 C-9.60450001 0.84829825 -6.23916434 0.06630698 0 0 Z " transform="translate(422.284 84.823)" class="color0AD85E svgShape"></path><path fill="#f4143a" d="M0 0 C1.05499695 -0.01283524 2.1099939 -0.02567047 3.19696045 -0.03889465 C4.33240295 -0.04628159 5.46784546 -0.05366852 6.63769531 -0.0612793 C7.81164856 -0.06935104 8.98560181 -0.07742279 10.19512939 -0.08573914 C12.67987598 -0.09956666 15.16464146 -0.11029476 17.64941406 -0.11816406 C21.43754308 -0.13536961 25.22479765 -0.17926883 29.01269531 -0.22338867 C31.42935558 -0.23351669 33.84602324 -0.24203245 36.26269531 -0.2487793 C37.39004089 -0.26628738 38.51738647 -0.28379547 39.67889404 -0.30183411 C46.50602605 -0.28312567 50.91350445 0.50122226 56.71582031 4.17700195 C60.2629912 7.99703214 61.84195415 10.43149177 61.83607483 15.59353638 C61.83813683 16.98599579 61.83813683 16.98599579 61.84024048 18.40658569 C61.83484756 19.93867172 61.83484756 19.93867172 61.8293457 21.50170898 C61.82949173 22.5748938 61.82963776 23.64807861 61.82978821 24.75378418 C61.82908948 28.3141479 61.82129892 31.87445983 61.81347656 35.43481445 C61.81161224 37.8981829 61.81018841 40.36155171 61.80918884 42.82492065 C61.80536478 49.31867491 61.79553542 55.8124069 61.78448486 62.30615234 C61.77247313 70.09213284 61.76786797 77.87812119 61.76203156 85.66410828 C61.75232363 97.50175499 61.73316627 109.33935286 61.71582031 121.17700195 C35.31582031 121.17700195 8.91582031 121.17700195 -18.28417969 121.17700195 C-18.44461492 93.96540309 -18.44461492 93.96540309 -18.47949219 82.3684082 C-18.50340582 74.45439939 -18.53169947 66.54057564 -18.5859375 58.62670898 C-18.6293907 52.24654741 -18.65331608 45.86658429 -18.66368866 39.48628616 C-18.67108088 37.0518036 -18.68551602 34.61733192 -18.70709991 32.18293381 C-18.73612584 28.77365371 -18.74013588 25.36519427 -18.73828125 21.95581055 C-18.75266235 20.94880096 -18.76704346 19.94179138 -18.78186035 18.90426636 C-18.74788835 13.1349996 -18.20026254 9.72431068 -14.28417969 5.17700195 C-9.60450001 0.84829825 -6.23916434 0.06630698 0 0 Z " transform="translate(606.284 52.823)" class="color14F46F svgShape"></path><path fill="#f4143a" d="M0 0 C1.05499695 -0.01283524 2.1099939 -0.02567047 3.19696045 -0.03889465 C4.33240295 -0.04628159 5.46784546 -0.05366852 6.63769531 -0.0612793 C7.81164856 -0.06935104 8.98560181 -0.07742279 10.19512939 -0.08573914 C12.67987598 -0.09956666 15.16464146 -0.11029476 17.64941406 -0.11816406 C21.43754308 -0.13536961 25.22479765 -0.17926883 29.01269531 -0.22338867 C31.42935558 -0.23351669 33.84602324 -0.24203245 36.26269531 -0.2487793 C37.39004089 -0.26628738 38.51738647 -0.28379547 39.67889404 -0.30183411 C46.50602605 -0.28312567 50.91350445 0.50122226 56.71582031 4.17700195 C60.2629912 7.99703214 61.84195415 10.43149177 61.83607483 15.59353638 C61.83813683 16.98599579 61.83813683 16.98599579 61.84024048 18.40658569 C61.83484756 19.93867172 61.83484756 19.93867172 61.8293457 21.50170898 C61.82949173 22.5748938 61.82963776 23.64807861 61.82978821 24.75378418 C61.82908948 28.3141479 61.82129892 31.87445983 61.81347656 35.43481445 C61.81161224 37.8981829 61.81018841 40.36155171 61.80918884 42.82492065 C61.80536478 49.31867491 61.79553542 55.8124069 61.78448486 62.30615234 C61.77247313 70.09213284 61.76786797 77.87812119 61.76203156 85.66410828 C61.75232363 97.50175499 61.73316627 109.33935286 61.71582031 121.17700195 C35.31582031 121.17700195 8.91582031 121.17700195 -18.28417969 121.17700195 C-18.44461492 93.96540309 -18.44461492 93.96540309 -18.47949219 82.3684082 C-18.50340582 74.45439939 -18.53169947 66.54057564 -18.5859375 58.62670898 C-18.6293907 52.24654741 -18.65331608 45.86658429 -18.66368866 39.48628616 C-18.67108088 37.0518036 -18.68551602 34.61733192 -18.70709991 32.18293381 C-18.73612584 28.77365371 -18.74013588 25.36519427 -18.73828125 21.95581055 C-18.75266235 20.94880096 -18.76704346 19.94179138 -18.78186035 18.90426636 C-18.74788835 13.1349996 -18.20026254 9.72431068 -14.28417969 5.17700195 C-9.60450001 0.84829825 -6.23916434 0.06630698 0 0 Z " transform="translate(790.284 24.823)" class="color14F46F svgShape"></path><path fill="#9228f3" d="M0 0 C26.4 0 52.8 0 80 0 C80 17.49 80 34.98 80 53 C53.6 53 27.2 53 0 53 C0 35.51 0 18.02 0 0 Z " transform="translate(772 179)" class="color9228F3 svgShape"></path><path fill="#39494e" d="M0 0 C293.04 0 586.08 0 888 0 C888 0.99 888 1.98 888 3 C594.96 3 301.92 3 0 3 C0 2.01 0 1.02 0 0 Z " transform="translate(0 252)" class="color39494E svgShape"></path><path fill="#ce8fff" d="M0 0 C26.4 0 52.8 0 80 0 C80 10.23 80 20.46 80 31 C53.6 31 27.2 31 0 31 C0 20.77 0 10.54 0 0 Z " transform="translate(588 175)" class="colorCE8FFF svgShape"></path><path fill="#ce8fff" d="M0 0 C26.4 0 52.8 0 80 0 C80 10.23 80 20.46 80 31 C53.6 31 27.2 31 0 31 C0 20.77 0 10.54 0 0 Z " transform="translate(772 147)" class="colorCE8FFF svgShape"></path><path fill="#9228f3" d="M0 0 C26.4 0 52.8 0 80 0 C80 8.25 80 16.5 80 25 C53.6 25 27.2 25 0 25 C0 16.75 0 8.5 0 0 Z " transform="translate(588 207)" class="color9228F3 svgShape"></path><path fill="#771fca" d="M0 0 C26.4 0 52.8 0 80 0 C80 4.29 80 8.58 80 13 C53.6 13 27.2 13 0 13 C0 8.71 0 4.42 0 0 Z " transform="translate(404 219)" class="color771FCA svgShape"></path><path fill="#ba63ff" d="M0 0 C26.4 0 52.8 0 80 0 C80 3.63 80 7.26 80 11 C53.6 11 27.2 11 0 11 C0 7.37 0 3.74 0 0 Z " transform="translate(404 207)" class="colorBA63FF svgShape"></path><path fill="#5d169f" d="M0 0 C26.4 0 52.8 0 80 0 C80 2.31 80 4.62 80 7 C53.6 7 27.2 7 0 7 C0 4.69 0 2.38 0 0 Z " transform="translate(220 225)" class="color5D169F svgShape"></path><path fill="#5d169f" d="M0 0 C26.4 0 52.8 0 80 0 C80 1.65 80 3.3 80 5 C53.6 5 27.2 5 0 5 C0 3.35 0 1.7 0 0 Z " transform="translate(36 227)" class="color5D169F svgShape"></path><path fill="#ba63ff" d="M0 0 C26.4 0 52.8 0 80 0 C80 1.65 80 3.3 80 5 C53.6 5 27.2 5 0 5 C0 3.35 0 1.7 0 0 Z " transform="translate(220 219)" class="colorBA63FF svgShape"></path><path fill="#b6cbc0" d="M0 0 C1.23556641 0.01740234 1.23556641 0.01740234 2.49609375 0.03515625 C3.32238281 0.04417969 4.14867187 0.05320312 5 0.0625 C5.63808594 0.07410156 6.27617187 0.08570313 6.93359375 0.09765625 C8.97601622 3.48270703 9.23137606 6.17293934 9.24609375 10.09765625 C9.27123047 11.64453125 9.27123047 11.64453125 9.296875 13.22265625 C8.88618565 16.47284289 8.29962809 17.84885784 5.93359375 20.09765625 C3.09790517 20.76025279 0.89120149 20.37933318 -2.06640625 20.09765625 C-5.18474929 16.97931321 -5.023276 13.90275424 -5.25390625 9.59765625 C-5.04372178 5.67421282 -4.75046388 0.22450207 0 0 Z M-1.06640625 4.09765625 C-1.10733562 6.43063058 -1.10882348 8.7647085 -1.06640625 11.09765625 C2.71393998 7.62029599 2.71393998 7.62029599 4.93359375 3.09765625 C1.64428971 2.73079928 1.64428971 2.73079928 -1.06640625 4.09765625 Z M4.93359375 8.09765625 C0.9684584 11.99955151 0.9684584 11.99955151 -0.06640625 17.09765625 C2.4062614 16.75320744 2.4062614 16.75320744 4.93359375 16.09765625 C6.28799043 13.3888629 5.99860826 11.08832357 5.93359375 8.09765625 C5.60359375 8.09765625 5.27359375 8.09765625 4.93359375 8.09765625 Z " transform="translate(257.066 274.902)" class="colorB6CBC0 svgShape"></path><path fill="#b6cbc0" d="M0 0 C1.23556641 0.01740234 1.23556641 0.01740234 2.49609375 0.03515625 C3.32238281 0.04417969 4.14867188 0.05320312 5 0.0625 C5.63808594 0.07410156 6.27617188 0.08570313 6.93359375 0.09765625 C8.97601622 3.48270703 9.23137606 6.17293934 9.24609375 10.09765625 C9.27123047 11.64453125 9.27123047 11.64453125 9.296875 13.22265625 C8.88618565 16.47284289 8.29962809 17.84885784 5.93359375 20.09765625 C3.09790517 20.76025279 0.89120149 20.37933318 -2.06640625 20.09765625 C-5.18474929 16.97931321 -5.023276 13.90275424 -5.25390625 9.59765625 C-5.04372178 5.67421282 -4.75046388 0.22450207 0 0 Z M-1.06640625 4.09765625 C-1.10733562 6.43063058 -1.10882348 8.7647085 -1.06640625 11.09765625 C2.71393998 7.62029599 2.71393998 7.62029599 4.93359375 3.09765625 C1.64428971 2.73079928 1.64428971 2.73079928 -1.06640625 4.09765625 Z M4.93359375 8.09765625 C0.9684584 11.99955151 0.9684584 11.99955151 -0.06640625 17.09765625 C2.4062614 16.75320744 2.4062614 16.75320744 4.93359375 16.09765625 C6.28799043 13.3888629 5.99860826 11.08832357 5.93359375 8.09765625 C5.60359375 8.09765625 5.27359375 8.09765625 4.93359375 8.09765625 Z " transform="translate(73.066 274.902)" class="colorB6CBC0 svgShape"></path><path fill="#b6cbc0" d="M0 0 C3.3 0 6.6 0 10 0 C12.56991614 4.81859276 12.53162661 9.68373389 12 15 C11 18.125 11 18.125 9 20 C6.1773211 20.70566973 3.8226789 20.70566973 1 20 C-1.4583143 17.69533034 -1.90715831 15.92841693 -2.23828125 12.6171875 C-2.3690366 8.00634089 -2.21707851 4.1570222 0 0 Z M2 3 C1.67 5.97 1.34 8.94 1 12 C3.96404505 9.19195732 6.44499019 6.81684226 8 3 C6.02 3 4.04 3 2 3 Z M8 8 C5.03 11.96 5.03 11.96 2 16 C4.475 16.495 4.475 16.495 7 17 C8.79682816 13.19495213 9.07349791 12.29399165 8 8 Z " transform="translate(631 275)" class="colorB6CBC0 svgShape"></path><path fill="#b6cbc0" d="M0 0 C3.3 0 6.6 0 10 0 C12.56991614 4.81859276 12.53162661 9.68373389 12 15 C11 18.125 11 18.125 9 20 C6.1773211 20.70566973 3.8226789 20.70566973 1 20 C-1.4583143 17.69533034 -1.90715831 15.92841693 -2.23828125 12.6171875 C-2.3690366 8.00634089 -2.21707851 4.1570222 0 0 Z M2 3 C1.67 5.97 1.34 8.94 1 12 C3.96404505 9.19195732 6.44499019 6.81684226 8 3 C6.02 3 4.04 3 2 3 Z M8 8 C5.03 11.96 5.03 11.96 2 16 C4.475 16.495 4.475 16.495 7 17 C8.79682816 13.19495213 9.07349791 12.29399165 8 8 Z " transform="translate(447 275)" class="colorB6CBC0 svgShape"></path><path fill="#b6cbc0" d="M0 0 C0.9075 0.00257813 1.815 0.00515625 2.75 0.0078125 C4.11125 0.00394531 4.11125 0.00394531 5.5 0 C7.75 0.1328125 7.75 0.1328125 8.75 1.1328125 C8.79241723 3.46576025 8.79092937 5.79983817 8.75 8.1328125 C8.6009288 10.2073481 8.6009288 10.2073481 9.75 12.1328125 C9.9375 15.1328125 9.9375 15.1328125 9.75 18.1328125 C7.75 20.1328125 7.75 20.1328125 5.65625 20.36328125 C4.8621875 20.34910156 4.068125 20.33492188 3.25 20.3203125 C2.4559375 20.31386719 1.661875 20.30742187 0.84375 20.30078125 C-1.25 20.1328125 -1.25 20.1328125 -3.25 19.1328125 C-4.44150921 14.76394538 -4.271829 12.17647049 -2.25 8.1328125 C-2.58 7.8028125 -2.91 7.4728125 -3.25 7.1328125 C-3.375 4.1328125 -3.375 4.1328125 -3.25 1.1328125 C-2.25 0.1328125 -2.25 0.1328125 0 0 Z M-0.25 3.1328125 C0.08 4.4528125 0.41 5.7728125 0.75 7.1328125 C2.4 7.1328125 4.05 7.1328125 5.75 7.1328125 C5.75 5.8128125 5.75 4.4928125 5.75 3.1328125 C2.75 1.79947917 2.75 1.79947917 -0.25 3.1328125 Z M0.75 11.1328125 C-0.54633621 12.19926365 -0.54633621 12.19926365 -0.3125 14.6953125 C-0.291875 15.4996875 -0.27125 16.3040625 -0.25 17.1328125 C1.73 17.1328125 3.71 17.1328125 5.75 17.1328125 C6.4314823 15.24102047 6.4314823 15.24102047 6.75 13.1328125 C6.09 12.4728125 5.43 11.8128125 4.75 11.1328125 C3.43 11.1328125 2.11 11.1328125 0.75 11.1328125 Z " transform="translate(432.25 274.867)" class="colorB6CBC0 svgShape"></path><path fill="#b6cbc0" d="M0 0 C0.99 0 1.98 0 3 0 C3 6.93 3 13.86 3 21 C-0.3 21 -3.6 21 -7 21 C-10 18 -10 18 -10.36328125 15.625 C-10.34652344 14.75875 -10.32976563 13.8925 -10.3125 13 C-10.30863281 12.13375 -10.30476562 11.2675 -10.30078125 10.375 C-10 8 -10 8 -8 5 C-4.375 4.8125 -4.375 4.8125 -1 5 C-0.67 3.35 -0.34 1.7 0 0 Z M-6 8 C-7.36952673 10.73905345 -7.12621361 12.97087332 -7 16 C-6.67 16.66 -6.34 17.32 -6 18 C-4.35 18 -2.7 18 -1 18 C0.36952673 15.26094655 0.12621361 13.02912668 0 10 C-0.33 9.34 -0.66 8.68 -1 8 C-2.65 8 -4.3 8 -6 8 Z " transform="translate(840 274)" class="colorB6CBC0 svgShape"></path><path fill="#b6cbc0" d="M0 0 C0.99 0 1.98 0 3 0 C3 6.93 3 13.86 3 21 C-0.3 21 -3.6 21 -7 21 C-10 18 -10 18 -10.36328125 15.625 C-10.34652344 14.75875 -10.32976563 13.8925 -10.3125 13 C-10.30863281 12.13375 -10.30476562 11.2675 -10.30078125 10.375 C-10 8 -10 8 -8 5 C-4.375 4.8125 -4.375 4.8125 -1 5 C-0.67 3.35 -0.34 1.7 0 0 Z M-6 8 C-7.36952673 10.73905345 -7.12621361 12.97087332 -7 16 C-6.67 16.66 -6.34 17.32 -6 18 C-4.35 18 -2.7 18 -1 18 C0.36952673 15.26094655 0.12621361 13.02912668 0 10 C-0.33 9.34 -0.66 8.68 -1 8 C-2.65 8 -4.3 8 -6 8 Z " transform="translate(656 274)" class="colorB6CBC0 svgShape"></path><path fill="#b6cbc0" d="M0 0 C0.99 0 1.98 0 3 0 C3 6.93 3 13.86 3 21 C-0.3 21 -3.6 21 -7 21 C-10 18 -10 18 -10.36328125 15.625 C-10.34652344 14.75875 -10.32976562 13.8925 -10.3125 13 C-10.30863281 12.13375 -10.30476563 11.2675 -10.30078125 10.375 C-10 8 -10 8 -8 5 C-4.375 4.8125 -4.375 4.8125 -1 5 C-0.67 3.35 -0.34 1.7 0 0 Z M-6 8 C-7.36952673 10.73905345 -7.12621361 12.97087332 -7 16 C-6.67 16.66 -6.34 17.32 -6 18 C-4.35 18 -2.7 18 -1 18 C0.36952673 15.26094655 0.12621361 13.02912668 0 10 C-0.33 9.34 -0.66 8.68 -1 8 C-2.65 8 -4.3 8 -6 8 Z " transform="translate(472 274)" class="colorB6CBC0 svgShape"></path><path fill="#b6cbc1" d="M0 0 C0.99 0 1.98 0 3 0 C3 6.93 3 13.86 3 21 C-0.3 21 -3.6 21 -7 21 C-10 18 -10 18 -10.3984375 15.625 C-10.39070313 14.75875 -10.38296875 13.8925 -10.375 13 C-10.38273437 12.13375 -10.39046875 11.2675 -10.3984375 10.375 C-9.92576336 7.55749138 -9.30541379 6.64979495 -7 5 C-3.8125 4.8125 -3.8125 4.8125 -1 5 C-0.67 3.35 -0.34 1.7 0 0 Z M-5 8 C-5.66 8.66 -6.32 9.32 -7 10 C-6.67673447 13.59679066 -6.67673447 13.59679066 -6 17 C-4.34385343 17.38218767 -2.67542976 17.71395102 -1 18 C0.20561184 17.01732141 0.20561184 17.01732141 0.09765625 15.15234375 C0.08605469 14.42144531 0.07445312 13.69054687 0.0625 12.9375 C0.041875 11.638125 0.02125 10.33875 0 9 C-2.39719432 8.32041397 -2.39719432 8.32041397 -5 8 Z " transform="translate(279 274)" class="colorB6CBC1 svgShape"></path><path fill="#b6cbc1" d="M0 0 C0.99 0 1.98 0 3 0 C3 6.93 3 13.86 3 21 C-0.3 21 -3.6 21 -7 21 C-10 18 -10 18 -10.3984375 15.625 C-10.39070313 14.75875 -10.38296875 13.8925 -10.375 13 C-10.38273437 12.13375 -10.39046875 11.2675 -10.3984375 10.375 C-9.92576336 7.55749138 -9.30541379 6.64979495 -7 5 C-3.8125 4.8125 -3.8125 4.8125 -1 5 C-0.67 3.35 -0.34 1.7 0 0 Z M-5 8 C-5.66 8.66 -6.32 9.32 -7 10 C-6.67673447 13.59679066 -6.67673447 13.59679066 -6 17 C-4.34385343 17.38218767 -2.67542976 17.71395102 -1 18 C0.20561184 17.01732141 0.20561184 17.01732141 0.09765625 15.15234375 C0.08605469 14.42144531 0.07445313 13.69054687 0.0625 12.9375 C0.041875 11.638125 0.02125 10.33875 0 9 C-2.39719432 8.32041397 -2.39719432 8.32041397 -5 8 Z " transform="translate(95 274)" class="colorB6CBC1 svgShape"></path><path fill="#b6cbc0" d="M0 0 C0.89589844 -0.01417969 1.79179687 -0.02835937 2.71484375 -0.04296875 C5.0625 0.1875 5.0625 0.1875 7.0625 2.1875 C7.63442905 9.05064863 6.48801517 13.13604543 2.125 18.625 C0.0625 20.1875 0.0625 20.1875 -2.1875 19.9375 C-2.765 19.69 -3.3425 19.4425 -3.9375 19.1875 C-2.6175 17.5375 -1.2975 15.8875 0.0625 14.1875 C-0.741875 13.878125 -1.54625 13.56875 -2.375 13.25 C-4.9375 12.1875 -4.9375 12.1875 -5.9375 11.1875 C-6.03573937 9.52320949 -6.06723631 7.85468069 -6.0625 6.1875 C-6.06507813 5.28 -6.06765625 4.3725 -6.0703125 3.4375 C-5.824593 -0.72527738 -3.66209437 0.0262704 0 0 Z M-0.9375 2.1875 C-1.9275 2.6825 -1.9275 2.6825 -2.9375 3.1875 C-2.98004356 5.18704746 -2.97830783 7.18791636 -2.9375 9.1875 C-1.87104885 10.48383621 -1.87104885 10.48383621 0.625 10.25 C1.429375 10.229375 2.23375 10.20875 3.0625 10.1875 C3.3925 8.2075 3.7225 6.2275 4.0625 4.1875 C1.67181266 3.08113605 1.67181266 3.08113605 -0.9375 2.1875 Z " transform="translate(241.938 274.813)" class="colorB6CBC0 svgShape"></path><path fill="#b6cbc0" d="M0 0 C1.32 0.33 2.64 0.66 4 1 C2.35 2.65 0.7 4.3 -1 6 C0.134375 6.28875 1.26875 6.5775 2.4375 6.875 C3.613125 7.24625 4.78875 7.6175 6 8 C7.50934217 11.01868434 7.17510672 13.67297229 7 17 C6.34 17.99 5.68 18.98 5 20 C2.90625 20.36328125 2.90625 20.36328125 0.5 20.3125 C-0.2940625 20.30863281 -1.088125 20.30476563 -1.90625 20.30078125 C-4 20 -4 20 -6 18 C-6.79321129 13.40089994 -7.07371249 8.82281422 -4.65625 4.71875 C-3.18236709 3.0223942 -1.69273205 1.47610265 0 0 Z M-3 11 C-3.04080783 12.99958364 -3.04254356 15.00045254 -3 17 C-1.02 17 0.96 17 3 17 C4.00217064 13.41672247 4.00217064 13.41672247 3 10 C-0.28930404 9.63314303 -0.28930404 9.63314303 -3 11 Z " transform="translate(803 275)" class="colorB6CBC0 svgShape"></path><path fill="#b6cbc0" d="M0 0 C1.62418745 -0.08090971 3.24951745 -0.13914995 4.875 -0.1875 C5.77992188 -0.22230469 6.68484375 -0.25710938 7.6171875 -0.29296875 C8.79667969 -0.14794922 8.79667969 -0.14794922 10 0 C12 3 12 3 12.0625 5.75 C10.55835104 10.35092622 7.56931002 12.85006061 4 16 C6.64 16.33 9.28 16.66 12 17 C12 17.99 12 18.98 12 20 C7.71 20 3.42 20 -1 20 C-1 15 -1 15 0.4609375 13.41015625 C1.40839844 12.74306641 1.40839844 12.74306641 2.375 12.0625 C5.78803895 9.40791415 7.07323643 7.32489667 8 3 C6.02 3 4.04 3 2 3 C2 3.66 2 4.32 2 5 C1.01 5 0.02 5 -1 5 C-0.67 3.35 -0.34 1.7 0 0 Z " transform="translate(597 275)" class="colorB6CBC0 svgShape"></path><path fill="#b6cbc0" d="M0 0 C3.3 0 6.6 0 10 0 C10 0.99 10 1.98 10 3 C7.69 3 5.38 3 3 3 C2.67 4.32 2.34 5.64 2 7 C3.11375 6.95875 4.2275 6.9175 5.375 6.875 C9 7 9 7 11 9 C11.54794521 15.90410959 11.54794521 15.90410959 10 19 C6.67072145 20.66463928 3.69101521 20.23435017 0 20 C-0.66 19.67 -1.32 19.34 -2 19 C-2 18.01 -2 17.02 -2 16 C0.64 16 3.28 16 6 16 C6.33 14.35 6.66 12.7 7 11 C4.36 10.67 1.72 10.34 -1 10 C-0.67 6.7 -0.34 3.4 0 0 Z " transform="translate(815 275)" class="colorB6CBC0 svgShape"></path><path fill="#b7cbc0" d="M0 0 C3.63 0 7.26 0 11 0 C10 5 10 5 8 7 C9.32 7.66 10.64 8.32 12 9 C12.35820896 16.28358209 12.35820896 16.28358209 11 19 C7.72032242 20.63983879 4.62861311 20.17845638 1 20 C0.67 18.68 0.34 17.36 0 16 C2.64 16 5.28 16 8 16 C8.33 14.35 8.66 12.7 9 11 C6.03 10.505 6.03 10.505 3 10 C3.57344937 7.13275314 3.8614515 6.1385485 6 4 C3.03 3.505 3.03 3.505 0 3 C0 2.01 0 1.02 0 0 Z " transform="translate(780 275)" class="colorB7CBC0 svgShape"></path><path fill="#b7cbc0" d="M0 0 C3.63 0 7.26 0 11 0 C10 5 10 5 8 7 C9.32 7.66 10.64 8.32 12 9 C12.35820896 16.28358209 12.35820896 16.28358209 11 19 C7.72032242 20.63983879 4.62861311 20.17845638 1 20 C0.67 18.68 0.34 17.36 0 16 C2.64 16 5.28 16 8 16 C8.33 14.35 8.66 12.7 9 11 C6.03 10.505 6.03 10.505 3 10 C3.57344937 7.13275314 3.8614515 6.1385485 6 4 C3.03 3.505 3.03 3.505 0 3 C0 2.01 0 1.02 0 0 Z " transform="translate(52 275)" class="colorB7CBC0 svgShape"></path><path fill="#b7cbc1" d="M0 0 C4.29 0 8.58 0 13 0 C12.50839669 5.43533241 11.12206673 9.2029005 8.4375 13.9375 C7.79683594 15.08089844 7.15617188 16.22429687 6.49609375 17.40234375 C5.75552734 18.68818359 5.75552734 18.68818359 5 20 C4.01 20 3.02 20 2 20 C2.62045463 15.76677156 4.10523559 12.47709705 6.0625 8.6875 C6.61035156 7.61886719 7.15820312 6.55023438 7.72265625 5.44921875 C8.14417969 4.64097656 8.56570313 3.83273437 9 3 C6.03 3 3.06 3 0 3 C0 2.01 0 1.02 0 0 Z " transform="translate(612 275)" class="colorB7CBC1 svgShape"></path><path fill="#b7cbc1" d="M0 0 C0 6.6 0 13.2 0 20 C-0.99 20 -1.98 20 -3 20 C-3.33 15.05 -3.66 10.1 -4 5 C-5.65 5.66 -7.3 6.32 -9 7 C-9 3 -9 3 -7.3125 1.25 C-5 0 -5 0 0 0 Z " transform="translate(422 275)" class="colorB7CBC1 svgShape"></path></svg></g></svg>