<svg id="SvgjsSvg1001" width="288" height="288" xmlns="http://www.w3.org/2000/svg" version="1.1" xmlns:xlink="http://www.w3.org/1999/xlink" xmlns:svgjs="http://svgjs.com/svgjs"><defs id="SvgjsDefs1002"></defs><g id="SvgjsG1008"><svg xmlns="http://www.w3.org/2000/svg" viewBox="0 0 882 440" width="288" height="288"><path fill="#485c5f" d="M0 0 C10.79185979 9.17979774 18.86787051 21.86320328 20.16796875 36.1875 C20.86765846 47.92479495 20.6044901 59.39481265 14.75390625 69.9296875 C13.63255823 71.94190826 13.63255823 71.94190826 14.94921875 74.77734375 C13.95921875 74.77734375 12.96921875 74.77734375 11.94921875 74.77734375 C10.34419259 76.50646708 10.34419259 76.50646708 8.82421875 78.77734375 C2.65974376 86.99664373 -4.42392349 92.99211424 -14.05078125 96.77734375 C-14.71078125 96.77734375 -15.37078125 96.77734375 -16.05078125 96.77734375 C-16.05078125 103.70734375 -16.05078125 110.63734375 -16.05078125 117.77734375 C-21.66078125 117.77734375 -27.27078125 117.77734375 -33.05078125 117.77734375 C-33.05078125 123.71734375 -33.05078125 129.65734375 -33.05078125 135.77734375 C-34.04078125 135.77734375 -35.03078125 135.77734375 -36.05078125 135.77734375 C-36.05078125 129.83734375 -36.05078125 123.89734375 -36.05078125 117.77734375 C-41.99078125 117.77734375 -47.93078125 117.77734375 -54.05078125 117.77734375 C-54.05078125 111.17734375 -54.05078125 104.57734375 -54.05078125 97.77734375 C-57.02078125 96.78734375 -57.02078125 96.78734375 -60.05078125 95.77734375 C-75.02960923 88.38778861 -84.33669604 77.63396529 -90.32421875 62.06640625 C-91.61833795 57.989235 -92.17706491 54.23834889 -92.11328125 49.96484375 C-92.10425781 49.17464844 -92.09523438 48.38445312 -92.0859375 47.5703125 C-92.06853516 46.68279297 -92.06853516 46.68279297 -92.05078125 45.77734375 C-92.71078125 45.77734375 -93.37078125 45.77734375 -94.05078125 45.77734375 C-94.05078125 44.45734375 -94.05078125 43.13734375 -94.05078125 41.77734375 C-93.39078125 41.77734375 -92.73078125 41.77734375 -92.05078125 41.77734375 C-92.13328125 40.72546875 -92.21578125 39.67359375 -92.30078125 38.58984375 C-92.25220178 24.86614476 -84.60921096 12.77499092 -75.5234375 3.09765625 C-54.22377009 -16.88970937 -23.00732235 -16.76205688 0 0 Z " transform="translate(850.05 20.223)" class="color485C5F svgShape"></path><path fill="#f31414" d="M0 0 C0.99 0 1.98 0 3 0 C3 9.24 3 18.48 3 28 C8.94 28 14.88 28 21 28 C21 70.24 21 112.48 21 156 C15.06 156 9.12 156 3 156 C3 161.94 3 167.88 3 174 C2.01 174 1.02 174 0 174 C0 168.06 0 162.12 0 156 C-6.27 156 -12.54 156 -19 156 C-19 113.76 -19 71.52 -19 28 C-12.73 28 -6.46 28 0 28 C0 18.76 0 9.52 0 0 Z " transform="translate(244 175)" class="color14F370 svgShape"></path><path fill="#ff527a" d="M0 0 C13.2 0 26.4 0 40 0 C40 31.68 40 63.36 40 96 C34.06 96 28.12 96 22 96 C22.185625 97.423125 22.37125 98.84625 22.5625 100.3125 C22.97482862 103.47368607 23.03159626 104.90521121 22 108 C21.01 108 20.02 108 19 108 C19 104.04 19 100.08 19 96 C12.73 96 6.46 96 0 96 C0 64.32 0 32.64 0 0 Z " transform="translate(536 124)" class="colorFF527A svgShape"></path><path fill="#90374d" d="M0 0 C12.54 0 25.08 0 38 0 C38 3.96 38 7.92 38 12 C39.98 12 41.96 12 44 12 C44 13.32 44 14.64 44 16 C42.02 16 40.04 16 38 16 C38 39.76 38 63.52 38 88 C32.39 88 26.78 88 21 88 C21 93.94 21 99.88 21 106 C20.01 106 19.02 106 18 106 C18 100.06 18 94.12 18 88 C12.06 88 6.12 88 0 88 C-0.06058594 85.58042969 -0.12117187 83.16085938 -0.18359375 80.66796875 C-0.24540118 78.32475718 -0.30878139 75.98159307 -0.37231445 73.63842773 C-0.41562749 72.00988996 -0.45730518 70.38130784 -0.49731445 68.75268555 C-0.55510503 66.41181065 -0.61877398 64.07115824 -0.68359375 61.73046875 C-0.70030624 61.00224411 -0.71701874 60.27401947 -0.73423767 59.52372742 C-0.82467238 56.43833061 -1.01723993 53.94828022 -2 51 C-1.67 50.34 -1.34 49.68 -1 49 C-0.88159887 47.42793357 -0.82296967 45.85116731 -0.79467773 44.27490234 C-0.77473251 43.29403656 -0.75478729 42.31317078 -0.73423767 41.30258179 C-0.71752518 40.24108917 -0.70081268 39.17959656 -0.68359375 38.0859375 C-0.66281265 37.00116119 -0.64203156 35.91638489 -0.62062073 34.79873657 C-0.55509366 31.32422379 -0.49622553 27.84963376 -0.4375 24.375 C-0.39431779 22.02342942 -0.3507036 19.67186674 -0.30664062 17.3203125 C-0.198594 11.54695311 -0.09954375 5.77353739 0 0 Z " transform="translate(796 50)" class="color379064 svgShape"></path><path fill="#f3143a" d="M0 0 C0.99 0 1.98 0 3 0 C3 7.92 3 15.84 3 24 C8.94 24 14.88 24 21 24 C21 46.44 21 68.88 21 92 C15.06 92 9.12 92 3 92 C3 96.62 3 101.24 3 106 C2.01 106 1.02 106 0 106 C0 101.38 0 96.76 0 92 C-6.27 92 -12.54 92 -19 92 C-19 69.56 -19 47.12 -19 24 C-12.73 24 -6.46 24 0 24 C0 16.08 0 8.16 0 0 Z " transform="translate(399 128)" class="color14F36F svgShape"></path><path fill="#f31540" d="M0 0 C0.99 0 1.98 0 3 0 C3 6.27 3 12.54 3 19 C8.61 19 14.22 19 20 19 C20 42.76 20 66.52 20 91 C7.625 92.125 7.625 92.125 3 91 C3 93.31 3 95.62 3 98 C2.01 98 1.02 98 0 98 C0 95.69 0 93.38 0 91 C-1.299375 91.185625 -2.59875 91.37125 -3.9375 91.5625 C-9.00282199 92.28611743 -12.50111566 91.61098715 -18 91 C-18 67.24 -18 43.48 -18 19 C-12.06 19 -6.12 19 0 19 C0 12.73 0 6.46 0 0 Z " transform="translate(710 137)" class="color15F370 svgShape"></path><path fill="#f31414" d="M0 0 C0.99 0 1.98 0 3 0 C3 3.3 3 6.6 3 10 C8.94 10 14.88 10 21 10 C21 27.49 21 44.98 21 63 C15.06 63 9.12 63 3 63 C3.01160156 64.62550781 3.02320313 66.25101562 3.03515625 67.92578125 C3.04453469 70.05468635 3.05363483 72.1835927 3.0625 74.3125 C3.07087891 75.38435547 3.07925781 76.45621094 3.08789062 77.56054688 C3.09272461 79.10258789 3.09272461 79.10258789 3.09765625 80.67578125 C3.10551147 82.0975769 3.10551147 82.0975769 3.11352539 83.5480957 C3 86 3 86 2 89 C1.34 89 0.68 89 0 89 C0 80.42 0 71.84 0 63 C-6.27 63 -12.54 63 -19 63 C-19 45.51 -19 28.02 -19 10 C-12.73 10 -6.46 10 0 10 C0 6.7 0 3.4 0 0 Z " transform="translate(503 114)" class="color14F370 svgShape"></path><path fill="#ff517a" d="M0 0 C0.99 0 1.98 0 3 0 C3 3.96 3 7.92 3 12 C8.94 12 14.88 12 21 12 C21 25.53 21 39.06 21 53 C8.13 53 -4.74 53 -18 53 C-18 39.47 -18 25.94 -18 12 C-12.06 12 -6.12 12 0 12 C0 8.04 0 4.08 0 0 Z " transform="translate(36 290)" class="colorFF517A svgShape"></path><path fill="#ff517a" d="M0 0 C0.99 0 1.98 0 3 0 C3 10.89 3 21.78 3 33 C8.94 33 14.88 33 21 33 C21 43.89 21 54.78 21 66 C15.06 66 9.12 66 3 66 C3 69.96 3 73.92 3 78 C2.01 78 1.02 78 0 78 C0 74.04 0 70.08 0 66 C-6.27 66 -12.54 66 -19 66 C-19 55.11 -19 44.22 -19 33 C-12.73 33 -6.46 33 0 33 C0 22.11 0 11.22 0 0 Z " transform="translate(192 265)" class="colorFF517A svgShape"></path><path fill="#ff517a" d="M0 0 C0.99 0 1.98 0 3 0 C3 6.6 3 13.2 3 20 C8.94 20 14.88 20 21 20 C21 30.89 21 41.78 21 53 C15.06 53 9.12 53 3 53 C3 63.89 3 74.78 3 86 C2.01 86 1.02 86 0 86 C0 75.11 0 64.22 0 53 C-5.94 53 -11.88 53 -18 53 C-18 42.11 -18 31.22 -18 20 C-12.06 20 -6.12 20 0 20 C0 13.4 0 6.8 0 0 Z " transform="translate(347 167)" class="colorFF517A svgShape"></path><path fill="#f31540" d="M0 0 C0.99 0 1.98 0 3 0 C3 9.57 3 19.14 3 29 C8.94 29 14.88 29 21 29 C21 39.23 21 49.46 21 60 C15.06 60 9.12 60 3 60 C3 62.97 3 65.94 3 69 C2.01 69 1.02 69 0 69 C0 66.03 0 63.06 0 60 C-6.27 60 -12.54 60 -19 60 C-19 49.77 -19 39.54 -19 29 C-12.73 29 -6.46 29 0 29 C0 19.43 0 9.86 0 0 Z " transform="translate(88 283)" class="color15F370 svgShape"></path><path fill="#ff517a" d="M0 0 C0.99 0 1.98 0 3 0 C3 3.96 3 7.92 3 12 C8.94 12 14.88 12 21 12 C21 19.59 21 27.18 21 35 C15.06 35 9.12 35 3 35 C3 42.92 3 50.84 3 59 C2.01 59 1.02 59 0 59 C0 51.08 0 43.16 0 35 C-6.27 35 -12.54 35 -19 35 C-19 27.41 -19 19.82 -19 12 C-12.73 12 -6.46 12 0 12 C0 8.04 0 4.08 0 0 Z " transform="translate(451 141)" class="colorFF517A svgShape"></path><path fill="#f3143a" d="M0 0 C0.99 0 1.98 0 3 0 C3 2.31 3 4.62 3 7 C8.94 7 14.88 7 21 7 C21 12.94 21 18.88 21 25 C15.06 25 9.12 25 3 25 C3 32.92 3 40.84 3 49 C2.01 49 1.02 49 0 49 C0 41.08 0 33.16 0 25 C-6.27 25 -12.54 25 -19 25 C-19 19.06 -19 13.12 -19 7 C-12.73 7 -6.46 7 0 7 C0 4.69 0 2.38 0 0 Z " transform="translate(762 131)" class="color14F36F svgShape"></path><path fill="#f21426" d="M0 0 C0 6.93 0 13.86 0 21 C-5.61 21 -11.22 21 -17 21 C-17 26.94 -17 32.88 -17 39 C-17.99 39 -18.98 39 -20 39 C-20 33.06 -20 27.12 -20 21 C-25.94 21 -31.88 21 -38 21 C-38 14.4 -38 7.8 -38 1 C-36.453125 1.33 -34.90625 1.66 -33.3125 2 C-23.2310496 3.79656616 -14.21333344 3.47427818 -4.36328125 0.65625 C-2 0 -2 0 0 0 Z " transform="translate(834 117)" class="color14F26F svgShape"></path><path fill="#f3143a" d="M0 0 C0.99 0 1.98 0 3 0 C3 6.27 3 12.54 3 19 C8.61 19 14.22 19 20 19 C20 24.28 20 29.56 20 35 C14.39 35 8.78 35 3 35 C3 41.27 3 47.54 3 54 C2.01 54 1.02 54 0 54 C0 47.73 0 41.46 0 35 C-5.94 35 -11.88 35 -18 35 C-18 29.72 -18 24.44 -18 19 C-12.06 19 -6.12 19 0 19 C0 12.73 0 6.46 0 0 Z " transform="translate(140 279)" class="color14F36F svgShape"></path><path fill="#f31414" d="M0 0 C0.66 0 1.32 0 2 0 C2 3.96 2 7.92 2 12 C8.27 12 14.54 12 21 12 C21 17.28 21 22.56 21 28 C14.73 28 8.46 28 2 28 C2 30.97 2 33.94 2 37 C1.01 37 0.02 37 -1 37 C-1 34.03 -1 31.06 -1 28 C-6.94 28 -12.88 28 -19 28 C-19 22.72 -19 17.44 -19 12 C-13.06 12 -7.12 12 -1 12 C-1.020625 10.205625 -1.04125 8.41125 -1.0625 6.5625 C-1.0838122 4.70833878 -1.07226502 2.85287502 -1 1 C-0.67 0.67 -0.34 0.34 0 0 Z " transform="translate(296 175)" class="color14F370 svgShape"></path><path fill="#ff537b" d="M0 0 C0.66 0 1.32 0 2 0 C2 3.96 2 7.92 2 12 C8.6 12 15.2 12 22 12 C22 16.62 22 21.24 22 26 C15.73 26 9.46 26 3 26 C3 33.92 3 41.84 3 50 C2.34 50 1.68 50 1 50 C1 42.08 1 34.16 1 26 C-5.27 26 -11.54 26 -18 26 C-18 21.38 -18 16.76 -18 12 C-12.06 12 -6.12 12 0 12 C0 8.04 0 4.08 0 0 Z " transform="translate(606 206)" class="colorFF537B svgShape"></path><path fill="#ff537b" d="M0 0 C0.66 0 1.32 0 2 0 C2 7.26 2 14.52 2 22 C8.27 22 14.54 22 21 22 C21 25.63 21 29.26 21 33 C15.06 33 9.12 33 3 33 C3 34.98 3 36.96 3 39 C2.01 39 1.02 39 0 39 C0 37.02 0 35.04 0 33 C-5.94 33 -11.88 33 -18 33 C-18 29.37 -18 25.74 -18 22 C-12.06 22 -6.12 22 0 22 C0 14.74 0 7.48 0 0 Z " transform="translate(658 196)" class="colorFF537B svgShape"></path><path fill="#f2ff00" d="M0 0 C6.6 0 13.2 0 20 0 C20 6.6 20 13.2 20 20 C13.4 20 6.8 20 0 20 C0 13.4 0 6.8 0 0 Z " transform="translate(804 54)" class="colorF2FF00 svgShape"></path><path fill="#a82e36" d="M0 0 C12.54 0 25.08 0 38 0 C38 3.96 38 7.92 38 12 C39.98 12 41.96 12 44 12 C44 13.32 44 14.64 44 16 C42.02 16 40.04 16 38 16 C38 28.21 38 40.42 38 53 C34 55 34 55 30 55 C29.505 52.525 29.505 52.525 29 50 C32 48 32 48 36 48 C36 37.44 36 26.88 36 16 C34.68 16 33.36 16 32 16 C32 14.68 32 13.36 32 12 C33.32 12 34.64 12 36 12 C36 8.7 36 5.4 36 2 C24.78 2 13.56 2 2 2 C2.33 17.18 2.66 32.36 3 48 C4.32 48.66 5.64 49.32 7 50 C6.67 51.98 6.34 53.96 6 56 C2.5625 55.1875 2.5625 55.1875 -1 54 C-1.495 52.515 -1.495 52.515 -2 51 C-1.67 50.34 -1.34 49.68 -1 49 C-0.88159887 47.42793357 -0.82296967 45.85116731 -0.79467773 44.27490234 C-0.77473251 43.29403656 -0.75478729 42.31317078 -0.73423767 41.30258179 C-0.71752518 40.24108917 -0.70081268 39.17959656 -0.68359375 38.0859375 C-0.66281265 37.00116119 -0.64203156 35.91638489 -0.62062073 34.79873657 C-0.55509366 31.32422379 -0.49622553 27.84963376 -0.4375 24.375 C-0.39431779 22.02342942 -0.3507036 19.67186674 -0.30664062 17.3203125 C-0.198594 11.54695311 -0.09954375 5.77353739 0 0 Z " transform="translate(796 50)" class="color2EA866 svgShape"></path><path fill="#a82e36" d="M0 0 C3.96 0 7.92 0 12 0 C12 1.32 12 2.64 12 4 C10.02 4 8.04 4 6 4 C6 16.21 6 28.42 6 41 C2 43 2 43 -2 43 C-2.33 41.35 -2.66 39.7 -3 38 C0 36 0 36 4 36 C4 25.44 4 14.88 4 4 C2.68 4 1.36 4 0 4 C0 2.68 0 1.36 0 0 Z " transform="translate(828 62)" class="color2EA866 svgShape"></path><path fill="#f42548" d="M0 0 C0.99 0 1.98 0 3 0 C3 9.9 3 19.8 3 30 C2.34 30 1.68 30 1 30 C-0.40912096 27.18175808 -0.11183553 24.82748718 -0.09765625 21.6796875 C-0.09443359 20.42285156 -0.09121094 19.16601562 -0.08789062 17.87109375 C-0.07951172 16.55238281 -0.07113281 15.23367188 -0.0625 13.875 C-0.05748489 12.53515789 -0.05292201 11.195314 -0.04882812 9.85546875 C-0.03701086 6.57026794 -0.02053617 3.28515603 0 0 Z " transform="translate(88 283)" class="color25F47A svgShape"></path><path fill="#a7b41b" d="M0 0 C4.29 0.33 8.58 0.66 13 1 C13 2.32 13 3.64 13 5 C10.69 5 8.38 5 6 5 C6 5.99 6 6.98 6 8 C4.02 8 2.04 8 0 8 C0 5.36 0 2.72 0 0 Z " transform="translate(851 61)" class="colorA7B41B svgShape"></path><path fill="#f53541" d="M0 0 C0.66 0 1.32 0 2 0 C3.57152719 3.14305438 3.14318589 6.491274 3.125 9.9375 C3.12886719 10.66646484 3.13273437 11.39542969 3.13671875 12.14648438 C3.1308304 15.35857736 3.02261853 17.9321444 2 21 C1.34 21 0.68 21 0 21 C0 14.07 0 7.14 0 0 Z " transform="translate(503 182)" class="color35F583 svgShape"></path><path fill="#a1ae24" d="M0 0 C2.5 1.25 2.5 1.25 5 3 C5 4.32 5 5.64 5 7 C3.02 7.99 1.04 8.98 -1 10 C-2.5625 8.75 -2.5625 8.75 -4 7 C-3.83394098 4.34305562 -3.21086001 3.23616321 -1.4375 1.25 C-0.963125 0.8375 -0.48875 0.425 0 0 Z " transform="translate(842 88)" class="colorA1AE24 svgShape"></path><path fill="#a1af1e" d="M0 0 C1.66611905 -0.042721 3.33382885 -0.04063832 5 0 C6 1 6 1 6.09765625 2.84765625 C6.06510417 4.8984375 6.03255208 6.94921875 6 9 C4.02 9 2.04 9 0 9 C0 6.03 0 3.06 0 0 Z " transform="translate(771 60)" class="colorA1AF1E svgShape"></path><path fill="#a1af1e" d="M0 0 C1.98 1.65 3.96 3.3 6 5 C5.34 6.32 4.68 7.64 4 9 C0 9 0 9 -1.8125 7.75 C-3 6 -3 6 -2.8125 3.9375 C-2 2 -2 2 0 0 Z " transform="translate(841 31)" class="colorA1AF1E svgShape"></path><path fill="#a2af1d" d="M0 0 C1.65 1.32 3.3 2.64 5 4 C4.6875 5.875 4.6875 5.875 4 8 C3.01 8.66 2.02 9.32 1 10 C-0.65 8.35 -2.3 6.7 -4 5 C-2.25 1.125 -2.25 1.125 0 0 Z " transform="translate(785 88)" class="colorA2AF1D svgShape"></path><path fill="#a1af1e" d="M0 0 C1.98 0.66 3.96 1.32 6 2 C5.50168276 5.68754757 4.89932357 7.60490662 2 10 C0.68 9.34 -0.64 8.68 -2 8 C-1.125 2.25 -1.125 2.25 0 0 Z " transform="translate(849 75)" class="colorA1AF1E svgShape"></path><path fill="#d9e31a" d="M0 0 C4.29 0 8.58 0 13 0 C13 1.32 13 2.64 13 4 C8.71 4 4.42 4 0 4 C0 2.68 0 1.36 0 0 Z " transform="translate(732 62)" class="colorD9E31A svgShape"></path><path fill="#d9e31a" d="M0 0 C4.29 0 8.58 0 13 0 C13 1.32 13 2.64 13 4 C8.71 4 4.42 4 0 4 C0 2.68 0 1.36 0 0 Z " transform="translate(708 62)" class="colorD9E31A svgShape"></path><path fill="#d9e31a" d="M0 0 C4.29 0 8.58 0 13 0 C13 1.32 13 2.64 13 4 C8.71 4 4.42 4 0 4 C0 2.68 0 1.36 0 0 Z " transform="translate(684 62)" class="colorD9E31A svgShape"></path><path fill="#d9e31a" d="M0 0 C4.29 0 8.58 0 13 0 C13 1.32 13 2.64 13 4 C8.71 4 4.42 4 0 4 C0 2.68 0 1.36 0 0 Z " transform="translate(660 62)" class="colorD9E31A svgShape"></path><path fill="#d9e31a" d="M0 0 C4.29 0 8.58 0 13 0 C13 1.32 13 2.64 13 4 C8.71 4 4.42 4 0 4 C0 2.68 0 1.36 0 0 Z " transform="translate(636 62)" class="colorD9E31A svgShape"></path><path fill="#d9e41a" d="M0 0 C4.29 0 8.58 0 13 0 C13 1.32 13 2.64 13 4 C8.71 4 4.42 4 0 4 C0 2.68 0 1.36 0 0 Z " transform="translate(612 62)" class="colorD9E41A svgShape"></path><path fill="#d9e41a" d="M0 0 C4.29 0 8.58 0 13 0 C13 1.32 13 2.64 13 4 C8.71 4 4.42 4 0 4 C0 2.68 0 1.36 0 0 Z " transform="translate(588 62)" class="colorD9E41A svgShape"></path><path fill="#d9e31a" d="M0 0 C4.29 0 8.58 0 13 0 C13 1.32 13 2.64 13 4 C8.71 4 4.42 4 0 4 C0 2.68 0 1.36 0 0 Z " transform="translate(564 62)" class="colorD9E31A svgShape"></path><path fill="#d9e31a" d="M0 0 C4.29 0 8.58 0 13 0 C13 1.32 13 2.64 13 4 C8.71 4 4.42 4 0 4 C0 2.68 0 1.36 0 0 Z " transform="translate(540 62)" class="colorD9E31A svgShape"></path><path fill="#d8e419" d="M0 0 C4.29 0 8.58 0 13 0 C13 1.32 13 2.64 13 4 C8.71 4 4.42 4 0 4 C0 2.68 0 1.36 0 0 Z " transform="translate(516 62)" class="colorD8E419 svgShape"></path><path fill="#d8e419" d="M0 0 C4.29 0 8.58 0 13 0 C13 1.32 13 2.64 13 4 C8.71 4 4.42 4 0 4 C0 2.68 0 1.36 0 0 Z " transform="translate(492 62)" class="colorD8E419 svgShape"></path><path fill="#d8e419" d="M0 0 C4.29 0 8.58 0 13 0 C13 1.32 13 2.64 13 4 C8.71 4 4.42 4 0 4 C0 2.68 0 1.36 0 0 Z " transform="translate(397 62)" class="colorD8E419 svgShape"></path><path fill="#d8e419" d="M0 0 C4.29 0 8.58 0 13 0 C13 1.32 13 2.64 13 4 C8.71 4 4.42 4 0 4 C0 2.68 0 1.36 0 0 Z " transform="translate(373 62)" class="colorD8E419 svgShape"></path><path fill="#d8e31a" d="M0 0 C4.29 0 8.58 0 13 0 C13 1.32 13 2.64 13 4 C8.71 4 4.42 4 0 4 C0 2.68 0 1.36 0 0 Z " transform="translate(349 62)" class="colorD8E31A svgShape"></path><path fill="#d8e31a" d="M0 0 C4.29 0 8.58 0 13 0 C13 1.32 13 2.64 13 4 C8.71 4 4.42 4 0 4 C0 2.68 0 1.36 0 0 Z " transform="translate(325 62)" class="colorD8E31A svgShape"></path><path fill="#d9e31a" d="M0 0 C4.29 0 8.58 0 13 0 C13 1.32 13 2.64 13 4 C8.71 4 4.42 4 0 4 C0 2.68 0 1.36 0 0 Z " transform="translate(301 62)" class="colorD9E31A svgShape"></path><path fill="#d9e31a" d="M0 0 C4.29 0 8.58 0 13 0 C13 1.32 13 2.64 13 4 C8.71 4 4.42 4 0 4 C0 2.68 0 1.36 0 0 Z " transform="translate(277 62)" class="colorD9E31A svgShape"></path><path fill="#d9e31a" d="M0 0 C4.29 0 8.58 0 13 0 C13 1.32 13 2.64 13 4 C8.71 4 4.42 4 0 4 C0 2.68 0 1.36 0 0 Z " transform="translate(253 62)" class="colorD9E31A svgShape"></path><path fill="#d9e31a" d="M0 0 C4.29 0 8.58 0 13 0 C13 1.32 13 2.64 13 4 C8.71 4 4.42 4 0 4 C0 2.68 0 1.36 0 0 Z " transform="translate(229 62)" class="colorD9E31A svgShape"></path><path fill="#d9e31a" d="M0 0 C4.29 0 8.58 0 13 0 C13 1.32 13 2.64 13 4 C8.71 4 4.42 4 0 4 C0 2.68 0 1.36 0 0 Z " transform="translate(205 62)" class="colorD9E31A svgShape"></path><path fill="#d9e41a" d="M0 0 C4.29 0 8.58 0 13 0 C13 1.32 13 2.64 13 4 C8.71 4 4.42 4 0 4 C0 2.68 0 1.36 0 0 Z " transform="translate(181 62)" class="colorD9E41A svgShape"></path><path fill="#d9e41a" d="M0 0 C4.29 0 8.58 0 13 0 C13 1.32 13 2.64 13 4 C8.71 4 4.42 4 0 4 C0 2.68 0 1.36 0 0 Z " transform="translate(157 62)" class="colorD9E41A svgShape"></path><path fill="#d9e31a" d="M0 0 C4.29 0 8.58 0 13 0 C13 1.32 13 2.64 13 4 C8.71 4 4.42 4 0 4 C0 2.68 0 1.36 0 0 Z " transform="translate(133 62)" class="colorD9E31A svgShape"></path><path fill="#d9e31a" d="M0 0 C4.29 0 8.58 0 13 0 C13 1.32 13 2.64 13 4 C8.71 4 4.42 4 0 4 C0 2.68 0 1.36 0 0 Z " transform="translate(109 62)" class="colorD9E31A svgShape"></path><path fill="#d8e419" d="M0 0 C4.29 0 8.58 0 13 0 C13 1.32 13 2.64 13 4 C8.71 4 4.42 4 0 4 C0 2.68 0 1.36 0 0 Z " transform="translate(85 62)" class="colorD8E419 svgShape"></path><path fill="#d8e419" d="M0 0 C4.29 0 8.58 0 13 0 C13 1.32 13 2.64 13 4 C8.71 4 4.42 4 0 4 C0 2.68 0 1.36 0 0 Z " transform="translate(61 62)" class="colorD8E419 svgShape"></path><path fill="#a1af1e" d="M0 0 C2.89932357 2.39509338 3.50168276 4.31245243 4 8 C1 10 1 10 -2 10 C-2.66 7.69 -3.32 5.38 -4 3 C-2.68 2.01 -1.36 1.02 0 0 Z " transform="translate(851 44)" class="colorA1AF1E svgShape"></path><path fill="#a2af1d" d="M0 0 C0.598125 0.226875 1.19625 0.45375 1.8125 0.6875 C2.5625 2.4375 2.5625 2.4375 2.8125 4.6875 C0.875 6.9375 0.875 6.9375 -1.1875 8.6875 C-2.5075 8.0275 -3.8275 7.3675 -5.1875 6.6875 C-5.1875 2.6875 -5.1875 2.6875 -3.9375 0.875 C-2.1875 -0.3125 -2.1875 -0.3125 0 0 Z " transform="translate(787.188 32.313)" class="colorA2AF1D svgShape"></path><path fill="#a2af1d" d="M0 0 C1.25664978 2.90600261 2 4.79604584 2 8 C0.35 8.66 -1.3 9.32 -3 10 C-4.5625 7.1875 -4.5625 7.1875 -6 4 C-5.67 3.01 -5.34 2.02 -5 1 C-2 0 -2 0 0 0 Z " transform="translate(779 75)" class="colorA2AF1D svgShape"></path><path fill="#a2af1d" d="M0 0 C2.475 0.99 2.475 0.99 5 2 C4.47731534 4.76276177 3.89130413 7.3260876 3 10 C1.02 9.34 -0.96 8.68 -3 8 C-1.125 1.125 -1.125 1.125 0 0 Z " transform="translate(776 44)" class="colorA2AF1D svgShape"></path><path fill="#a2af1d" d="M0 0 C5.75 0.875 5.75 0.875 8 2 C7.49396008 4.16874252 7.00016187 5.99967627 6 8 C3.69 7.34 1.38 6.68 -1 6 C-0.67 4.02 -0.34 2.04 0 0 Z " transform="translate(826 24)" class="colorA2AF1D svgShape"></path><path fill="#a3b11c" d="M0 0 C0.33 1.98 0.66 3.96 1 6 C-1.31 6.66 -3.62 7.32 -6 8 C-6.66 6.02 -7.32 4.04 -8 2 C-4.91190305 0.23537317 -3.76687864 0 0 0 Z " transform="translate(802 24)" class="colorA3B11C svgShape"></path><path fill="#96b724" d="M0 0 C2.64 0 5.28 0 8 0 C8 1.98 8 3.96 8 6 C5.36 6 2.72 6 0 6 C0 4.02 0 2.04 0 0 Z " transform="translate(810 102)" class="color96B724 svgShape"></path><path fill="#98b723" d="M0 0 C2.97 0.495 2.97 0.495 6 1 C7.04449911 4.13349732 6.93423645 4.98968256 6 8 C2.5625 7.1875 2.5625 7.1875 -1 6 C-1.33 5.01 -1.66 4.02 -2 3 C-1.34 2.01 -0.68 1.02 0 0 Z " transform="translate(796 98)" class="color98B723 svgShape"></path><path fill="#8f9f3d" d="M0 0 C3.96 0 7.92 0 12 0 C12 1.32 12 2.64 12 4 C8.04 4 4.08 4 0 4 C0 2.68 0 1.36 0 0 Z " transform="translate(828 62)" class="color8F9F3D svgShape"></path><path fill="#8f9f3d" d="M0 0 C3.96 0 7.92 0 12 0 C12 1.32 12 2.64 12 4 C8.04 4 4.08 4 0 4 C0 2.68 0 1.36 0 0 Z " transform="translate(780 62)" class="color8F9F3D svgShape"></path><path fill="#9cab37" d="M0 0 C3.96 0 7.92 0 12 0 C12 1.32 12 2.64 12 4 C8.04 4 4.08 4 0 4 C0 2.68 0 1.36 0 0 Z " transform="translate(756 62)" class="color9CAB37 svgShape"></path><path fill="#d9e41a" d="M0 0 C3.96 0 7.92 0 12 0 C12 1.32 12 2.64 12 4 C8.04 4 4.08 4 0 4 C0 2.68 0 1.36 0 0 Z " transform="translate(469 62)" class="colorD9E41A svgShape"></path><path fill="#d9e41a" d="M0 0 C3.96 0 7.92 0 12 0 C12 1.32 12 2.64 12 4 C8.04 4 4.08 4 0 4 C0 2.68 0 1.36 0 0 Z " transform="translate(445 62)" class="colorD9E41A svgShape"></path><path fill="#d9e41a" d="M0 0 C3.96 0 7.92 0 12 0 C12 1.32 12 2.64 12 4 C8.04 4 4.08 4 0 4 C0 2.68 0 1.36 0 0 Z " transform="translate(421 62)" class="colorD9E41A svgShape"></path><path fill="#d9e41a" d="M0 0 C3.96 0 7.92 0 12 0 C12 1.32 12 2.64 12 4 C8.04 4 4.08 4 0 4 C0 2.68 0 1.36 0 0 Z " transform="translate(38 62)" class="colorD9E41A svgShape"></path><path fill="#a4b11c" d="M0 0 C2.64 0 5.28 0 8 0 C8 1.98 8 3.96 8 6 C5.36 6 2.72 6 0 6 C0 4.02 0 2.04 0 0 Z " transform="translate(810 22)" class="colorA4B11C svgShape"></path><path fill="#99b922" d="M0 0 C0.763125 0.20625 1.52625 0.4125 2.3125 0.625 C2.6425 1.945 2.9725 3.265 3.3125 4.625 C0.22440305 6.38962683 -0.92062136 6.625 -4.6875 6.625 C-5.0175 4.975 -5.3475 3.325 -5.6875 1.625 C-2.6875 -0.375 -2.6875 -0.375 0 0 Z " transform="translate(830.688 98.375)" class="color99B922 svgShape"></path><path fill="#90a03d" d="M0 0 C2.31 0 4.62 0 7 0 C7 1.32 7 2.64 7 4 C4.69 4 2.38 4 0 4 C0 2.68 0 1.36 0 0 Z " transform="translate(857 62)" class="color90A03D svgShape"></path><path fill="#f3143a" d="M0 0 C0.99 0 1.98 0 3 0 C3 2.97 3 5.94 3 9 C2.01 9 1.02 9 0 9 C0 6.03 0 3.06 0 0 Z " transform="translate(88 283)" class="color14F36F svgShape"></path><path fill="#d9e41a" d="M0 0 C1.98 0 3.96 0 6 0 C6 1.32 6 2.64 6 4 C4.02 4 2.04 4 0 4 C0 2.68 0 1.36 0 0 Z " transform="translate(876 62)" class="colorD9E41A svgShape"></path><path fill="#d9e41a" d="M0 0 C1.98 0 3.96 0 6 0 C6 1.32 6 2.64 6 4 C4.02 4 2.04 4 0 4 C0 2.68 0 1.36 0 0 Z " transform="translate(20 62)" class="colorD9E41A svgShape"></path><path fill="#ffffff" d="M0 0 C0.66 0 1.32 0 2 0 C2 1.65 2 3.3 2 5 C1.34 5 0.68 5 0 5 C0 3.35 0 1.7 0 0 Z " transform="translate(503 90)" class="colorFFF svgShape"></path><path fill="#ffffff" d="M0 0 C0.66 0 1.32 0 2 0 C2 1.65 2 3.3 2 5 C1.34 5 0.68 5 0 5 C0 3.35 0 1.7 0 0 Z " transform="translate(89 90)" class="colorFFF svgShape"></path><path fill="#ffffff" d="M0 0 C0.66 0 1.32 0 2 0 C2 0.99 2 1.98 2 3 C1.34 3 0.68 3 0 3 C0 2.01 0 1.02 0 0 Z " transform="translate(711 420)" class="colorFFF svgShape"></path><path fill="#ffffff" d="M0 0 C0.66 0 1.32 0 2 0 C2 0.99 2 1.98 2 3 C1.34 3 0.68 3 0 3 C0 2.01 0 1.02 0 0 Z " transform="translate(503 420)" class="colorFFF svgShape"></path><path fill="#ffffff" d="M0 0 C0.66 0 1.32 0 2 0 C2 0.99 2 1.98 2 3 C1.34 3 0.68 3 0 3 C0 2.01 0 1.02 0 0 Z " transform="translate(299 420)" class="colorFFF svgShape"></path><path fill="#ffffff" d="M0 0 C0.66 0 1.32 0 2 0 C2 0.99 2 1.98 2 3 C1.34 3 0.68 3 0 3 C0 2.01 0 1.02 0 0 Z " transform="translate(89 420)" class="colorFFF svgShape"></path><path fill="#ffffff" d="M0 0 C0.66 0 1.32 0 2 0 C2 0.99 2 1.98 2 3 C1.34 3 0.68 3 0 3 C0 2.01 0 1.02 0 0 Z " transform="translate(711 402)" class="colorFFF svgShape"></path><path fill="#ffffff" d="M0 0 C0.66 0 1.32 0 2 0 C2 0.99 2 1.98 2 3 C1.34 3 0.68 3 0 3 C0 2.01 0 1.02 0 0 Z " transform="translate(503 402)" class="colorFFF svgShape"></path><path fill="#ffffff" d="M0 0 C0.66 0 1.32 0 2 0 C2 0.99 2 1.98 2 3 C1.34 3 0.68 3 0 3 C0 2.01 0 1.02 0 0 Z " transform="translate(299 402)" class="colorFFF svgShape"></path><path fill="#ffffff" d="M0 0 C0.66 0 1.32 0 2 0 C2 0.99 2 1.98 2 3 C1.34 3 0.68 3 0 3 C0 2.01 0 1.02 0 0 Z " transform="translate(89 402)" class="colorFFF svgShape"></path><path fill="#ffffff" d="M0 0 C0.66 0 1.32 0 2 0 C2 0.99 2 1.98 2 3 C1.34 3 0.68 3 0 3 C0 2.01 0 1.02 0 0 Z " transform="translate(711 365)" class="colorFFF svgShape"></path><path fill="#ffffff" d="M0 0 C0.66 0 1.32 0 2 0 C2 0.99 2 1.98 2 3 C1.34 3 0.68 3 0 3 C0 2.01 0 1.02 0 0 Z " transform="translate(503 365)" class="colorFFF svgShape"></path><path fill="#ffffff" d="M0 0 C0.66 0 1.32 0 2 0 C2 0.99 2 1.98 2 3 C1.34 3 0.68 3 0 3 C0 2.01 0 1.02 0 0 Z " transform="translate(299 365)" class="colorFFF svgShape"></path><path fill="#ffffff" d="M0 0 C0.66 0 1.32 0 2 0 C2 0.99 2 1.98 2 3 C1.34 3 0.68 3 0 3 C0 2.01 0 1.02 0 0 Z " transform="translate(89 365)" class="colorFFF svgShape"></path><path fill="#ffffff" d="M0 0 C0.66 0 1.32 0 2 0 C2 0.99 2 1.98 2 3 C1.34 3 0.68 3 0 3 C0 2.01 0 1.02 0 0 Z " transform="translate(711 347)" class="colorFFF svgShape"></path><path fill="#ffffff" d="M0 0 C0.66 0 1.32 0 2 0 C2 0.99 2 1.98 2 3 C1.34 3 0.68 3 0 3 C0 2.01 0 1.02 0 0 Z " transform="translate(503 347)" class="colorFFF svgShape"></path><path fill="#ffffff" d="M0 0 C0.66 0 1.32 0 2 0 C2 0.99 2 1.98 2 3 C1.34 3 0.68 3 0 3 C0 2.01 0 1.02 0 0 Z " transform="translate(299 347)" class="colorFFF svgShape"></path><path fill="#ffffff" d="M0 0 C0.66 0 1.32 0 2 0 C2 0.99 2 1.98 2 3 C1.34 3 0.68 3 0 3 C0 2.01 0 1.02 0 0 Z " transform="translate(711 310)" class="colorFFF svgShape"></path><path fill="#ffffff" d="M0 0 C0.66 0 1.32 0 2 0 C2 0.99 2 1.98 2 3 C1.34 3 0.68 3 0 3 C0 2.01 0 1.02 0 0 Z " transform="translate(503 310)" class="colorFFF svgShape"></path><path fill="#ffffff" d="M0 0 C0.66 0 1.32 0 2 0 C2 0.99 2 1.98 2 3 C1.34 3 0.68 3 0 3 C0 2.01 0 1.02 0 0 Z " transform="translate(299 310)" class="colorFFF svgShape"></path><path fill="#ffffff" d="M0 0 C0.66 0 1.32 0 2 0 C2 0.99 2 1.98 2 3 C1.34 3 0.68 3 0 3 C0 2.01 0 1.02 0 0 Z " transform="translate(711 292)" class="colorFFF svgShape"></path><path fill="#ffffff" d="M0 0 C0.66 0 1.32 0 2 0 C2 0.99 2 1.98 2 3 C1.34 3 0.68 3 0 3 C0 2.01 0 1.02 0 0 Z " transform="translate(503 292)" class="colorFFF svgShape"></path><path fill="#ffffff" d="M0 0 C0.66 0 1.32 0 2 0 C2 0.99 2 1.98 2 3 C1.34 3 0.68 3 0 3 C0 2.01 0 1.02 0 0 Z " transform="translate(299 292)" class="colorFFF svgShape"></path><path fill="#ffffff" d="M0 0 C0.66 0 1.32 0 2 0 C2 0.99 2 1.98 2 3 C1.34 3 0.68 3 0 3 C0 2.01 0 1.02 0 0 Z " transform="translate(711 255)" class="colorFFF svgShape"></path><path fill="#ffffff" d="M0 0 C0.66 0 1.32 0 2 0 C2 0.99 2 1.98 2 3 C1.34 3 0.68 3 0 3 C0 2.01 0 1.02 0 0 Z " transform="translate(503 255)" class="colorFFF svgShape"></path><path fill="#ffffff" d="M0 0 C0.66 0 1.32 0 2 0 C2 0.99 2 1.98 2 3 C1.34 3 0.68 3 0 3 C0 2.01 0 1.02 0 0 Z " transform="translate(299 255)" class="colorFFF svgShape"></path><path fill="#ffffff" d="M0 0 C0.66 0 1.32 0 2 0 C2 0.99 2 1.98 2 3 C1.34 3 0.68 3 0 3 C0 2.01 0 1.02 0 0 Z " transform="translate(89 255)" class="colorFFF svgShape"></path><path fill="#ffffff" d="M0 0 C0.66 0 1.32 0 2 0 C2 0.99 2 1.98 2 3 C1.34 3 0.68 3 0 3 C0 2.01 0 1.02 0 0 Z " transform="translate(711 237)" class="colorFFF svgShape"></path><path fill="#ffffff" d="M0 0 C0.66 0 1.32 0 2 0 C2 0.99 2 1.98 2 3 C1.34 3 0.68 3 0 3 C0 2.01 0 1.02 0 0 Z " transform="translate(503 237)" class="colorFFF svgShape"></path><path fill="#ffffff" d="M0 0 C0.66 0 1.32 0 2 0 C2 0.99 2 1.98 2 3 C1.34 3 0.68 3 0 3 C0 2.01 0 1.02 0 0 Z " transform="translate(299 237)" class="colorFFF svgShape"></path><path fill="#ffffff" d="M0 0 C0.66 0 1.32 0 2 0 C2 0.99 2 1.98 2 3 C1.34 3 0.68 3 0 3 C0 2.01 0 1.02 0 0 Z " transform="translate(89 237)" class="colorFFF svgShape"></path><path fill="#ffffff" d="M0 0 C0.66 0 1.32 0 2 0 C2 0.99 2 1.98 2 3 C1.34 3 0.68 3 0 3 C0 2.01 0 1.02 0 0 Z " transform="translate(89 200)" class="colorFFF svgShape"></path><path fill="#ffffff" d="M0 0 C0.66 0 1.32 0 2 0 C2 0.99 2 1.98 2 3 C1.34 3 0.68 3 0 3 C0 2.01 0 1.02 0 0 Z " transform="translate(299 182)" class="colorFFF svgShape"></path><path fill="#ffffff" d="M0 0 C0.66 0 1.32 0 2 0 C2 0.99 2 1.98 2 3 C1.34 3 0.68 3 0 3 C0 2.01 0 1.02 0 0 Z " transform="translate(89 182)" class="colorFFF svgShape"></path><path fill="#ffffff" d="M0 0 C0.66 0 1.32 0 2 0 C2 0.99 2 1.98 2 3 C1.34 3 0.68 3 0 3 C0 2.01 0 1.02 0 0 Z " transform="translate(299 145)" class="colorFFF svgShape"></path><path fill="#ffffff" d="M0 0 C0.66 0 1.32 0 2 0 C2 0.99 2 1.98 2 3 C1.34 3 0.68 3 0 3 C0 2.01 0 1.02 0 0 Z " transform="translate(89 145)" class="colorFFF svgShape"></path><path fill="#ffffff" d="M0 0 C0.66 0 1.32 0 2 0 C2 0.99 2 1.98 2 3 C1.34 3 0.68 3 0 3 C0 2.01 0 1.02 0 0 Z " transform="translate(711 127)" class="colorFFF svgShape"></path><path fill="#ffffff" d="M0 0 C0.66 0 1.32 0 2 0 C2 0.99 2 1.98 2 3 C1.34 3 0.68 3 0 3 C0 2.01 0 1.02 0 0 Z " transform="translate(299 127)" class="colorFFF svgShape"></path><path fill="#ffffff" d="M0 0 C0.66 0 1.32 0 2 0 C2 0.99 2 1.98 2 3 C1.34 3 0.68 3 0 3 C0 2.01 0 1.02 0 0 Z " transform="translate(89 127)" class="colorFFF svgShape"></path><path fill="#ffffff" d="M0 0 C0.66 0 1.32 0 2 0 C2 0.99 2 1.98 2 3 C1.34 3 0.68 3 0 3 C0 2.01 0 1.02 0 0 Z " transform="translate(711 90)" class="colorFFF svgShape"></path><path fill="#ffffff" d="M0 0 C0.66 0 1.32 0 2 0 C2 0.99 2 1.98 2 3 C1.34 3 0.68 3 0 3 C0 2.01 0 1.02 0 0 Z " transform="translate(299 90)" class="colorFFF svgShape"></path><path fill="#ffffff" d="M0 0 C0.66 0 1.32 0 2 0 C2 0.99 2 1.98 2 3 C1.34 3 0.68 3 0 3 C0 2.01 0 1.02 0 0 Z " transform="translate(711 72)" class="colorFFF svgShape"></path><path fill="#ffffff" d="M0 0 C0.66 0 1.32 0 2 0 C2 0.99 2 1.98 2 3 C1.34 3 0.68 3 0 3 C0 2.01 0 1.02 0 0 Z " transform="translate(503 72)" class="colorFFF svgShape"></path><path fill="#ffffff" d="M0 0 C0.66 0 1.32 0 2 0 C2 0.99 2 1.98 2 3 C1.34 3 0.68 3 0 3 C0 2.01 0 1.02 0 0 Z " transform="translate(299 72)" class="colorFFF svgShape"></path><path fill="#ffffff" d="M0 0 C0.66 0 1.32 0 2 0 C2 0.99 2 1.98 2 3 C1.34 3 0.68 3 0 3 C0 2.01 0 1.02 0 0 Z " transform="translate(89 72)" class="colorFFF svgShape"></path><path fill="#ffffff" d="M0 0 C0.66 0 1.32 0 2 0 C2 0.99 2 1.98 2 3 C1.34 3 0.68 3 0 3 C0 2.01 0 1.02 0 0 Z " transform="translate(711 35)" class="colorFFF svgShape"></path><path fill="#ffffff" d="M0 0 C0.66 0 1.32 0 2 0 C2 0.99 2 1.98 2 3 C1.34 3 0.68 3 0 3 C0 2.01 0 1.02 0 0 Z " transform="translate(503 35)" class="colorFFF svgShape"></path><path fill="#ffffff" d="M0 0 C0.66 0 1.32 0 2 0 C2 0.99 2 1.98 2 3 C1.34 3 0.68 3 0 3 C0 2.01 0 1.02 0 0 Z " transform="translate(299 35)" class="colorFFF svgShape"></path><path fill="#ffffff" d="M0 0 C0.66 0 1.32 0 2 0 C2 0.99 2 1.98 2 3 C1.34 3 0.68 3 0 3 C0 2.01 0 1.02 0 0 Z " transform="translate(89 35)" class="colorFFF svgShape"></path><path fill="#ffffff" d="M0 0 C0.66 0 1.32 0 2 0 C2 0.99 2 1.98 2 3 C1.34 3 0.68 3 0 3 C0 2.01 0 1.02 0 0 Z " transform="translate(711 17)" class="colorFFF svgShape"></path><path fill="#ffffff" d="M0 0 C0.66 0 1.32 0 2 0 C2 0.99 2 1.98 2 3 C1.34 3 0.68 3 0 3 C0 2.01 0 1.02 0 0 Z " transform="translate(503 17)" class="colorFFF svgShape"></path><path fill="#ffffff" d="M0 0 C0.66 0 1.32 0 2 0 C2 0.99 2 1.98 2 3 C1.34 3 0.68 3 0 3 C0 2.01 0 1.02 0 0 Z " transform="translate(299 17)" class="colorFFF svgShape"></path><path fill="#ffffff" d="M0 0 C0.66 0 1.32 0 2 0 C2 0.99 2 1.98 2 3 C1.34 3 0.68 3 0 3 C0 2.01 0 1.02 0 0 Z " transform="translate(89 17)" class="colorFFF svgShape"></path><path fill="#ffffff" d="M0 0 C0.66 0 1.32 0 2 0 C2 0.66 2 1.32 2 2 C1.34 2 0.68 2 0 2 C0 1.34 0 0.68 0 0 Z " transform="translate(711 384)" class="colorFFF svgShape"></path><path fill="#ffffff" d="M0 0 C0.66 0 1.32 0 2 0 C2 0.66 2 1.32 2 2 C1.34 2 0.68 2 0 2 C0 1.34 0 0.68 0 0 Z " transform="translate(503 384)" class="colorFFF svgShape"></path><path fill="#ffffff" d="M0 0 C0.66 0 1.32 0 2 0 C2 0.66 2 1.32 2 2 C1.34 2 0.68 2 0 2 C0 1.34 0 0.68 0 0 Z " transform="translate(299 384)" class="colorFFF svgShape"></path><path fill="#ffffff" d="M0 0 C0.66 0 1.32 0 2 0 C2 0.66 2 1.32 2 2 C1.34 2 0.68 2 0 2 C0 1.34 0 0.68 0 0 Z " transform="translate(89 384)" class="colorFFF svgShape"></path><path fill="#ffffff" d="M0 0 C0.66 0 1.32 0 2 0 C2 0.66 2 1.32 2 2 C1.34 2 0.68 2 0 2 C0 1.34 0 0.68 0 0 Z " transform="translate(863 361)" class="colorFFF svgShape"></path><path fill="#ffffff" d="M0 0 C0.66 0 1.32 0 2 0 C2 0.66 2 1.32 2 2 C1.34 2 0.68 2 0 2 C0 1.34 0 0.68 0 0 Z " transform="translate(845 361)" class="colorFFF svgShape"></path><path fill="#ffffff" d="M0 0 C0.66 0 1.32 0 2 0 C2 0.66 2 1.32 2 2 C1.34 2 0.68 2 0 2 C0 1.34 0 0.68 0 0 Z " transform="translate(827 361)" class="colorFFF svgShape"></path><path fill="#ffffff" d="M0 0 C0.66 0 1.32 0 2 0 C2 0.66 2 1.32 2 2 C1.34 2 0.68 2 0 2 C0 1.34 0 0.68 0 0 Z " transform="translate(809 361)" class="colorFFF svgShape"></path><path fill="#ffffff" d="M0 0 C0.66 0 1.32 0 2 0 C2 0.66 2 1.32 2 2 C1.34 2 0.68 2 0 2 C0 1.34 0 0.68 0 0 Z " transform="translate(791 361)" class="colorFFF svgShape"></path><path fill="#ffffff" d="M0 0 C0.66 0 1.32 0 2 0 C2 0.66 2 1.32 2 2 C1.34 2 0.68 2 0 2 C0 1.34 0 0.68 0 0 Z " transform="translate(773 361)" class="colorFFF svgShape"></path><path fill="#ffffff" d="M0 0 C0.66 0 1.32 0 2 0 C2 0.66 2 1.32 2 2 C1.34 2 0.68 2 0 2 C0 1.34 0 0.68 0 0 Z " transform="translate(755 361)" class="colorFFF svgShape"></path><path fill="#ffffff" d="M0 0 C0.66 0 1.32 0 2 0 C2 0.66 2 1.32 2 2 C1.34 2 0.68 2 0 2 C0 1.34 0 0.68 0 0 Z " transform="translate(737 361)" class="colorFFF svgShape"></path><path fill="#ffffff" d="M0 0 C0.66 0 1.32 0 2 0 C2 0.66 2 1.32 2 2 C1.34 2 0.68 2 0 2 C0 1.34 0 0.68 0 0 Z " transform="translate(719 361)" class="colorFFF svgShape"></path><path fill="#ffffff" d="M0 0 C0.66 0 1.32 0 2 0 C2 0.66 2 1.32 2 2 C1.34 2 0.68 2 0 2 C0 1.34 0 0.68 0 0 Z " transform="translate(701 361)" class="colorFFF svgShape"></path><path fill="#ffffff" d="M0 0 C0.66 0 1.32 0 2 0 C2 0.66 2 1.32 2 2 C1.34 2 0.68 2 0 2 C0 1.34 0 0.68 0 0 Z " transform="translate(683 361)" class="colorFFF svgShape"></path><path fill="#ffffff" d="M0 0 C0.66 0 1.32 0 2 0 C2 0.66 2 1.32 2 2 C1.34 2 0.68 2 0 2 C0 1.34 0 0.68 0 0 Z " transform="translate(665 361)" class="colorFFF svgShape"></path><path fill="#ffffff" d="M0 0 C0.66 0 1.32 0 2 0 C2 0.66 2 1.32 2 2 C1.34 2 0.68 2 0 2 C0 1.34 0 0.68 0 0 Z " transform="translate(647 361)" class="colorFFF svgShape"></path><path fill="#ffffff" d="M0 0 C0.66 0 1.32 0 2 0 C2 0.66 2 1.32 2 2 C1.34 2 0.68 2 0 2 C0 1.34 0 0.68 0 0 Z " transform="translate(629 361)" class="colorFFF svgShape"></path><path fill="#ffffff" d="M0 0 C0.66 0 1.32 0 2 0 C2 0.66 2 1.32 2 2 C1.34 2 0.68 2 0 2 C0 1.34 0 0.68 0 0 Z " transform="translate(611 361)" class="colorFFF svgShape"></path><path fill="#ffffff" d="M0 0 C0.66 0 1.32 0 2 0 C2 0.66 2 1.32 2 2 C1.34 2 0.68 2 0 2 C0 1.34 0 0.68 0 0 Z " transform="translate(593 361)" class="colorFFF svgShape"></path><path fill="#ffffff" d="M0 0 C0.66 0 1.32 0 2 0 C2 0.66 2 1.32 2 2 C1.34 2 0.68 2 0 2 C0 1.34 0 0.68 0 0 Z " transform="translate(575 361)" class="colorFFF svgShape"></path><path fill="#ffffff" d="M0 0 C0.66 0 1.32 0 2 0 C2 0.66 2 1.32 2 2 C1.34 2 0.68 2 0 2 C0 1.34 0 0.68 0 0 Z " transform="translate(557 361)" class="colorFFF svgShape"></path><path fill="#ffffff" d="M0 0 C0.66 0 1.32 0 2 0 C2 0.66 2 1.32 2 2 C1.34 2 0.68 2 0 2 C0 1.34 0 0.68 0 0 Z " transform="translate(539 361)" class="colorFFF svgShape"></path><path fill="#ffffff" d="M0 0 C0.66 0 1.32 0 2 0 C2 0.66 2 1.32 2 2 C1.34 2 0.68 2 0 2 C0 1.34 0 0.68 0 0 Z " transform="translate(521 361)" class="colorFFF svgShape"></path><path fill="#ffffff" d="M0 0 C0.66 0 1.32 0 2 0 C2 0.66 2 1.32 2 2 C1.34 2 0.68 2 0 2 C0 1.34 0 0.68 0 0 Z " transform="translate(503 361)" class="colorFFF svgShape"></path><path fill="#ffffff" d="M0 0 C0.66 0 1.32 0 2 0 C2 0.66 2 1.32 2 2 C1.34 2 0.68 2 0 2 C0 1.34 0 0.68 0 0 Z " transform="translate(485 361)" class="colorFFF svgShape"></path><path fill="#ffffff" d="M0 0 C0.66 0 1.32 0 2 0 C2 0.66 2 1.32 2 2 C1.34 2 0.68 2 0 2 C0 1.34 0 0.68 0 0 Z " transform="translate(467 361)" class="colorFFF svgShape"></path><path fill="#ffffff" d="M0 0 C0.66 0 1.32 0 2 0 C2 0.66 2 1.32 2 2 C1.34 2 0.68 2 0 2 C0 1.34 0 0.68 0 0 Z " transform="translate(449 361)" class="colorFFF svgShape"></path><path fill="#ffffff" d="M0 0 C0.66 0 1.32 0 2 0 C2 0.66 2 1.32 2 2 C1.34 2 0.68 2 0 2 C0 1.34 0 0.68 0 0 Z " transform="translate(431 361)" class="colorFFF svgShape"></path><path fill="#ffffff" d="M0 0 C0.66 0 1.32 0 2 0 C2 0.66 2 1.32 2 2 C1.34 2 0.68 2 0 2 C0 1.34 0 0.68 0 0 Z " transform="translate(413 361)" class="colorFFF svgShape"></path><path fill="#ffffff" d="M0 0 C0.66 0 1.32 0 2 0 C2 0.66 2 1.32 2 2 C1.34 2 0.68 2 0 2 C0 1.34 0 0.68 0 0 Z " transform="translate(395 361)" class="colorFFF svgShape"></path><path fill="#ffffff" d="M0 0 C0.66 0 1.32 0 2 0 C2 0.66 2 1.32 2 2 C1.34 2 0.68 2 0 2 C0 1.34 0 0.68 0 0 Z " transform="translate(377 361)" class="colorFFF svgShape"></path><path fill="#ffffff" d="M0 0 C0.66 0 1.32 0 2 0 C2 0.66 2 1.32 2 2 C1.34 2 0.68 2 0 2 C0 1.34 0 0.68 0 0 Z " transform="translate(359 361)" class="colorFFF svgShape"></path><path fill="#ffffff" d="M0 0 C0.66 0 1.32 0 2 0 C2 0.66 2 1.32 2 2 C1.34 2 0.68 2 0 2 C0 1.34 0 0.68 0 0 Z " transform="translate(341 361)" class="colorFFF svgShape"></path><path fill="#ffffff" d="M0 0 C0.66 0 1.32 0 2 0 C2 0.66 2 1.32 2 2 C1.34 2 0.68 2 0 2 C0 1.34 0 0.68 0 0 Z " transform="translate(323 361)" class="colorFFF svgShape"></path><path fill="#ffffff" d="M0 0 C0.66 0 1.32 0 2 0 C2 0.66 2 1.32 2 2 C1.34 2 0.68 2 0 2 C0 1.34 0 0.68 0 0 Z " transform="translate(305 361)" class="colorFFF svgShape"></path><path fill="#ffffff" d="M0 0 C0.66 0 1.32 0 2 0 C2 0.66 2 1.32 2 2 C1.34 2 0.68 2 0 2 C0 1.34 0 0.68 0 0 Z " transform="translate(287 361)" class="colorFFF svgShape"></path><path fill="#ffffff" d="M0 0 C0.66 0 1.32 0 2 0 C2 0.66 2 1.32 2 2 C1.34 2 0.68 2 0 2 C0 1.34 0 0.68 0 0 Z " transform="translate(269 361)" class="colorFFF svgShape"></path><path fill="#ffffff" d="M0 0 C0.66 0 1.32 0 2 0 C2 0.66 2 1.32 2 2 C1.34 2 0.68 2 0 2 C0 1.34 0 0.68 0 0 Z " transform="translate(251 361)" class="colorFFF svgShape"></path><path fill="#ffffff" d="M0 0 C0.66 0 1.32 0 2 0 C2 0.66 2 1.32 2 2 C1.34 2 0.68 2 0 2 C0 1.34 0 0.68 0 0 Z " transform="translate(233 361)" class="colorFFF svgShape"></path><path fill="#ffffff" d="M0 0 C0.66 0 1.32 0 2 0 C2 0.66 2 1.32 2 2 C1.34 2 0.68 2 0 2 C0 1.34 0 0.68 0 0 Z " transform="translate(215 361)" class="colorFFF svgShape"></path><path fill="#ffffff" d="M0 0 C0.66 0 1.32 0 2 0 C2 0.66 2 1.32 2 2 C1.34 2 0.68 2 0 2 C0 1.34 0 0.68 0 0 Z " transform="translate(197 361)" class="colorFFF svgShape"></path><path fill="#ffffff" d="M0 0 C0.66 0 1.32 0 2 0 C2 0.66 2 1.32 2 2 C1.34 2 0.68 2 0 2 C0 1.34 0 0.68 0 0 Z " transform="translate(179 361)" class="colorFFF svgShape"></path><path fill="#ffffff" d="M0 0 C0.66 0 1.32 0 2 0 C2 0.66 2 1.32 2 2 C1.34 2 0.68 2 0 2 C0 1.34 0 0.68 0 0 Z " transform="translate(161 361)" class="colorFFF svgShape"></path><path fill="#ffffff" d="M0 0 C0.66 0 1.32 0 2 0 C2 0.66 2 1.32 2 2 C1.34 2 0.68 2 0 2 C0 1.34 0 0.68 0 0 Z " transform="translate(143 361)" class="colorFFF svgShape"></path><path fill="#ffffff" d="M0 0 C0.66 0 1.32 0 2 0 C2 0.66 2 1.32 2 2 C1.34 2 0.68 2 0 2 C0 1.34 0 0.68 0 0 Z " transform="translate(125 361)" class="colorFFF svgShape"></path><path fill="#ffffff" d="M0 0 C0.66 0 1.32 0 2 0 C2 0.66 2 1.32 2 2 C1.34 2 0.68 2 0 2 C0 1.34 0 0.68 0 0 Z " transform="translate(107 361)" class="colorFFF svgShape"></path><path fill="#ffffff" d="M0 0 C0.66 0 1.32 0 2 0 C2 0.66 2 1.32 2 2 C1.34 2 0.68 2 0 2 C0 1.34 0 0.68 0 0 Z " transform="translate(89 361)" class="colorFFF svgShape"></path><path fill="#ffffff" d="M0 0 C0.66 0 1.32 0 2 0 C2 0.66 2 1.32 2 2 C1.34 2 0.68 2 0 2 C0 1.34 0 0.68 0 0 Z " transform="translate(71 361)" class="colorFFF svgShape"></path><path fill="#ffffff" d="M0 0 C0.66 0 1.32 0 2 0 C2 0.66 2 1.32 2 2 C1.34 2 0.68 2 0 2 C0 1.34 0 0.68 0 0 Z " transform="translate(53 361)" class="colorFFF svgShape"></path><path fill="#ffffff" d="M0 0 C0.66 0 1.32 0 2 0 C2 0.66 2 1.32 2 2 C1.34 2 0.68 2 0 2 C0 1.34 0 0.68 0 0 Z " transform="translate(35 361)" class="colorFFF svgShape"></path><path fill="#ffffff" d="M0 0 C0.66 0 1.32 0 2 0 C2 0.66 2 1.32 2 2 C1.34 2 0.68 2 0 2 C0 1.34 0 0.68 0 0 Z " transform="translate(17 361)" class="colorFFF svgShape"></path><path fill="#ffffff" d="M0 0 C0.66 0 1.32 0 2 0 C2 0.66 2 1.32 2 2 C1.34 2 0.68 2 0 2 C0 1.34 0 0.68 0 0 Z " transform="translate(711 329)" class="colorFFF svgShape"></path><path fill="#ffffff" d="M0 0 C0.66 0 1.32 0 2 0 C2 0.66 2 1.32 2 2 C1.34 2 0.68 2 0 2 C0 1.34 0 0.68 0 0 Z " transform="translate(503 329)" class="colorFFF svgShape"></path><path fill="#ffffff" d="M0 0 C0.66 0 1.32 0 2 0 C2 0.66 2 1.32 2 2 C1.34 2 0.68 2 0 2 C0 1.34 0 0.68 0 0 Z " transform="translate(299 329)" class="colorFFF svgShape"></path><path fill="#ffffff" d="M0 0 C0.66 0 1.32 0 2 0 C2 0.66 2 1.32 2 2 C1.34 2 0.68 2 0 2 C0 1.34 0 0.68 0 0 Z " transform="translate(711 274)" class="colorFFF svgShape"></path><path fill="#ffffff" d="M0 0 C0.66 0 1.32 0 2 0 C2 0.66 2 1.32 2 2 C1.34 2 0.68 2 0 2 C0 1.34 0 0.68 0 0 Z " transform="translate(503 274)" class="colorFFF svgShape"></path><path fill="#ffffff" d="M0 0 C0.66 0 1.32 0 2 0 C2 0.66 2 1.32 2 2 C1.34 2 0.68 2 0 2 C0 1.34 0 0.68 0 0 Z " transform="translate(299 274)" class="colorFFF svgShape"></path><path fill="#ffffff" d="M0 0 C0.66 0 1.32 0 2 0 C2 0.66 2 1.32 2 2 C1.34 2 0.68 2 0 2 C0 1.34 0 0.68 0 0 Z " transform="translate(89 274)" class="colorFFF svgShape"></path><path fill="#ffffff" d="M0 0 C0.66 0 1.32 0 2 0 C2 0.66 2 1.32 2 2 C1.34 2 0.68 2 0 2 C0 1.34 0 0.68 0 0 Z " transform="translate(863 227)" class="colorFFF svgShape"></path><path fill="#ffffff" d="M0 0 C0.66 0 1.32 0 2 0 C2 0.66 2 1.32 2 2 C1.34 2 0.68 2 0 2 C0 1.34 0 0.68 0 0 Z " transform="translate(845 227)" class="colorFFF svgShape"></path><path fill="#ffffff" d="M0 0 C0.66 0 1.32 0 2 0 C2 0.66 2 1.32 2 2 C1.34 2 0.68 2 0 2 C0 1.34 0 0.68 0 0 Z " transform="translate(827 227)" class="colorFFF svgShape"></path><path fill="#ffffff" d="M0 0 C0.66 0 1.32 0 2 0 C2 0.66 2 1.32 2 2 C1.34 2 0.68 2 0 2 C0 1.34 0 0.68 0 0 Z " transform="translate(809 227)" class="colorFFF svgShape"></path><path fill="#ffffff" d="M0 0 C0.66 0 1.32 0 2 0 C2 0.66 2 1.32 2 2 C1.34 2 0.68 2 0 2 C0 1.34 0 0.68 0 0 Z " transform="translate(791 227)" class="colorFFF svgShape"></path><path fill="#ffffff" d="M0 0 C0.66 0 1.32 0 2 0 C2 0.66 2 1.32 2 2 C1.34 2 0.68 2 0 2 C0 1.34 0 0.68 0 0 Z " transform="translate(773 227)" class="colorFFF svgShape"></path><path fill="#ffffff" d="M0 0 C0.66 0 1.32 0 2 0 C2 0.66 2 1.32 2 2 C1.34 2 0.68 2 0 2 C0 1.34 0 0.68 0 0 Z " transform="translate(755 227)" class="colorFFF svgShape"></path><path fill="#ffffff" d="M0 0 C0.66 0 1.32 0 2 0 C2 0.66 2 1.32 2 2 C1.34 2 0.68 2 0 2 C0 1.34 0 0.68 0 0 Z " transform="translate(737 227)" class="colorFFF svgShape"></path><path fill="#ffffff" d="M0 0 C0.66 0 1.32 0 2 0 C2 0.66 2 1.32 2 2 C1.34 2 0.68 2 0 2 C0 1.34 0 0.68 0 0 Z " transform="translate(683 227)" class="colorFFF svgShape"></path><path fill="#ffffff" d="M0 0 C0.66 0 1.32 0 2 0 C2 0.66 2 1.32 2 2 C1.34 2 0.68 2 0 2 C0 1.34 0 0.68 0 0 Z " transform="translate(629 227)" class="colorFFF svgShape"></path><path fill="#ffffff" d="M0 0 C0.66 0 1.32 0 2 0 C2 0.66 2 1.32 2 2 C1.34 2 0.68 2 0 2 C0 1.34 0 0.68 0 0 Z " transform="translate(575 227)" class="colorFFF svgShape"></path><path fill="#ffffff" d="M0 0 C0.66 0 1.32 0 2 0 C2 0.66 2 1.32 2 2 C1.34 2 0.68 2 0 2 C0 1.34 0 0.68 0 0 Z " transform="translate(539 227)" class="colorFFF svgShape"></path><path fill="#ffffff" d="M0 0 C0.66 0 1.32 0 2 0 C2 0.66 2 1.32 2 2 C1.34 2 0.68 2 0 2 C0 1.34 0 0.68 0 0 Z " transform="translate(521 227)" class="colorFFF svgShape"></path><path fill="#ffffff" d="M0 0 C0.66 0 1.32 0 2 0 C2 0.66 2 1.32 2 2 C1.34 2 0.68 2 0 2 C0 1.34 0 0.68 0 0 Z " transform="translate(503 227)" class="colorFFF svgShape"></path><path fill="#ffffff" d="M0 0 C0.66 0 1.32 0 2 0 C2 0.66 2 1.32 2 2 C1.34 2 0.68 2 0 2 C0 1.34 0 0.68 0 0 Z " transform="translate(485 227)" class="colorFFF svgShape"></path><path fill="#ffffff" d="M0 0 C0.66 0 1.32 0 2 0 C2 0.66 2 1.32 2 2 C1.34 2 0.68 2 0 2 C0 1.34 0 0.68 0 0 Z " transform="translate(467 227)" class="colorFFF svgShape"></path><path fill="#ffffff" d="M0 0 C0.66 0 1.32 0 2 0 C2 0.66 2 1.32 2 2 C1.34 2 0.68 2 0 2 C0 1.34 0 0.68 0 0 Z " transform="translate(449 227)" class="colorFFF svgShape"></path><path fill="#ffffff" d="M0 0 C0.66 0 1.32 0 2 0 C2 0.66 2 1.32 2 2 C1.34 2 0.68 2 0 2 C0 1.34 0 0.68 0 0 Z " transform="translate(431 227)" class="colorFFF svgShape"></path><path fill="#ffffff" d="M0 0 C0.66 0 1.32 0 2 0 C2 0.66 2 1.32 2 2 C1.34 2 0.68 2 0 2 C0 1.34 0 0.68 0 0 Z " transform="translate(413 227)" class="colorFFF svgShape"></path><path fill="#ffffff" d="M0 0 C0.66 0 1.32 0 2 0 C2 0.66 2 1.32 2 2 C1.34 2 0.68 2 0 2 C0 1.34 0 0.68 0 0 Z " transform="translate(395 227)" class="colorFFF svgShape"></path><path fill="#ffffff" d="M0 0 C0.66 0 1.32 0 2 0 C2 0.66 2 1.32 2 2 C1.34 2 0.68 2 0 2 C0 1.34 0 0.68 0 0 Z " transform="translate(377 227)" class="colorFFF svgShape"></path><path fill="#ffffff" d="M0 0 C0.66 0 1.32 0 2 0 C2 0.66 2 1.32 2 2 C1.34 2 0.68 2 0 2 C0 1.34 0 0.68 0 0 Z " transform="translate(359 227)" class="colorFFF svgShape"></path><path fill="#ffffff" d="M0 0 C0.66 0 1.32 0 2 0 C2 0.66 2 1.32 2 2 C1.34 2 0.68 2 0 2 C0 1.34 0 0.68 0 0 Z " transform="translate(341 227)" class="colorFFF svgShape"></path><path fill="#ffffff" d="M0 0 C0.66 0 1.32 0 2 0 C2 0.66 2 1.32 2 2 C1.34 2 0.68 2 0 2 C0 1.34 0 0.68 0 0 Z " transform="translate(323 227)" class="colorFFF svgShape"></path><path fill="#ffffff" d="M0 0 C0.66 0 1.32 0 2 0 C2 0.66 2 1.32 2 2 C1.34 2 0.68 2 0 2 C0 1.34 0 0.68 0 0 Z " transform="translate(305 227)" class="colorFFF svgShape"></path><path fill="#ffffff" d="M0 0 C0.66 0 1.32 0 2 0 C2 0.66 2 1.32 2 2 C1.34 2 0.68 2 0 2 C0 1.34 0 0.68 0 0 Z " transform="translate(287 227)" class="colorFFF svgShape"></path><path fill="#ffffff" d="M0 0 C0.66 0 1.32 0 2 0 C2 0.66 2 1.32 2 2 C1.34 2 0.68 2 0 2 C0 1.34 0 0.68 0 0 Z " transform="translate(269 227)" class="colorFFF svgShape"></path><path fill="#ffffff" d="M0 0 C0.66 0 1.32 0 2 0 C2 0.66 2 1.32 2 2 C1.34 2 0.68 2 0 2 C0 1.34 0 0.68 0 0 Z " transform="translate(215 227)" class="colorFFF svgShape"></path><path fill="#ffffff" d="M0 0 C0.66 0 1.32 0 2 0 C2 0.66 2 1.32 2 2 C1.34 2 0.68 2 0 2 C0 1.34 0 0.68 0 0 Z " transform="translate(197 227)" class="colorFFF svgShape"></path><path fill="#ffffff" d="M0 0 C0.66 0 1.32 0 2 0 C2 0.66 2 1.32 2 2 C1.34 2 0.68 2 0 2 C0 1.34 0 0.68 0 0 Z " transform="translate(179 227)" class="colorFFF svgShape"></path><path fill="#ffffff" d="M0 0 C0.66 0 1.32 0 2 0 C2 0.66 2 1.32 2 2 C1.34 2 0.68 2 0 2 C0 1.34 0 0.68 0 0 Z " transform="translate(161 227)" class="colorFFF svgShape"></path><path fill="#ffffff" d="M0 0 C0.66 0 1.32 0 2 0 C2 0.66 2 1.32 2 2 C1.34 2 0.68 2 0 2 C0 1.34 0 0.68 0 0 Z " transform="translate(143 227)" class="colorFFF svgShape"></path><path fill="#ffffff" d="M0 0 C0.66 0 1.32 0 2 0 C2 0.66 2 1.32 2 2 C1.34 2 0.68 2 0 2 C0 1.34 0 0.68 0 0 Z " transform="translate(125 227)" class="colorFFF svgShape"></path><path fill="#ffffff" d="M0 0 C0.66 0 1.32 0 2 0 C2 0.66 2 1.32 2 2 C1.34 2 0.68 2 0 2 C0 1.34 0 0.68 0 0 Z " transform="translate(107 227)" class="colorFFF svgShape"></path><path fill="#ffffff" d="M0 0 C0.66 0 1.32 0 2 0 C2 0.66 2 1.32 2 2 C1.34 2 0.68 2 0 2 C0 1.34 0 0.68 0 0 Z " transform="translate(89 227)" class="colorFFF svgShape"></path><path fill="#ffffff" d="M0 0 C0.66 0 1.32 0 2 0 C2 0.66 2 1.32 2 2 C1.34 2 0.68 2 0 2 C0 1.34 0 0.68 0 0 Z " transform="translate(71 227)" class="colorFFF svgShape"></path><path fill="#ffffff" d="M0 0 C0.66 0 1.32 0 2 0 C2 0.66 2 1.32 2 2 C1.34 2 0.68 2 0 2 C0 1.34 0 0.68 0 0 Z " transform="translate(53 227)" class="colorFFF svgShape"></path><path fill="#ffffff" d="M0 0 C0.66 0 1.32 0 2 0 C2 0.66 2 1.32 2 2 C1.34 2 0.68 2 0 2 C0 1.34 0 0.68 0 0 Z " transform="translate(35 227)" class="colorFFF svgShape"></path><path fill="#ffffff" d="M0 0 C0.66 0 1.32 0 2 0 C2 0.66 2 1.32 2 2 C1.34 2 0.68 2 0 2 C0 1.34 0 0.68 0 0 Z " transform="translate(17 227)" class="colorFFF svgShape"></path><path fill="#ffffff" d="M0 0 C0.66 0 1.32 0 2 0 C2 0.66 2 1.32 2 2 C1.34 2 0.68 2 0 2 C0 1.34 0 0.68 0 0 Z " transform="translate(503 219)" class="colorFFF svgShape"></path><path fill="#ffffff" d="M0 0 C0.66 0 1.32 0 2 0 C2 0.66 2 1.32 2 2 C1.34 2 0.68 2 0 2 C0 1.34 0 0.68 0 0 Z " transform="translate(299 219)" class="colorFFF svgShape"></path><path fill="#ffffff" d="M0 0 C0.66 0 1.32 0 2 0 C2 0.66 2 1.32 2 2 C1.34 2 0.68 2 0 2 C0 1.34 0 0.68 0 0 Z " transform="translate(89 219)" class="colorFFF svgShape"></path><path fill="#ffffff" d="M0 0 C0.66 0 1.32 0 2 0 C2 0.66 2 1.32 2 2 C1.34 2 0.68 2 0 2 C0 1.34 0 0.68 0 0 Z " transform="translate(299 164)" class="colorFFF svgShape"></path><path fill="#ffffff" d="M0 0 C0.66 0 1.32 0 2 0 C2 0.66 2 1.32 2 2 C1.34 2 0.68 2 0 2 C0 1.34 0 0.68 0 0 Z " transform="translate(89 164)" class="colorFFF svgShape"></path><path fill="#ffffff" d="M0 0 C0.66 0 1.32 0 2 0 C2 0.66 2 1.32 2 2 C1.34 2 0.68 2 0 2 C0 1.34 0 0.68 0 0 Z " transform="translate(711 109)" class="colorFFF svgShape"></path><path fill="#ffffff" d="M0 0 C0.66 0 1.32 0 2 0 C2 0.66 2 1.32 2 2 C1.34 2 0.68 2 0 2 C0 1.34 0 0.68 0 0 Z " transform="translate(503 109)" class="colorFFF svgShape"></path><path fill="#ffffff" d="M0 0 C0.66 0 1.32 0 2 0 C2 0.66 2 1.32 2 2 C1.34 2 0.68 2 0 2 C0 1.34 0 0.68 0 0 Z " transform="translate(299 109)" class="colorFFF svgShape"></path><path fill="#ffffff" d="M0 0 C0.66 0 1.32 0 2 0 C2 0.66 2 1.32 2 2 C1.34 2 0.68 2 0 2 C0 1.34 0 0.68 0 0 Z " transform="translate(89 109)" class="colorFFF svgShape"></path><path fill="#ffffff" d="M0 0 C0.66 0 1.32 0 2 0 C2 0.66 2 1.32 2 2 C1.34 2 0.68 2 0 2 C0 1.34 0 0.68 0 0 Z " transform="translate(755 93)" class="colorFFF svgShape"></path><path fill="#ffffff" d="M0 0 C0.66 0 1.32 0 2 0 C2 0.66 2 1.32 2 2 C1.34 2 0.68 2 0 2 C0 1.34 0 0.68 0 0 Z " transform="translate(737 93)" class="colorFFF svgShape"></path><path fill="#ffffff" d="M0 0 C0.66 0 1.32 0 2 0 C2 0.66 2 1.32 2 2 C1.34 2 0.68 2 0 2 C0 1.34 0 0.68 0 0 Z " transform="translate(719 93)" class="colorFFF svgShape"></path><path fill="#ffffff" d="M0 0 C0.66 0 1.32 0 2 0 C2 0.66 2 1.32 2 2 C1.34 2 0.68 2 0 2 C0 1.34 0 0.68 0 0 Z " transform="translate(701 93)" class="colorFFF svgShape"></path><path fill="#ffffff" d="M0 0 C0.66 0 1.32 0 2 0 C2 0.66 2 1.32 2 2 C1.34 2 0.68 2 0 2 C0 1.34 0 0.68 0 0 Z " transform="translate(683 93)" class="colorFFF svgShape"></path><path fill="#ffffff" d="M0 0 C0.66 0 1.32 0 2 0 C2 0.66 2 1.32 2 2 C1.34 2 0.68 2 0 2 C0 1.34 0 0.68 0 0 Z " transform="translate(665 93)" class="colorFFF svgShape"></path><path fill="#ffffff" d="M0 0 C0.66 0 1.32 0 2 0 C2 0.66 2 1.32 2 2 C1.34 2 0.68 2 0 2 C0 1.34 0 0.68 0 0 Z " transform="translate(647 93)" class="colorFFF svgShape"></path><path fill="#ffffff" d="M0 0 C0.66 0 1.32 0 2 0 C2 0.66 2 1.32 2 2 C1.34 2 0.68 2 0 2 C0 1.34 0 0.68 0 0 Z " transform="translate(629 93)" class="colorFFF svgShape"></path><path fill="#ffffff" d="M0 0 C0.66 0 1.32 0 2 0 C2 0.66 2 1.32 2 2 C1.34 2 0.68 2 0 2 C0 1.34 0 0.68 0 0 Z " transform="translate(611 93)" class="colorFFF svgShape"></path><path fill="#ffffff" d="M0 0 C0.66 0 1.32 0 2 0 C2 0.66 2 1.32 2 2 C1.34 2 0.68 2 0 2 C0 1.34 0 0.68 0 0 Z " transform="translate(593 93)" class="colorFFF svgShape"></path><path fill="#ffffff" d="M0 0 C0.66 0 1.32 0 2 0 C2 0.66 2 1.32 2 2 C1.34 2 0.68 2 0 2 C0 1.34 0 0.68 0 0 Z " transform="translate(575 93)" class="colorFFF svgShape"></path><path fill="#ffffff" d="M0 0 C0.66 0 1.32 0 2 0 C2 0.66 2 1.32 2 2 C1.34 2 0.68 2 0 2 C0 1.34 0 0.68 0 0 Z " transform="translate(557 93)" class="colorFFF svgShape"></path><path fill="#ffffff" d="M0 0 C0.66 0 1.32 0 2 0 C2 0.66 2 1.32 2 2 C1.34 2 0.68 2 0 2 C0 1.34 0 0.68 0 0 Z " transform="translate(539 93)" class="colorFFF svgShape"></path><path fill="#ffffff" d="M0 0 C0.66 0 1.32 0 2 0 C2 0.66 2 1.32 2 2 C1.34 2 0.68 2 0 2 C0 1.34 0 0.68 0 0 Z " transform="translate(521 93)" class="colorFFF svgShape"></path><path fill="#ffffff" d="M0 0 C0.66 0 1.32 0 2 0 C2 0.66 2 1.32 2 2 C1.34 2 0.68 2 0 2 C0 1.34 0 0.68 0 0 Z " transform="translate(485 93)" class="colorFFF svgShape"></path><path fill="#ffffff" d="M0 0 C0.66 0 1.32 0 2 0 C2 0.66 2 1.32 2 2 C1.34 2 0.68 2 0 2 C0 1.34 0 0.68 0 0 Z " transform="translate(467 93)" class="colorFFF svgShape"></path><path fill="#ffffff" d="M0 0 C0.66 0 1.32 0 2 0 C2 0.66 2 1.32 2 2 C1.34 2 0.68 2 0 2 C0 1.34 0 0.68 0 0 Z " transform="translate(449 93)" class="colorFFF svgShape"></path><path fill="#ffffff" d="M0 0 C0.66 0 1.32 0 2 0 C2 0.66 2 1.32 2 2 C1.34 2 0.68 2 0 2 C0 1.34 0 0.68 0 0 Z " transform="translate(431 93)" class="colorFFF svgShape"></path><path fill="#ffffff" d="M0 0 C0.66 0 1.32 0 2 0 C2 0.66 2 1.32 2 2 C1.34 2 0.68 2 0 2 C0 1.34 0 0.68 0 0 Z " transform="translate(413 93)" class="colorFFF svgShape"></path><path fill="#ffffff" d="M0 0 C0.66 0 1.32 0 2 0 C2 0.66 2 1.32 2 2 C1.34 2 0.68 2 0 2 C0 1.34 0 0.68 0 0 Z " transform="translate(395 93)" class="colorFFF svgShape"></path><path fill="#ffffff" d="M0 0 C0.66 0 1.32 0 2 0 C2 0.66 2 1.32 2 2 C1.34 2 0.68 2 0 2 C0 1.34 0 0.68 0 0 Z " transform="translate(377 93)" class="colorFFF svgShape"></path><path fill="#ffffff" d="M0 0 C0.66 0 1.32 0 2 0 C2 0.66 2 1.32 2 2 C1.34 2 0.68 2 0 2 C0 1.34 0 0.68 0 0 Z " transform="translate(359 93)" class="colorFFF svgShape"></path><path fill="#ffffff" d="M0 0 C0.66 0 1.32 0 2 0 C2 0.66 2 1.32 2 2 C1.34 2 0.68 2 0 2 C0 1.34 0 0.68 0 0 Z " transform="translate(341 93)" class="colorFFF svgShape"></path><path fill="#ffffff" d="M0 0 C0.66 0 1.32 0 2 0 C2 0.66 2 1.32 2 2 C1.34 2 0.68 2 0 2 C0 1.34 0 0.68 0 0 Z " transform="translate(323 93)" class="colorFFF svgShape"></path><path fill="#ffffff" d="M0 0 C0.66 0 1.32 0 2 0 C2 0.66 2 1.32 2 2 C1.34 2 0.68 2 0 2 C0 1.34 0 0.68 0 0 Z " transform="translate(305 93)" class="colorFFF svgShape"></path><path fill="#ffffff" d="M0 0 C0.66 0 1.32 0 2 0 C2 0.66 2 1.32 2 2 C1.34 2 0.68 2 0 2 C0 1.34 0 0.68 0 0 Z " transform="translate(287 93)" class="colorFFF svgShape"></path><path fill="#ffffff" d="M0 0 C0.66 0 1.32 0 2 0 C2 0.66 2 1.32 2 2 C1.34 2 0.68 2 0 2 C0 1.34 0 0.68 0 0 Z " transform="translate(269 93)" class="colorFFF svgShape"></path><path fill="#ffffff" d="M0 0 C0.66 0 1.32 0 2 0 C2 0.66 2 1.32 2 2 C1.34 2 0.68 2 0 2 C0 1.34 0 0.68 0 0 Z " transform="translate(251 93)" class="colorFFF svgShape"></path><path fill="#ffffff" d="M0 0 C0.66 0 1.32 0 2 0 C2 0.66 2 1.32 2 2 C1.34 2 0.68 2 0 2 C0 1.34 0 0.68 0 0 Z " transform="translate(233 93)" class="colorFFF svgShape"></path><path fill="#ffffff" d="M0 0 C0.66 0 1.32 0 2 0 C2 0.66 2 1.32 2 2 C1.34 2 0.68 2 0 2 C0 1.34 0 0.68 0 0 Z " transform="translate(215 93)" class="colorFFF svgShape"></path><path fill="#ffffff" d="M0 0 C0.66 0 1.32 0 2 0 C2 0.66 2 1.32 2 2 C1.34 2 0.68 2 0 2 C0 1.34 0 0.68 0 0 Z " transform="translate(197 93)" class="colorFFF svgShape"></path><path fill="#ffffff" d="M0 0 C0.66 0 1.32 0 2 0 C2 0.66 2 1.32 2 2 C1.34 2 0.68 2 0 2 C0 1.34 0 0.68 0 0 Z " transform="translate(179 93)" class="colorFFF svgShape"></path><path fill="#ffffff" d="M0 0 C0.66 0 1.32 0 2 0 C2 0.66 2 1.32 2 2 C1.34 2 0.68 2 0 2 C0 1.34 0 0.68 0 0 Z " transform="translate(161 93)" class="colorFFF svgShape"></path><path fill="#ffffff" d="M0 0 C0.66 0 1.32 0 2 0 C2 0.66 2 1.32 2 2 C1.34 2 0.68 2 0 2 C0 1.34 0 0.68 0 0 Z " transform="translate(143 93)" class="colorFFF svgShape"></path><path fill="#ffffff" d="M0 0 C0.66 0 1.32 0 2 0 C2 0.66 2 1.32 2 2 C1.34 2 0.68 2 0 2 C0 1.34 0 0.68 0 0 Z " transform="translate(125 93)" class="colorFFF svgShape"></path><path fill="#ffffff" d="M0 0 C0.66 0 1.32 0 2 0 C2 0.66 2 1.32 2 2 C1.34 2 0.68 2 0 2 C0 1.34 0 0.68 0 0 Z " transform="translate(107 93)" class="colorFFF svgShape"></path><path fill="#ffffff" d="M0 0 C0.66 0 1.32 0 2 0 C2 0.66 2 1.32 2 2 C1.34 2 0.68 2 0 2 C0 1.34 0 0.68 0 0 Z " transform="translate(71 93)" class="colorFFF svgShape"></path><path fill="#ffffff" d="M0 0 C0.66 0 1.32 0 2 0 C2 0.66 2 1.32 2 2 C1.34 2 0.68 2 0 2 C0 1.34 0 0.68 0 0 Z " transform="translate(53 93)" class="colorFFF svgShape"></path><path fill="#ffffff" d="M0 0 C0.66 0 1.32 0 2 0 C2 0.66 2 1.32 2 2 C1.34 2 0.68 2 0 2 C0 1.34 0 0.68 0 0 Z " transform="translate(35 93)" class="colorFFF svgShape"></path><path fill="#ffffff" d="M0 0 C0.66 0 1.32 0 2 0 C2 0.66 2 1.32 2 2 C1.34 2 0.68 2 0 2 C0 1.34 0 0.68 0 0 Z " transform="translate(17 93)" class="colorFFF svgShape"></path><path fill="#ffffff" d="M0 0 C0.66 0 1.32 0 2 0 C2 0.66 2 1.32 2 2 C1.34 2 0.68 2 0 2 C0 1.34 0 0.68 0 0 Z " transform="translate(711 54)" class="colorFFF svgShape"></path><path fill="#ffffff" d="M0 0 C0.66 0 1.32 0 2 0 C2 0.66 2 1.32 2 2 C1.34 2 0.68 2 0 2 C0 1.34 0 0.68 0 0 Z " transform="translate(503 54)" class="colorFFF svgShape"></path><path fill="#ffffff" d="M0 0 C0.66 0 1.32 0 2 0 C2 0.66 2 1.32 2 2 C1.34 2 0.68 2 0 2 C0 1.34 0 0.68 0 0 Z " transform="translate(299 54)" class="colorFFF svgShape"></path><path fill="#ffffff" d="M0 0 C0.66 0 1.32 0 2 0 C2 0.66 2 1.32 2 2 C1.34 2 0.68 2 0 2 C0 1.34 0 0.68 0 0 Z " transform="translate(89 54)" class="colorFFF svgShape"></path><path fill="#ffffff" d="M0 0 C2 1 2 1 2 1 Z " transform="translate(711 439)" class="colorFFF svgShape"></path><path fill="#ffffff" d="M0 0 C2 1 2 1 2 1 Z " transform="translate(503 439)" class="colorFFF svgShape"></path><path fill="#ffffff" d="M0 0 C2 1 2 1 2 1 Z " transform="translate(299 439)" class="colorFFF svgShape"></path><path fill="#ffffff" d="M0 0 C2 1 2 1 2 1 Z " transform="translate(89 439)" class="colorFFF svgShape"></path><path fill="#ffffff" class="colorFFF svgShape"></path><path fill="#ffffff" class="colorFFF svgShape"></path><path fill="#ffffff" class="colorFFF svgShape"></path><path fill="#ffffff" class="colorFFF svgShape"></path><path fill="#ffffff" class="colorFFF svgShape"></path><path fill="#ffffff" class="colorFFF svgShape"></path><path fill="#ffffff" d="M0 0 C2 1 2 1 2 1 Z " transform="translate(711)" class="colorFFF svgShape"></path><path fill="#ffffff" d="M0 0 C2 1 2 1 2 1 Z " transform="translate(503)" class="colorFFF svgShape"></path><path fill="#ffffff" d="M0 0 C2 1 2 1 2 1 Z " transform="translate(299)" class="colorFFF svgShape"></path><path fill="#ffffff" d="M0 0 C2 1 2 1 2 1 Z " transform="translate(89)" class="colorFFF svgShape"></path></svg></g></svg>