<svg id="SvgjsSvg1001" width="288" height="288" xmlns="http://www.w3.org/2000/svg" version="1.1" xmlns:xlink="http://www.w3.org/1999/xlink" xmlns:svgjs="http://svgjs.com/svgjs"><defs id="SvgjsDefs1002"></defs><g id="SvgjsG1008"><svg xmlns="http://www.w3.org/2000/svg" viewBox="0 0 888 386" width="288" height="288"><path fill="#07181f" d="M0 0 C0.84067647 -0.00295142 1.68135294 -0.00590285 2.54750445 -0.00894371 C5.38932758 -0.01766636 8.23111015 -0.01921822 11.07294559 -0.02082157 C13.12113402 -0.0255504 15.1693215 -0.03070102 17.2175079 -0.03623921 C22.8655441 -0.05017372 28.51357384 -0.05773694 34.16162288 -0.0642122 C39.00132616 -0.07057519 43.84101878 -0.08064645 48.68071543 -0.09077286 C64.62925435 -0.12412767 80.57779889 -0.14566541 96.52636036 -0.16397271 C100.67842629 -0.16874051 104.83049191 -0.1737492 108.98255754 -0.17877793 C134.75669469 -0.20982674 160.53083442 -0.23644422 186.30498505 -0.25319672 C192.27752976 -0.25713395 198.25007443 -0.26114579 204.22261906 -0.2652216 C204.96463295 -0.26572326 205.70664684 -0.26622493 206.47114601 -0.2667418 C230.52117124 -0.2831546 254.57109464 -0.3216031 278.62106978 -0.3725087 C303.34664577 -0.42474886 328.07216754 -0.45751406 352.79779984 -0.46477425 C356.29139161 -0.46580282 359.78498328 -0.46703914 363.27857494 -0.46839428 C363.96613531 -0.46865232 364.65369567 -0.46891035 365.36209119 -0.46917621 C376.41998301 -0.47386825 387.4777405 -0.49879112 398.53558207 -0.53114571 C409.65574573 -0.56320759 420.77579182 -0.5726476 431.89600479 -0.56071376 C437.91879105 -0.55488399 443.94115665 -0.55877412 449.96387959 -0.5888834 C455.48073309 -0.61623847 460.99686691 -0.61575199 466.51373637 -0.59337295 C468.50645523 -0.59014957 470.49922222 -0.59702086 472.49186104 -0.61517017 C485.64901406 -0.72771475 495.56420996 0.40119725 505.8869257 9.4523077 C511.71415485 15.84804701 513.98644751 23.72487665 514.06392765 32.20255184 C514.07676289 33.42805248 514.08959812 34.65355312 514.1028223 35.91619015 C514.11099423 37.25244393 514.11843709 38.58870233 514.12520695 39.92496395 C514.12928247 40.60261744 514.133358 41.28027092 514.13755703 41.97845936 C514.15839102 45.57024355 514.17270028 49.16198991 514.18209171 52.75382137 C514.19310866 56.4365137 514.22746032 60.11859388 514.26726341 63.80107117 C514.29360844 66.65553953 514.30179955 69.50986649 514.30537319 72.36444569 C514.31252313 74.37331843 514.33888936 76.3820938 514.36576176 78.39079952 C514.33730227 90.52693428 511.74749111 99.22473969 503.2697382 108.0382452 C496.8461682 113.70362333 490.15242533 115.28931595 481.77385139 115.2796154 C480.93317492 115.28256683 480.09249845 115.28551825 479.22634694 115.28855911 C476.38452381 115.29728176 473.54274124 115.29883363 470.7009058 115.30043697 C468.65271738 115.3051658 466.60452989 115.31031642 464.5563435 115.31585461 C458.90830729 115.32978912 453.26027755 115.33735234 447.61222851 115.34382761 C442.77252523 115.35019059 437.93283261 115.36026186 433.09313596 115.37038826 C417.14459704 115.40374307 401.1960525 115.42528081 385.24749103 115.44358811 C381.0954251 115.44835591 376.94335948 115.4533646 372.79129386 115.45839334 C347.01715671 115.48944214 321.24301697 115.51605962 295.46886635 115.53281212 C289.49632163 115.53674935 283.52377696 115.54076119 277.55123234 115.544837 C276.80921844 115.54533867 276.06720455 115.54584033 275.30270539 115.5463572 C251.25268016 115.56277 227.20275676 115.6012185 203.15278161 115.6521241 C178.42720562 115.70436426 153.70168385 115.73712946 128.97605156 115.74438965 C125.48245978 115.74541822 121.98886811 115.74665454 118.49527645 115.74800968 C117.80771609 115.74826772 117.12015573 115.74852576 116.4117602 115.74879161 C105.35386839 115.75348365 94.2961109 115.77840653 83.23826933 115.81076111 C72.11810567 115.84282299 60.99805957 115.852263 49.87784661 115.84032916 C43.85506034 115.8344994 37.83269475 115.83838952 31.80997181 115.8684988 C26.2931183 115.89585387 20.77698449 115.89536739 15.26011502 115.87298835 C13.26739616 115.86976497 11.27462917 115.87663626 9.28199036 115.89478558 C-3.87516267 116.00733016 -13.79035856 114.87841816 -24.1130743 105.8273077 C-29.94030345 99.43156839 -32.21259611 91.55473875 -32.29007626 83.07706356 C-32.30291149 81.85156292 -32.31574673 80.62606228 -32.32897091 79.36342525 C-32.33714284 78.02717148 -32.3445857 76.69091307 -32.35135555 75.35465145 C-32.35543108 74.67699797 -32.35950661 73.99934448 -32.36370564 73.30115604 C-32.38453962 69.70937186 -32.39884889 66.11762549 -32.40824032 62.52579403 C-32.41925726 58.8431017 -32.45360892 55.16102152 -32.49341202 51.47854424 C-32.51975705 48.62407587 -32.52794815 45.76974892 -32.5315218 42.91516972 C-32.53867174 40.90629697 -32.56503797 38.8975216 -32.59191036 36.88881588 C-32.56345087 24.75268113 -29.97363972 16.05487571 -21.4958868 7.2413702 C-15.07231681 1.57599208 -8.37857393 -0.00970055 0 0 Z " transform="translate(374.113 144.86)" class="color07181F svgShape"></path><path fill="#2875c9" d="M0 0 C19.07799966 15.20962363 31.50785273 35.77832905 35 60 C37.00451012 86.82857584 31.91496277 111.28642929 14.32421875 132.2734375 C-1.10620964 149.94744304 -22.21397032 162.44696166 -45.96044922 164.22119141 C-73.51253084 165.23907211 -97.54684294 159.47996939 -118.375 140.5625 C-135.2388869 124.68462864 -146.47071126 103.35361125 -147.3359375 79.93359375 C-147.71309108 52.66601474 -141.1882267 29.34528403 -122.15112305 9.12597656 C-89.79891626 -24.08394771 -37.05158028 -27.66729114 0 0 Z " transform="translate(147 126)" class="color2875C9 svgShape"></path><path fill="#03315c" d="M0 0 C19.07799966 15.20962363 31.50785273 35.77832905 35 60 C37.00451012 86.82857584 31.91496277 111.28642929 14.32421875 132.2734375 C-1.10620964 149.94744304 -22.21397032 162.44696166 -45.96044922 164.22119141 C-73.51253084 165.23907211 -97.54684294 159.47996939 -118.375 140.5625 C-135.2388869 124.68462864 -146.47071126 103.35361125 -147.3359375 79.93359375 C-147.71309108 52.66601474 -141.1882267 29.34528403 -122.15112305 9.12597656 C-89.79891626 -24.08394771 -37.05158028 -27.66729114 0 0 Z M-103 22 C-103.68707031 22.58136719 -104.37414062 23.16273438 -105.08203125 23.76171875 C-115.37901276 33.12445736 -121.09171813 45.60112994 -124 59 C-124.19078125 59.76828125 -124.3815625 60.5365625 -124.578125 61.328125 C-126.27199118 72.05594411 -125.89619049 83.84486897 -122 94 C-121.64808594 94.97066406 -121.29617187 95.94132812 -120.93359375 96.94140625 C-114.55464236 113.42562717 -104.36977743 125.27408374 -89 134 C-88.05447266 134.58201172 -88.05447266 134.58201172 -87.08984375 135.17578125 C-73.12674799 143.12400499 -54.44957059 144.48555888 -39.125 140.45751953 C-27.48034528 137.02390594 -18.16457963 132.03448789 -9 124 C-8.0409375 123.16662109 -8.0409375 123.16662109 -7.0625 122.31640625 C5.95959796 110.19539096 12.70915402 92.27233258 13.40454102 74.77075195 C13.69007608 56.18136161 7.35970873 39.91646593 -5 26 C-5.88945312 24.95199219 -5.88945312 24.95199219 -6.796875 23.8828125 C-18.08270145 11.48769541 -35.49232099 4.8238591 -51.9140625 3.7421875 C-71.41623948 3.01435938 -88.31001969 8.95609558 -103 22 Z " transform="translate(147 126)" class="color03315C svgShape"></path><path fill="#041217" d="M0 0 C6.14551539 5.8374069 10.63967973 11.77199842 14.0078125 19.55078125 C14.51441406 20.66259766 14.51441406 20.66259766 15.03125 21.796875 C18.80031995 31.77280786 18.80031995 46.32875464 15.03125 56.3046875 C14.69351563 57.04589844 14.35578125 57.78710938 14.0078125 58.55078125 C13.43933594 59.86369141 13.43933594 59.86369141 12.859375 61.203125 C6.02236884 75.29210013 -5.04826205 83.23229355 -19.390625 88.41796875 C-33.32274332 92.19880383 -47.51542185 89.03531383 -60 82.46875 C-69.18108458 76.5837467 -75.68784804 68.49175572 -79.9921875 58.55078125 C-80.32992188 57.80957031 -80.66765625 57.06835938 -81.015625 56.3046875 C-84.78469495 46.32875464 -84.78469495 31.77280786 -81.015625 21.796875 C-80.67789062 21.05566406 -80.34015625 20.31445312 -79.9921875 19.55078125 C-79.42371094 18.23787109 -79.42371094 18.23787109 -78.84375 16.8984375 C-72.00674384 2.80946237 -60.93611295 -5.13073105 -46.59375 -10.31640625 C-30.67477621 -14.63642516 -12.64878721 -10.3535112 0 0 Z " transform="translate(386.992 12.45)" class="color041217 svgShape"></path><path fill="#063728" d="M0 0 C0.835811 -0.00524185 1.67162201 -0.0104837 2.53276062 -0.0158844 C4.29518528 -0.02228485 6.05765278 -0.02099329 7.82006836 -0.01245117 C10.49346506 -0.0039642 13.16470584 -0.03269105 15.83789062 -0.06445312 C33.361436 -0.13767385 33.361436 -0.13767385 39.19921875 4.43359375 C39.85921875 5.42359375 40.51921875 6.41359375 41.19921875 7.43359375 C41.85921875 5.78359375 42.51921875 4.13359375 43.19921875 2.43359375 C47.84895729 2.88146699 49.56949343 4.45544972 52.51171875 7.99609375 C53.20910156 8.82238281 53.90648437 9.64867187 54.625 10.5 C55.14449219 11.13808594 55.66398437 11.77617187 56.19921875 12.43359375 C56.85921875 11.77359375 57.51921875 11.11359375 58.19921875 10.43359375 C61.21887977 9.98388252 64.2749236 10.10957828 67.32421875 10.12109375 C68.154375 10.10498047 68.98453125 10.08886719 69.83984375 10.07226562 C78.54462615 10.0654437 85.0159075 12.34942667 91.3671875 18.375 C97.67056617 25.45790098 99.03489502 32.43383437 98.67578125 41.80859375 C97.58776351 50.08466309 93.79831734 55.9071719 87.27734375 61.02734375 C79.57178698 66.24163029 71.34797001 66.45778119 62.19921875 65.43359375 C55.08648678 63.22936117 50.64184906 58.19044267 46.19921875 52.43359375 C45.9259375 53.00980469 45.65265625 53.58601563 45.37109375 54.1796875 C44.20160607 56.42900215 42.92558846 58.43631987 41.44921875 60.49609375 C40.98 61.16769531 40.51078125 61.83929688 40.02734375 62.53125 C36.48881166 66.21344044 32.68528861 67.59289746 27.66601562 67.83764648 C25.91683785 67.86402573 24.16733592 67.87295267 22.41796875 67.8671875 C21.02040344 67.87505028 21.02040344 67.87505028 19.59460449 67.8830719 C17.63127638 67.88947477 15.66790982 67.88817765 13.70458984 67.87963867 C10.70861307 67.87112046 7.71453911 67.89992745 4.71875 67.93164062 C2.80599015 67.93325268 0.89322694 67.93267502 -1.01953125 67.9296875 C-2.35570496 67.94653847 -2.35570496 67.94653847 -3.71887207 67.96372986 C-9.24783421 67.90206229 -12.41323619 67.11345659 -16.80078125 63.43359375 C-22.14653522 57.64236029 -23.11055031 52.6047464 -23.1015625 44.87890625 C-23.10584763 44.059133 -23.11013275 43.23935974 -23.11454773 42.39474487 C-23.12027554 40.66502808 -23.12080273 38.93528721 -23.11645508 37.20556641 C-23.11329987 34.57412108 -23.13675628 31.94380614 -23.16210938 29.3125 C-23.16438317 27.62630349 -23.16508549 25.94010398 -23.1640625 24.25390625 C-23.17327225 23.47451691 -23.18248199 22.69512756 -23.19197083 21.89212036 C-23.13766025 15.40391647 -21.75750068 10.76050334 -17.48828125 5.68359375 C-11.80889991 0.92876286 -7.15464603 -0.02645684 0 0 Z " transform="translate(400.8 168.566)" class="color063728 svgShape"></path><path fill="#01192e" d="M0 0 C19.07799966 15.20962363 31.50785273 35.77832905 35 60 C37.00451012 86.82857584 31.91496277 111.28642929 14.32421875 132.2734375 C-1.10620964 149.94744304 -22.21397032 162.44696166 -45.96044922 164.22119141 C-73.51253084 165.23907211 -97.54684294 159.47996939 -118.375 140.5625 C-135.2388869 124.68462864 -146.47071126 103.35361125 -147.3359375 79.93359375 C-147.71309108 52.66601474 -141.1882267 29.34528403 -122.15112305 9.12597656 C-89.79891626 -24.08394771 -37.05158028 -27.66729114 0 0 Z M-117.40234375 16.5234375 C-127.05331093 27.77465052 -133.00347092 39.84175358 -137 54 C-137.27928345 54.94516479 -137.27928345 54.94516479 -137.56420898 55.90942383 C-138.96713056 60.96156339 -139.35066615 65.70546572 -139.3125 70.9375 C-139.30686035 71.76088867 -139.3012207 72.58427734 -139.29541016 73.43261719 C-138.82157521 97.91252549 -129.8925481 118.95930913 -112.44873047 136.15014648 C-106.83022224 141.43855414 -100.81102669 145.35387974 -94 149 C-93.319375 149.40476562 -92.63875 149.80953125 -91.9375 150.2265625 C-75.48890768 159.51434523 -52.97368303 160.16149221 -35 156 C-29.82629627 154.39515048 -24.9175475 152.25750245 -20 150 C-19.0203125 149.55785156 -18.040625 149.11570312 -17.03125 148.66015625 C-9.18263387 144.76967842 -3.11373642 139.1479511 3 133 C3.82886719 132.17113281 4.65773437 131.34226562 5.51171875 130.48828125 C20.84261409 114.324468 27.61371694 92.84643584 27.41723633 70.85717773 C26.90809444 55.86399319 22.53588615 42.87303174 15 30 C14.47792969 29.10023438 13.95585937 28.20046875 13.41796875 27.2734375 C5.15179678 14.42424866 -6.31050055 4.55060833 -20 -2 C-20.99644531 -2.48984375 -21.99289063 -2.9796875 -23.01953125 -3.484375 C-55.31188562 -18.18236762 -93.29384098 -8.80029061 -117.40234375 16.5234375 Z " transform="translate(147 126)" class="color01192E svgShape"></path><path fill="#38484d" d="M0 0 C0.84067647 -0.00295142 1.68135294 -0.00590285 2.54750445 -0.00894371 C5.38932758 -0.01766636 8.23111015 -0.01921822 11.07294559 -0.02082157 C13.12113402 -0.0255504 15.1693215 -0.03070102 17.2175079 -0.03623921 C22.8655441 -0.05017372 28.51357384 -0.05773694 34.16162288 -0.0642122 C39.00132616 -0.07057519 43.84101878 -0.08064645 48.68071543 -0.09077286 C64.62925435 -0.12412767 80.57779889 -0.14566541 96.52636036 -0.16397271 C100.67842629 -0.16874051 104.83049191 -0.1737492 108.98255754 -0.17877793 C134.75669469 -0.20982674 160.53083442 -0.23644422 186.30498505 -0.25319672 C192.27752976 -0.25713395 198.25007443 -0.26114579 204.22261906 -0.2652216 C204.96463295 -0.26572326 205.70664684 -0.26622493 206.47114601 -0.2667418 C230.52117124 -0.2831546 254.57109464 -0.3216031 278.62106978 -0.3725087 C303.34664577 -0.42474886 328.07216754 -0.45751406 352.79779984 -0.46477425 C356.29139161 -0.46580282 359.78498328 -0.46703914 363.27857494 -0.46839428 C363.96613531 -0.46865232 364.65369567 -0.46891035 365.36209119 -0.46917621 C376.41998301 -0.47386825 387.4777405 -0.49879112 398.53558207 -0.53114571 C409.65574573 -0.56320759 420.77579182 -0.5726476 431.89600479 -0.56071376 C437.91879105 -0.55488399 443.94115665 -0.55877412 449.96387959 -0.5888834 C455.48073309 -0.61623847 460.99686691 -0.61575199 466.51373637 -0.59337295 C468.50645523 -0.59014957 470.49922222 -0.59702086 472.49186104 -0.61517017 C485.64901406 -0.72771475 495.56420996 0.40119725 505.8869257 9.4523077 C511.71415485 15.84804701 513.98644751 23.72487665 514.06392765 32.20255184 C514.07676289 33.42805248 514.08959812 34.65355312 514.1028223 35.91619015 C514.11099423 37.25244393 514.11843709 38.58870233 514.12520695 39.92496395 C514.12928247 40.60261744 514.133358 41.28027092 514.13755703 41.97845936 C514.15839102 45.57024355 514.17270028 49.16198991 514.18209171 52.75382137 C514.19310866 56.4365137 514.22746032 60.11859388 514.26726341 63.80107117 C514.29360844 66.65553953 514.30179955 69.50986649 514.30537319 72.36444569 C514.31252313 74.37331843 514.33888936 76.3820938 514.36576176 78.39079952 C514.33730227 90.52693428 511.74749111 99.22473969 503.2697382 108.0382452 C496.8461682 113.70362333 490.15242533 115.28931595 481.77385139 115.2796154 C480.93317492 115.28256683 480.09249845 115.28551825 479.22634694 115.28855911 C476.38452381 115.29728176 473.54274124 115.29883363 470.7009058 115.30043697 C468.65271738 115.3051658 466.60452989 115.31031642 464.5563435 115.31585461 C458.90830729 115.32978912 453.26027755 115.33735234 447.61222851 115.34382761 C442.77252523 115.35019059 437.93283261 115.36026186 433.09313596 115.37038826 C417.14459704 115.40374307 401.1960525 115.42528081 385.24749103 115.44358811 C381.0954251 115.44835591 376.94335948 115.4533646 372.79129386 115.45839334 C347.01715671 115.48944214 321.24301697 115.51605962 295.46886635 115.53281212 C289.49632163 115.53674935 283.52377696 115.54076119 277.55123234 115.544837 C276.80921844 115.54533867 276.06720455 115.54584033 275.30270539 115.5463572 C251.25268016 115.56277 227.20275676 115.6012185 203.15278161 115.6521241 C178.42720562 115.70436426 153.70168385 115.73712946 128.97605156 115.74438965 C125.48245978 115.74541822 121.98886811 115.74665454 118.49527645 115.74800968 C117.80771609 115.74826772 117.12015573 115.74852576 116.4117602 115.74879161 C105.35386839 115.75348365 94.2961109 115.77840653 83.23826933 115.81076111 C72.11810567 115.84282299 60.99805957 115.852263 49.87784661 115.84032916 C43.85506034 115.8344994 37.83269475 115.83838952 31.80997181 115.8684988 C26.2931183 115.89585387 20.77698449 115.89536739 15.26011502 115.87298835 C13.26739616 115.86976497 11.27462917 115.87663626 9.28199036 115.89478558 C-3.87516267 116.00733016 -13.79035856 114.87841816 -24.1130743 105.8273077 C-29.94030345 99.43156839 -32.21259611 91.55473875 -32.29007626 83.07706356 C-32.30291149 81.85156292 -32.31574673 80.62606228 -32.32897091 79.36342525 C-32.33714284 78.02717148 -32.3445857 76.69091307 -32.35135555 75.35465145 C-32.35543108 74.67699797 -32.35950661 73.99934448 -32.36370564 73.30115604 C-32.38453962 69.70937186 -32.39884889 66.11762549 -32.40824032 62.52579403 C-32.41925726 58.8431017 -32.45360892 55.16102152 -32.49341202 51.47854424 C-32.51975705 48.62407587 -32.52794815 45.76974892 -32.5315218 42.91516972 C-32.53867174 40.90629697 -32.56503797 38.8975216 -32.59191036 36.88881588 C-32.56345087 24.75268113 -29.97363972 16.05487571 -21.4958868 7.2413702 C-15.07231681 1.57599208 -8.37857393 -0.00970055 0 0 Z M-19.4255743 10.2023077 C-20.22608212 10.89453426 -21.02658993 11.58676083 -21.85135555 12.29996395 C-28.49111569 20.63693393 -28.71406545 29.69922169 -28.6443243 39.9835577 C-28.64702651 41.40262778 -28.65091495 42.82169603 -28.65592098 44.24075985 C-28.66178196 47.1993151 -28.65336463 50.15738374 -28.63455868 53.11588192 C-28.61177022 56.88157304 -28.62491186 60.64612332 -28.64884853 64.41177273 C-28.66339973 67.33746373 -28.65865835 70.26289048 -28.64833736 73.18859005 C-28.64569569 74.57586971 -28.64884822 75.96317448 -28.65825558 77.35042477 C-28.71217983 87.53357427 -27.91483858 96.22193956 -20.8630743 104.0148077 C-13.69161895 110.55394118 -6.43256282 112.29212134 3.05334091 112.27402878 C3.88762815 112.27638101 4.72191538 112.27873324 5.58148405 112.28115675 C8.39552504 112.28784865 11.20951987 112.28738847 14.02356815 112.28697872 C16.05413344 112.29027722 18.08469806 112.29400276 20.11526185 112.2981202 C25.7098258 112.30814978 31.30437903 112.31185853 36.8989507 112.31450951 C42.92706168 112.31840967 48.95516414 112.32798815 54.98326969 112.33672237 C68.85912308 112.35555939 82.73497566 112.36574361 96.61083814 112.37418305 C103.46728832 112.37838947 110.32373762 112.38361145 117.18018706 112.38886758 C140.64905463 112.40675728 164.11792244 112.42175366 187.58679581 112.42918777 C189.06015723 112.42966253 190.53351865 112.43013842 192.00688006 112.43061544 C193.10286404 112.43097 193.10286404 112.43097 194.22098911 112.43133173 C197.92286707 112.43253293 201.62474502 112.43374838 205.32662296 112.43497372 C206.42859657 112.43533394 206.42859657 112.43533394 207.55283227 112.43570144 C231.37460794 112.44359526 255.19633384 112.46702903 279.01808778 112.49952966 C304.20191488 112.53382589 329.38571285 112.55353869 354.56956369 112.55683202 C357.33406088 112.55724956 360.09855805 112.55772912 362.86305523 112.5582552 C363.54375561 112.55837839 364.22445599 112.55850158 364.92578365 112.5586285 C375.88096612 112.56096072 386.83609079 112.57662177 397.79125265 112.59709704 C408.80257396 112.61735081 419.81383524 112.62250096 430.82517316 112.61332641 C436.790797 112.60877264 442.75623307 112.61073064 448.72183132 112.63008785 C454.18284816 112.647655 459.64353935 112.64677414 465.10455934 112.63119056 C467.08036466 112.6288047 469.05619215 112.63318848 471.03196349 112.64501921 C473.71880598 112.66011148 476.40449065 112.65048427 479.09130478 112.63479233 C480.24053846 112.65012564 480.24053846 112.65012564 481.41298899 112.66576871 C489.75949846 112.55946011 497.00098569 109.03024436 502.95578861 103.24893856 C510.28378317 95.24551944 510.62542134 86.47554328 510.51583195 76.0773077 C510.51666285 74.63581825 510.51913055 73.19432892 510.52314091 71.75284481 C510.52598273 68.74709859 510.51145877 65.74210418 510.48384953 62.73648739 C510.44976827 58.91023032 510.45579976 55.08531548 510.4745121 51.2589941 C510.48515021 48.28695413 510.47608319 45.31521908 510.46112728 42.34320736 C510.45599473 40.93360968 510.45636644 39.52397948 510.46267223 38.11438656 C510.49130867 27.87016398 509.73148452 19.10807792 502.6369257 11.2648077 C495.47071279 4.73045442 488.21578348 2.98677115 478.73612785 3.00837994 C477.90352899 3.0063273 477.07093013 3.00427467 476.213101 3.00215983 C473.40480168 2.9964758 470.59655119 2.99794882 467.78824711 2.99936581 C465.76180677 2.99678298 463.73536693 2.99377005 461.70892781 2.99036241 C456.12576387 2.98227951 450.54261278 2.98050212 444.95944369 2.97976494 C438.94360389 2.97791662 432.92777079 2.97037041 426.91193485 2.96362972 C413.06434024 2.94932769 399.21674741 2.94351865 385.36914722 2.93893778 C378.52664931 2.93660214 371.68415223 2.93299953 364.84165498 2.9292424 C341.42050665 2.91640661 317.99935879 2.90568745 294.57820702 2.9022398 C293.10784318 2.90201817 291.63747935 2.90179638 290.16711552 2.90157445 C288.69319342 2.90135381 287.21927133 2.90113332 285.74534923 2.900913 C282.78839099 2.90047045 279.83143276 2.90002333 276.87447453 2.89957333 C276.1413203 2.89946394 275.40816607 2.89935454 274.65279505 2.89924184 C250.87953096 2.8956111 227.10629737 2.87969056 203.33304496 2.85638296 C178.20044654 2.83178769 153.06786556 2.8180671 127.93525475 2.81687188 C125.17637455 2.81670043 122.41749436 2.816485 119.65861416 2.81623745 C118.97929693 2.81618168 118.2999797 2.81612591 117.6000771 2.81606845 C106.66722281 2.81491774 95.73439981 2.80389402 84.80155608 2.78935039 C73.81264434 2.77498495 62.82376741 2.77200121 51.83484802 2.77979037 C45.88140751 2.78370256 39.92807228 2.78273944 33.97464466 2.76873302 C28.52477614 2.75602843 23.0750924 2.75716142 17.62522426 2.76932374 C15.65345878 2.7712867 13.68168036 2.76817475 11.70993308 2.75947937 C9.02870776 2.74840368 6.34813651 2.75586379 3.66692924 2.7678709 C2.52010208 2.75647811 2.52010208 2.75647811 1.35010669 2.74485517 C-6.52404457 2.82091942 -13.50306375 4.86138575 -19.4255743 10.2023077 Z " transform="translate(374.113 144.86)" class="color38484D svgShape"></path><path fill="#ea1319" d="M0 0 C5.72858491 5.54379185 11.57298662 11.35947993 16 18 C16 18.99 16 19.98 16 21 C15.34 21 14.68 21 14 21 C12.7109375 19.5390625 12.7109375 19.5390625 11.375 17.625 C10.92898438 16.99851563 10.48296875 16.37203125 10.0234375 15.7265625 C9 14 9 14 9 12 C8.34 12 7.68 12 7 12 C7.39574219 12.53367188 7.79148437 13.06734375 8.19921875 13.6171875 C12.10853134 19.54785069 12.10853134 19.54785069 11.8046875 23.61328125 C10.64232923 27.64482914 9.19436747 30.71677883 6.8125 34.1875 C4.53506722 37.72144742 4.53236061 39.86918542 5 44 C5.66 44.99 6.32 45.98 7 47 C10.60992379 46.34414811 10.60992379 46.34414811 14 45 C13.58833383 41.33752797 13.58833383 41.33752797 11.375 38.5625 C10.92125 38.046875 10.4675 37.53125 10 37 C10.1875 34.25 10.1875 34.25 11 31 C11.226875 29.7625 11.45375 28.525 11.6875 27.25 C13 24 13 24 16.0625 22.6875 C17.031875 22.460625 18.00125 22.23375 19 22 C19.33 21.34 19.66 20.68 20 20 C20.99 20 21.98 20 23 20 C22.51515724 15.35413108 22.51515724 15.35413108 21 11 C24.18419421 12.37154686 25.97112596 13.86169983 28.125 16.5625 C30.20903634 19.21025666 30.20903634 19.21025666 33 21 C35.52721378 21.27309514 38.05411125 21.44557177 40.58984375 21.62109375 C43 22 43 22 46 24 C43.25971649 19.25720161 41.19329895 16.86174868 36 15 C34.48247301 14.82304456 32.9608685 14.67890357 31.4375 14.5625 C27.19043012 14.22645238 25.10629235 13.01216228 22 10 C21.34 9.67 20.68 9.34 20 9 C20 8.34 20 7.68 20 7 C25.07676768 4.46161616 32.95198537 5.34222832 38.25 7.0625 C45.49942039 10.31795697 50.90928336 15.8349996 54.1484375 23.0625 C56.38326961 30.77164562 56.30316472 39.12967329 53 46.5 C49.23833641 52.86833751 43.63129595 58.3054574 36.4609375 60.55859375 C28.02834255 62.07110681 19.28662931 62.49776987 11.93359375 57.6328125 C7.61617147 53.98698924 1.39995462 48.45489686 0.7253418 42.62744141 C0.69709797 39.6262047 0.67828197 36.62638927 0.6875 33.625 C0.67138672 32.5834375 0.65527344 31.541875 0.63867188 30.46875 C0.63286976 21.39423894 0.63286976 21.39423894 4 17 C3.82799025 13.73181473 2.78017565 11.50759345 1.4375 8.5 C0.10908922 5.26560853 -0.3108251 3.41907614 0 0 Z " transform="translate(444 173)" class="color13EA6B svgShape"></path><path fill="#fbfcfe" d="M0 0 C2.64 0 5.28 0 8 0 C8 2.97 8 5.94 8 9 C9.546875 8.9071875 9.546875 8.9071875 11.125 8.8125 C15.2935939 9.01420616 17.49372177 9.79838344 21 12 C23.67927341 16.01891012 23.15601248 18.24161923 23 23 C19.7 23 16.4 23 13 23 C12.34 21.68 11.68 20.36 11 19 C10.01 18.67 9.02 18.34 8 18 C8 22.29 8 26.58 8 31 C9.36125 31.391875 10.7225 31.78375 12.125 32.1875 C17.24120302 33.89558668 21.26398961 36.12250333 24.140625 40.890625 C26.0688419 45.62352103 25.58046539 51.09823025 23.9375 55.875 C21.43267185 59.9150454 19.53449894 60.7152253 15 62 C11.0625 62.1875 11.0625 62.1875 8 62 C8 65.3 8 68.6 8 72 C5.36 72 2.72 72 0 72 C0 68.7 0 65.4 0 62 C-1.19625 62.0825 -2.3925 62.165 -3.625 62.25 C-8.13355702 62.23404051 -10.57091806 61.03035148 -14 58 C-16.68443011 53.88387383 -17.34865757 50.881206 -17 46 C-13.37 46 -9.74 46 -6 46 C-5.7525 46.969375 -5.505 47.93875 -5.25 48.9375 C-4.8375 49.948125 -4.425 50.95875 -4 52 C-2.68 52.33 -1.36 52.66 0 53 C0 48.05 0 43.1 0 38 C-1.36125 37.608125 -2.7225 37.21625 -4.125 36.8125 C-8.73666766 35.27770209 -11.56866308 33.43133692 -15 30 C-16.67017822 24.98946534 -17.25815752 18.9866543 -15.1640625 14.015625 C-11.88612769 9.57171337 -8.15198746 8.83096572 -3 8 C-2.01 8 -1.02 8 0 8 C0 5.36 0 2.72 0 0 Z " transform="translate(87 165)" class="colorFBFCFE svgShape"></path><path fill="#43030e" d="M0 0 C0.835811 -0.00524185 1.67162201 -0.0104837 2.53276062 -0.0158844 C4.29518528 -0.02228485 6.05765278 -0.02099329 7.82006836 -0.01245117 C10.49346506 -0.0039642 13.16470584 -0.03269105 15.83789062 -0.06445312 C33.361436 -0.13767385 33.361436 -0.13767385 39.19921875 4.43359375 C39.85921875 5.42359375 40.51921875 6.41359375 41.19921875 7.43359375 C41.85921875 5.78359375 42.51921875 4.13359375 43.19921875 2.43359375 C47.84895729 2.88146699 49.56949343 4.45544972 52.51171875 7.99609375 C53.20910156 8.82238281 53.90648437 9.64867187 54.625 10.5 C55.14449219 11.13808594 55.66398437 11.77617187 56.19921875 12.43359375 C56.85921875 11.77359375 57.51921875 11.11359375 58.19921875 10.43359375 C61.82421875 10.30859375 61.82421875 10.30859375 65.19921875 10.43359375 C64.53921875 10.76359375 63.87921875 11.09359375 63.19921875 11.43359375 C63.19921875 12.09359375 63.19921875 12.75359375 63.19921875 13.43359375 C64.37484375 13.86671875 64.37484375 13.86671875 65.57421875 14.30859375 C68.19921875 15.43359375 68.19921875 15.43359375 70.19921875 17.43359375 C72.12547156 17.7920987 74.06653856 18.07354115 76.01171875 18.30859375 C80.78653796 19.04626043 83.93486764 19.62518412 87.19921875 23.43359375 C87.89952251 25.08640858 88.57106556 26.75203323 89.19921875 28.43359375 C87.13436651 28.20382981 85.07230757 27.94888598 83.01171875 27.68359375 C81.86316406 27.544375 80.71460938 27.40515625 79.53125 27.26171875 C73.29490322 25.7117709 70.03273323 21.2528691 66.19921875 16.43359375 C66.19921875 16.76359375 66.19921875 17.09359375 66.19921875 17.43359375 C66.19921875 19.76692708 66.19921875 22.10026042 66.19921875 24.43359375 C65.20921875 24.43359375 64.21921875 24.43359375 63.19921875 24.43359375 C62.70421875 25.91859375 62.70421875 25.91859375 62.19921875 27.43359375 C60.74515625 27.77390625 60.74515625 27.77390625 59.26171875 28.12109375 C56.15372997 29.0653354 56.15372997 29.0653354 55.32421875 31.16015625 C54.26420193 35.09105196 53.74987712 38.53152014 55.19921875 42.43359375 C55.73546875 42.92859375 56.27171875 43.42359375 56.82421875 43.93359375 C58.19921875 45.43359375 58.19921875 45.43359375 58.13671875 47.99609375 C57.19921875 50.43359375 57.19921875 50.43359375 55.38671875 51.80859375 C52.82048529 52.54180331 51.64054688 52.49150261 49.19921875 51.43359375 C46.66159016 47.62715087 46.67979316 45.96001678 47.19921875 41.43359375 C48.3221376 39.346384 49.61366516 37.43754578 50.9375 35.47265625 C53.05882206 32.04438964 53.7498971 29.47748859 54.19921875 25.43359375 C53.16262674 22.78221018 51.81837866 20.81471126 50.19921875 18.43359375 C50.19921875 17.77359375 50.19921875 17.11359375 50.19921875 16.43359375 C50.85921875 16.43359375 51.51921875 16.43359375 52.19921875 16.43359375 C53.48828125 17.89453125 53.48828125 17.89453125 54.82421875 19.80859375 C55.27023437 20.43507812 55.71625 21.0615625 56.17578125 21.70703125 C57.19921875 23.43359375 57.19921875 23.43359375 57.19921875 25.43359375 C57.85921875 25.43359375 58.51921875 25.43359375 59.19921875 25.43359375 C56.47001256 20.28059254 53.46935719 16.20088422 49.44921875 11.99609375 C48.94261719 11.45533203 48.43601562 10.91457031 47.9140625 10.35742188 C46.68181176 9.04379609 45.44137456 7.73785735 44.19921875 6.43359375 C44.69358431 9.91838626 45.1583337 12.35654116 46.82421875 15.49609375 C48.38247691 18.82509983 48.39751831 20.02304885 47.19921875 23.43359375 C46.20921875 24.91859375 46.20921875 24.91859375 45.19921875 26.43359375 C44.92352538 28.90244471 44.92352538 28.90244471 45.00390625 31.65234375 C45.01035156 32.66683594 45.01679688 33.68132812 45.0234375 34.7265625 C45.04019531 35.78488281 45.05695313 36.84320313 45.07421875 37.93359375 C45.08324219 38.99191406 45.09226562 40.05023438 45.1015625 41.140625 C45.1190219 43.10356096 45.1405784 45.06646762 45.16748047 47.02929688 C45.24990588 53.27333867 43.64523818 57.82818862 39.82421875 62.74609375 C35.36774945 67.30866947 31.35594005 67.66986933 25.23060608 67.76278687 C23.88669044 67.76612534 23.88669044 67.76612534 22.515625 67.76953125 C21.58249985 67.77618805 20.64937469 67.78284485 19.68797302 67.78970337 C17.71867844 67.79980754 15.74934977 67.80452108 13.7800293 67.80419922 C10.77530317 67.80857397 7.77204478 67.84492143 4.76757812 67.8828125 C2.85026542 67.88868089 0.93294576 67.89265014 -0.984375 67.89453125 C-2.32525429 67.9160878 -2.32525429 67.9160878 -3.69322205 67.93807983 C-9.23798535 67.89766963 -12.40222401 67.12972465 -16.80078125 63.43359375 C-22.14653522 57.64236029 -23.11055031 52.6047464 -23.1015625 44.87890625 C-23.10584763 44.059133 -23.11013275 43.23935974 -23.11454773 42.39474487 C-23.12027554 40.66502808 -23.12080273 38.93528721 -23.11645508 37.20556641 C-23.11329987 34.57412108 -23.13675628 31.94380614 -23.16210938 29.3125 C-23.16438317 27.62630349 -23.16508549 25.94010398 -23.1640625 24.25390625 C-23.17327225 23.47451691 -23.18248199 22.69512756 -23.19197083 21.89212036 C-23.13766025 15.40391647 -21.75750068 10.76050334 -17.48828125 5.68359375 C-11.80889991 0.92876286 -7.15464603 -0.02645684 0 0 Z M-17.85641479 10.59936523 C-19.74916528 14.27562554 -19.48996796 18.16476589 -19.4296875 22.21484375 C-19.43209946 23.14655396 -19.43451141 24.07826416 -19.43699646 25.03820801 C-19.43602007 27.00158967 -19.42267632 28.96499956 -19.39770508 30.92822266 C-19.36338588 33.92445898 -19.3770597 36.91774502 -19.39648438 39.9140625 C-19.38958553 41.8268354 -19.37991279 43.73960073 -19.3671875 45.65234375 C-19.37214737 46.54312622 -19.37710724 47.43390869 -19.38221741 48.35168457 C-19.2789525 53.83611831 -18.57267007 57.16630836 -14.80078125 61.43359375 C-10.40626238 65.19585066 -5.84899006 64.88570356 -0.3359375 64.8671875 C1.03045616 64.87505028 1.03045616 64.87505028 2.42445374 64.8830719 C4.34667951 64.88948141 6.26894457 64.88816898 8.19116211 64.87963867 C11.12359858 64.87113181 14.05408407 64.89989946 16.98632812 64.93164062 C18.85807234 64.93325295 20.72981998 64.93267452 22.6015625 64.9296875 C23.90963112 64.94653847 23.90963112 64.94653847 25.24412537 64.96372986 C30.69466947 64.9016984 33.95437131 64.17622035 38.19921875 60.43359375 C41.98896624 56.02000092 41.68238326 51.33211804 41.703125 45.78515625 C41.7131102 44.85440277 41.7230954 43.92364929 41.73338318 42.96469116 C41.7485406 40.99961784 41.75560971 39.03446765 41.75512695 37.06933594 C41.76168312 34.07486739 41.81617297 31.08372525 41.87304688 28.08984375 C41.881851 26.17579253 41.88780384 24.26172564 41.890625 22.34765625 C41.91218155 21.45889801 41.9337381 20.57013977 41.95594788 19.65444946 C41.89428599 14.01445581 40.83421223 10.81108936 36.80932617 6.77528381 C32.20828086 2.94126833 27.36732775 3.12614074 21.609375 3.1328125 C20.37615761 3.12638481 20.37615761 3.12638481 19.11802673 3.11982727 C17.38411375 3.11410003 15.65017675 3.11357184 13.91625977 3.11791992 C11.2738315 3.12107927 8.63252437 3.09760366 5.99023438 3.07226562 C4.30078265 3.06999229 2.61132794 3.0692893 0.921875 3.0703125 C0.13732437 3.06110275 -0.64722626 3.05189301 -1.45555115 3.04240417 C-8.35925465 3.10018689 -13.4656845 4.8781805 -17.85641479 10.59936523 Z " transform="translate(400.8 168.566)" class="color03431F svgShape"></path><path fill="#f2f3f3" d="M0 0 C21.51515152 0 21.51515152 0 26.5625 4.0625 C28.53408081 8.09138253 28.85496937 11.59361942 28 16 C26 18.5625 26 18.5625 24 20 C24.61875 20.2475 25.2375 20.495 25.875 20.75 C28.44128738 22.25958081 28.89574927 23.2732756 30 26 C30.69134 30.49370999 30.59535784 33.96363635 28.3125 37.9375 C20.17583567 45.19452495 11.20055049 42 0 42 C0 28.14 0 14.28 0 0 Z " transform="translate(566 183)" class="colorF2F3F3 svgShape"></path><path fill="#f8fafd" d="M0 0 C13.8681861 3.81877588 24.04313424 11.37964319 31.3125 23.8125 C37.75976861 35.4456151 40.17807115 47.96178698 37.3125 61.1875 C36.91097366 62.47015358 36.46870948 63.74034329 36 65 C35.67 65.93328125 35.34 66.8665625 35 67.828125 C29.87976152 81.23506523 21.38480808 90.49916056 8.6875 97 C8.07640381 97.31533691 7.46530762 97.63067383 6.83569336 97.95556641 C2.37577266 100.12525755 2.37577266 100.12525755 -1 99 C-1 96.36 -1 93.72 -1 91 C-0.154375 90.5875 0.69125 90.175 1.5625 89.75 C14.5631445 83.13149007 21.8921551 75.69155856 26.8125 61.6875 C29.8947419 50.04347504 28.33441685 39.10232937 22.71484375 28.59765625 C17.63297928 20.31662361 10.88656382 14.18354975 1.75 10.7890625 C0 10 0 10 -1 8 C-1.125 4.4375 -1.125 4.4375 -1 1 C-0.67 0.67 -0.34 0.34 0 0 Z " transform="translate(105 150)" class="colorF8FAFD svgShape"></path><path fill="#f7fafd" d="M0 0 C0 2.64 0 5.28 0 8 C-0.76183594 8.32871094 -1.52367187 8.65742188 -2.30859375 8.99609375 C-15.70838184 15.16902984 -22.5505683 23.57104331 -28 37 C-31.00707677 48.40920304 -29.05698686 59.52755632 -24 70 C-18.34523453 79.4573497 -9.88806384 85.50542553 0 90 C0 92.64 0 95.28 0 98 C-9.24459621 97.58912906 -17.51753708 92.22559426 -24.16015625 86.03125 C-35.48210246 73.53143677 -39.88942247 58.58282883 -39.17919922 42.12402344 C-38.75116017 37.05053613 -37.08342204 32.60170164 -35 28 C-34.57589844 27.05511719 -34.15179688 26.11023438 -33.71484375 25.13671875 C-28.90798889 15.45606118 -12.66686906 -4.69143298 0 0 Z " transform="translate(78 151)" class="colorF7FAFD svgShape"></path><path fill="#2493f7" d="M0 0 C4.20899382 2.80599588 7.20749459 5.73421161 8.625 10.75 C8.686875 11.45125 8.74875 12.1525 8.8125 12.875 C10.4625 12.875 12.1125 12.875 13.8125 12.875 C13.8125 14.195 13.8125 15.515 13.8125 16.875 C12.1625 16.875 10.5125 16.875 8.8125 16.875 C8.77125 17.720625 8.73 18.56625 8.6875 19.4375 C7.32763293 24.77983493 4.14199886 28.46504016 -0.5625 31.3125 C-5.58182481 32.3880696 -9.57862181 32.44283936 -14.375 30.75 C-17.77507895 28.4832807 -19.87470863 26.24506743 -22.1875 22.875 C-22.5175 20.895 -22.8475 18.915 -23.1875 16.875 C-27.4775 16.875 -31.7675 16.875 -36.1875 16.875 C-36.1875 15.555 -36.1875 14.235 -36.1875 12.875 C-31.8975 12.875 -27.6075 12.875 -23.1875 12.875 C-22.8575 11.225 -22.5275 9.575 -22.1875 7.875 C-19.98585259 4.39834791 -17.33391449 1.56888245 -13.8125 -0.5625 C-8.79317519 -1.6380696 -4.79637819 -1.69283936 0 0 Z " transform="translate(373.188 347.125)" class="color2493F7 svgShape"></path><path fill="#2492f7" d="M0 0 C3.88446678 2.58964452 6.69907021 5.64814041 8.8125 9.875 C11.16849235 10.34251788 11.16849235 10.34251788 13.875 10.5 C15.25365234 10.61214844 15.25365234 10.61214844 16.66015625 10.7265625 C17.37042969 10.77554688 18.08070313 10.82453125 18.8125 10.875 C18.8125 12.195 18.8125 13.515 18.8125 14.875 C15.5125 14.875 12.2125 14.875 8.8125 14.875 C8.895 15.74125 8.9775 16.6075 9.0625 17.5 C8.66935726 22.80742698 6.1164638 25.69825218 2.25 29.1875 C-2.00992647 32.13667987 -6.14300565 32.39287585 -11.1875 31.875 C-16.86257225 29.87203332 -20.49425089 26.26149821 -23.1875 20.875 C-23.227492 18.87539988 -23.23096799 16.87452758 -23.1875 14.875 C-25.1675 14.875 -27.1475 14.875 -29.1875 14.875 C-29.1875 13.555 -29.1875 12.235 -29.1875 10.875 C-28.28 10.83375 -27.3725 10.7925 -26.4375 10.75 C-22.08823368 9.57904368 -21.47914525 7.64512606 -19.1875 3.875 C-13.37010796 -1.37484159 -7.3959011 -2.61031804 0 0 Z " transform="translate(213.188 39.125)" class="color2492F7 svgShape"></path><path fill="#eff0f1" d="M0 0 C1.98 0 3.96 0 6 0 C6.74515899 3.38636309 7.16770563 6.61943103 7.31640625 10.08203125 C7.35451416 10.9222583 7.39262207 11.76248535 7.43188477 12.62817383 C7.47498779 13.67900146 7.51809082 14.7298291 7.5625 15.8125 C7.706875 19.174375 7.85125 22.53625 8 26 C9.32 17.42 10.64 8.84 12 0 C15.3 0 18.6 0 22 0 C23.485 10.395 23.485 10.395 25 21 C25.99 14.07 26.98 7.14 28 0 C29.98 0 31.96 0 34 0 C34.31136661 8.63069326 33.12280723 17.02935342 32 25.5625 C31.80677362 27.06308442 31.61406104 28.5637351 31.421875 30.06445312 C30.95383915 33.71041848 30.47885227 37.35543756 30 41 C23.84765625 41.09765625 23.84765625 41.09765625 22 41 C20.28262445 39.28262445 20.54477474 36.92267824 20.28125 34.57421875 C20.15363281 33.46755859 20.02601563 32.36089844 19.89453125 31.22070312 C19.76433594 30.05474609 19.63414062 28.88878906 19.5 27.6875 C19.24194216 25.39947231 18.98161771 23.11169883 18.71875 20.82421875 C18.60466797 19.80416748 18.49058594 18.78411621 18.37304688 17.7331543 C18.05708739 15.41825477 17.62518753 13.24752234 17 11 C15.46804427 17.77971897 14.48910128 24.56674448 13.69775391 31.46484375 C13.31917203 34.70937775 12.91046254 37.85769567 12 41 C9.36 41 6.72 41 4 41 C1.81596736 27.31888988 0.43138538 13.84895821 0 0 Z " transform="translate(707 184)" class="colorEFF0F1 svgShape"></path><path fill="#f2f2f3" d="M0 0 C1.98 0 3.96 0 6 0 C6.99 6.6 7.98 13.2 9 20 C9.99 13.4 10.98 6.8 12 0 C15.3 0 18.6 0 22 0 C22.19916016 1.68029297 22.19916016 1.68029297 22.40234375 3.39453125 C22.58056569 4.86720729 22.75896011 6.33986247 22.9375 7.8125 C23.02451172 8.55048828 23.11152344 9.28847656 23.20117188 10.04882812 C23.58216546 13.16733121 24.00369374 16.01108122 25 19 C25.99 12.73 26.98 6.46 28 0 C29.98 0 31.96 0 34 0 C34.37184775 8.66353622 33.21222459 17.07230808 32 25.625 C31.80667574 27.02465465 31.61396298 28.4243939 31.421875 29.82421875 C30.95495283 33.21714894 30.4797995 36.6088639 30 40 C27.36 40 24.72 40 22 40 C20.22594584 34.46912527 19.42522197 29.14782065 18.875 23.375 C18.78863281 22.54226562 18.70226562 21.70953125 18.61328125 20.8515625 C18.2155325 16.88670194 17.8859884 12.99040589 18 9 C17.34 9 16.68 9 16 9 C15.95101562 9.76441406 15.90203125 10.52882812 15.8515625 11.31640625 C14.33942161 32.98173516 14.33942161 32.98173516 12 40 C9.36 40 6.72 40 4 40 C1.88870568 26.65502647 0.44762433 13.50590643 0 0 Z " transform="translate(527 184)" class="colorF2F2F3 svgShape"></path><path fill="#2493f7" d="M0 0 C3.88446678 2.58964452 6.69907021 5.64814041 8.8125 9.875 C9.3363576 15.13075165 9.47755372 19.52026095 7.125 24.3125 C2.78052544 29.12664749 -0.40798604 31.69273679 -7 32.125 C-11.72062813 32.03854161 -15.23661551 30.85224779 -18.6328125 27.41015625 C-23.00254185 22.30381538 -23.53746875 19.20794904 -23.46875 12.63671875 C-22.94669674 7.51044581 -20.31186465 4.88967054 -16.625 1.5625 C-11.43239458 -2.03238068 -5.78482046 -2.04170134 0 0 Z " transform="translate(523.188 347.125)" class="color2493F7 svgShape"></path><path fill="#aec2b8" d="M0 0 C6.14551539 5.8374069 10.63967973 11.77199842 14.0078125 19.55078125 C14.51441406 20.66259766 14.51441406 20.66259766 15.03125 21.796875 C18.80031995 31.77280786 18.80031995 46.32875464 15.03125 56.3046875 C14.69351563 57.04589844 14.35578125 57.78710938 14.0078125 58.55078125 C13.43933594 59.86369141 13.43933594 59.86369141 12.859375 61.203125 C6.02236884 75.29210013 -5.04826205 83.23229355 -19.390625 88.41796875 C-33.32274332 92.19880383 -47.51542185 89.03531383 -60 82.46875 C-69.18108458 76.5837467 -75.68784804 68.49175572 -79.9921875 58.55078125 C-80.32992188 57.80957031 -80.66765625 57.06835938 -81.015625 56.3046875 C-84.78469495 46.32875464 -84.78469495 31.77280786 -81.015625 21.796875 C-80.67789062 21.05566406 -80.34015625 20.31445312 -79.9921875 19.55078125 C-79.42371094 18.23787109 -79.42371094 18.23787109 -78.84375 16.8984375 C-72.00674384 2.80946237 -60.93611295 -5.13073105 -46.59375 -10.31640625 C-30.67477621 -14.63642516 -12.64878721 -10.3535112 0 0 Z M-55.9921875 -3.44921875 C-57.19875 -2.78019531 -57.19875 -2.78019531 -58.4296875 -2.09765625 C-69.4743736 4.58139379 -76.64064568 15.22174776 -80.3671875 27.48828125 C-82.11169872 36.03282599 -81.58913437 45.25249126 -78.9921875 53.55078125 C-78.62480469 54.74960938 -78.62480469 54.74960938 -78.25 55.97265625 C-73.91916004 68.31363383 -64.85243777 76.8262274 -53.46484375 82.8984375 C-43.04691794 87.73471255 -30.30964615 88.28662011 -19.171875 85.64453125 C-6.63285509 81.02021185 3.51460321 73.60354041 9.8203125 61.61328125 C10.57926667 59.93896681 11.30961041 58.25132649 12.0078125 56.55078125 C12.3275 55.79410156 12.6471875 55.03742188 12.9765625 54.2578125 C16.7496907 43.82930538 16.31348112 31.62933114 12.328125 21.359375 C6.16289266 8.24457604 -2.70037951 -0.57086986 -15.9921875 -6.44921875 C-28.61499852 -10.93424684 -44.44605292 -10.26865449 -55.9921875 -3.44921875 Z " transform="translate(386.992 12.45)" class="colorAEC2B8 svgShape"></path><path fill="#e5122a" d="M0 0 C3.1618916 1.35995337 4.85608546 2.77859373 6.9375 5.5 C10.28214782 9.54040162 12.9208631 10.70892083 18.125 11.4375 C21.34402178 12.06730861 21.97586894 12.53584045 24 15 C24.886875 15.763125 25.77375 16.52625 26.6875 17.3125 C29 20 29 20 29.3125 23.3125 C29.209375 24.199375 29.10625 25.08625 29 26 C28.01 26.495 28.01 26.495 27 27 C26.61199219 26.37609375 26.22398437 25.7521875 25.82421875 25.109375 C23.60764835 22.54631715 22.05887601 22.09321455 18.8125 21.25 C17.91144531 21.00765625 17.01039063 20.7653125 16.08203125 20.515625 C15.39496094 20.34546875 14.70789063 20.1753125 14 20 C14.33 20.33 14.66 20.66 15 21 C15.375 23.3125 15.375 23.3125 15 26 C11.64354991 29.55388833 8.81279961 30.55229771 4 31 C4.94875 31.474375 5.8975 31.94875 6.875 32.4375 C9.95225457 34.43336086 10.6153103 36.2029194 11.375 39.75 C11.60744655 41.16291041 11.82388919 42.57896791 12 44 C11.34 44 10.68 44 10 44 C9.4225 42.865625 8.845 41.73125 8.25 40.5625 C6.64507365 37.62689703 6.64507365 37.62689703 3.75 36.0625 C3.1725 36.041875 2.595 36.02125 2 36 C2 37.32 2 38.64 2 40 C3.32 39.34 4.64 38.68 6 38 C5.67 39.32 5.34 40.64 5 42 C1.14369327 41.46440184 -1.02085954 40.48261705 -4 38 C-4.99 37.34 -5.98 36.68 -7 36 C-6.67 35.34 -6.34 34.68 -6 34 C-6.84487395 31.25415966 -7.47655493 29.44589766 -9.6875 27.5625 C-11 26 -11 26 -10.8125 23.25 C-10.544375 22.1775 -10.27625 21.105 -10 20 C-9.773125 18.7625 -9.54625 17.525 -9.3125 16.25 C-8 13 -8 13 -4.9375 11.6875 C-3.968125 11.460625 -2.99875 11.23375 -2 11 C-1.67 10.34 -1.34 9.68 -1 9 C-0.01 9 0.98 9 2 9 C1.51515724 4.35413108 1.51515724 4.35413108 0 0 Z " transform="translate(465 184)" class="color12E569 svgShape"></path><path fill="#f6f7f7" d="M0 0 C2.64 0 5.28 0 8 0 C8 5.28 8 10.56 8 16 C12.62 16 17.24 16 22 16 C22 10.72 22 5.44 22 0 C24.31 0 26.62 0 29 0 C29 13.2 29 26.4 29 40 C26.69 40 24.38 40 22 40 C22 34.39 22 28.78 22 23 C17.38 23 12.76 23 8 23 C8 28.94 8 34.88 8 41 C5.36 41 2.72 41 0 41 C0 27.47 0 13.94 0 0 Z " transform="translate(817 184)" class="colorF6F7F7 svgShape"></path><path fill="#f2f3f3" d="M0 0 C3.24624919 1.24086699 5.40942268 2.81884535 7 6 C7.039992 7.99960012 7.04346799 10.00047242 7 12 C4.69 12 2.38 12 0 12 C-0.33 10.68 -0.66 9.36 -1 8 C-2.62463842 7.94604522 -4.24978541 7.90722805 -5.875 7.875 C-6.77992188 7.85179687 -7.68484375 7.82859375 -8.6171875 7.8046875 C-11.18806994 7.75675164 -11.18806994 7.75675164 -13 10 C-13.93926542 14.18454785 -14.18935669 18.28209286 -14.25 22.5625 C-14.27578125 23.65691406 -14.3015625 24.75132812 -14.328125 25.87890625 C-13.95571371 29.42124697 -13.28909473 31.27321024 -11 34 C-8.72668201 34.60169446 -8.72668201 34.60169446 -6.3125 34.3125 C-5.50425781 34.26738281 -4.69601562 34.22226563 -3.86328125 34.17578125 C-3.24839844 34.11777344 -2.63351562 34.05976563 -2 34 C-1.34 32.68 -0.68 31.36 0 30 C2.64 30 5.28 30 8 30 C7.83469543 34.21526647 7.35493247 36.5233764 4.8125 39.9375 C-0.15126729 43.59691968 -7.19376647 42.79175912 -13 42 C-16.23742626 40.7503996 -18.34711487 39.85712995 -20.4609375 37.08203125 C-23.98964065 28.32059308 -24.77775667 17.35027048 -21.8125 8.25 C-16.78696071 -0.76131183 -9.43871636 -0.85910646 0 0 Z " transform="translate(660 183)" class="colorF2F3F3 svgShape"></path><path fill="#ffffff" d="M0 0 C2.43766721 1.45482644 3.97442682 2.92619889 6 5 C6 5.99 6 6.98 6 8 C37.02 8 68.04 8 100 8 C100 8.99 100 9.98 100 11 C68.98 11 37.96 11 6 11 C5.67 12.32 5.34 13.64 5 15 C2.41016453 17.66383077 0.72863936 18.86047331 -2.9375 19.5625 C-7.25784252 18.7689677 -8.9375016 17.13541503 -12 14 C-12 13.01 -12 12.02 -12 11 C-17.94 11 -23.88 11 -30 11 C-30 10.01 -30 9.02 -30 8 C-24.06 8 -18.12 8 -12 8 C-11.67 6.68 -11.34 5.36 -11 4 C-7.48402612 0.38356973 -5.03009591 -0.92389517 0 0 Z " transform="translate(738 330)" class="colorFFF svgShape"></path><path fill="#ffffff" d="M0 0 C2.43766721 1.45482644 3.97442682 2.92619889 6 5 C6 5.99 6 6.98 6 8 C7.98 8 9.96 8 12 8 C12 8.99 12 9.98 12 11 C10.02 11 8.04 11 6 11 C5.9071875 11.86625 5.9071875 11.86625 5.8125 12.75 C4.6282104 16.02957119 2.93012878 17.17680876 0 19 C-3.11152007 19.59582299 -4.96041318 19.62043678 -7.71484375 17.9765625 C-9.375 16.6875 -9.375 16.6875 -12 14 C-12 13.01 -12 12.02 -12 11 C-46.98 11 -81.96 11 -118 11 C-118 10.01 -118 9.02 -118 8 C-83.02 8 -48.04 8 -12 8 C-11.67 6.68 -11.34 5.36 -11 4 C-7.48402612 0.38356973 -5.03009591 -0.92389517 0 0 Z " transform="translate(826 292)" class="colorFFF svgShape"></path><path fill="#ffffff" d="M0 0 C2.43766721 1.45482644 3.97442682 2.92619889 6 5 C6 5.99 6 6.98 6 8 C18.54 8 31.08 8 44 8 C44 8.99 44 9.98 44 11 C31.46 11 18.92 11 6 11 C5.67 12.32 5.34 13.64 5 15 C3.33447375 17.28815288 2.463863 17.91404208 -0.33984375 18.43359375 C-7.3567548 18.4441455 -7.3567548 18.4441455 -10.625 16.1875 C-12 14 -12 14 -12 11 C-36.42 11 -60.84 11 -86 11 C-86 10.01 -86 9.02 -86 8 C-61.58 8 -37.16 8 -12 8 C-11.67 6.68 -11.34 5.36 -11 4 C-7.48402612 0.38356973 -5.03009591 -0.92389517 0 0 Z " transform="translate(794 368)" class="colorFFF svgShape"></path><path fill="#efeff0" d="M0 0 C3.64051176 0.81120099 5.09653944 2.45526886 7.15625 5.48046875 C7.96875 9.29296875 7.96875 9.29296875 8.15625 12.48046875 C8.58035156 11.68640625 9.00445312 10.89234375 9.44140625 10.07421875 C11.19777016 7.0169875 12.90913389 4.20043362 15.15625 1.48046875 C19.09375 0.79296875 19.09375 0.79296875 22.15625 1.48046875 C20.50628006 6.42067288 17.6912425 10.4036662 14.78125 14.66796875 C11.41175417 19.61619377 8.0775844 24.5635603 4.94140625 29.6640625 C4.42175293 30.49204346 3.90209961 31.32002441 3.36669922 32.1730957 C2.36832796 33.76764088 1.38866294 35.37408643 0.43017578 36.99291992 C-0.88359199 39.06021975 -2.04590871 40.81582243 -3.84375 42.48046875 C-7.69921875 42.97265625 -7.69921875 42.97265625 -10.84375 42.48046875 C-9.57379382 39.05500315 -8.1100078 36.14446652 -6.05859375 33.125 C-5.52814453 32.33802734 -4.99769531 31.55105469 -4.45117188 30.74023438 C-3.90009766 29.93263672 -3.34902344 29.12503906 -2.78125 28.29296875 C-1.68527644 26.67510301 -0.59018074 25.05664214 0.50390625 23.4375 C0.98867432 22.7256958 1.47344238 22.0138916 1.97290039 21.28051758 C3.20040903 19.49018248 3.20040903 19.49018248 4.15625 17.48046875 C3.49625 17.81046875 2.83625 18.14046875 2.15625 18.48046875 C-2.64015449 19.06539613 -6.52711661 19.483618 -10.46875 16.48046875 C-12.23430695 12.6283445 -12.78293754 9.63972787 -11.84375 5.48046875 C-8.69025092 0.59763146 -5.54911362 -0.34219534 0 0 Z " transform="translate(347.844 31.52)" class="colorEFEFF0 svgShape"></path><path fill="#ffffff" d="M0 0 C8.25 0 16.5 0 25 0 C25 1.98 25 3.96 25 6 C19.06 6 13.12 6 7 6 C7 9.3 7 12.6 7 16 C11.95 16 16.9 16 22 16 C22 17.98 22 19.96 22 22 C17.05 22 12.1 22 7 22 C7 25.96 7 29.92 7 34 C13.27 34 19.54 34 26 34 C26 35.98 26 37.96 26 40 C17.42 40 8.84 40 0 40 C0 26.8 0 13.6 0 0 Z " transform="translate(748 184)" class="colorFFF svgShape"></path><path fill="#f24d64" d="M0 0 C3.8688358 1.28961193 4.19502904 2.61079519 6.13671875 6.12890625 C6.71357422 7.16337891 7.29042969 8.19785156 7.88476562 9.26367188 C8.47966797 10.35228516 9.07457031 11.44089844 9.6875 12.5625 C10.29400391 13.65498047 10.90050781 14.74746094 11.52539062 15.87304688 C13.02527302 18.57755922 14.51634906 21.28655955 16 24 C13.18306739 26.87678825 10.47446118 29.21952375 7.0625 31.375 C6.22847656 31.91898438 5.39445312 32.46296875 4.53515625 33.0234375 C2 34 2 34 -0.453125 33.390625 C-3.32106894 31.82469242 -6.07321408 30.15718602 -8.8125 28.375 C-9.78832031 27.74335938 -10.76414062 27.11171875 -11.76953125 26.4609375 C-12.50558594 25.97882813 -13.24164063 25.49671875 -14 25 C-9.85499402 16.28606697 -5.16853067 8.13322085 0 0 Z " transform="translate(411 179)" class="color4DF290 svgShape"></path><path fill="#d8122e" d="M0 0 C4.64973854 0.44787324 6.37027468 2.02185597 9.3125 5.5625 C10.00988281 6.38878906 10.70726562 7.21507812 11.42578125 8.06640625 C11.94527344 8.70449219 12.46476562 9.34257812 13 10 C13.66 9.34 14.32 8.68 15 8 C18.625 7.875 18.625 7.875 22 8 C21.01 8.495 21.01 8.495 20 9 C20 9.66 20 10.32 20 11 C20.78375 11.28875 21.5675 11.5775 22.375 11.875 C25 13 25 13 27 15 C28.92625281 15.35850495 30.86731981 15.6399474 32.8125 15.875 C37.58731921 16.61266668 40.73564889 17.19159037 44 21 C44.70030376 22.65281483 45.37184681 24.31843948 46 26 C43.93514776 25.77023606 41.87308882 25.51529223 39.8125 25.25 C38.66394531 25.11078125 37.51539063 24.9715625 36.33203125 24.828125 C30.09568447 23.27817715 26.83351448 18.81927535 23 14 C23 14.33 23 14.66 23 15 C23 17.33333333 23 19.66666667 23 22 C22.01 22 21.02 22 20 22 C19.67 22.99 19.34 23.98 19 25 C17.5459375 25.3403125 17.5459375 25.3403125 16.0625 25.6875 C12.95451122 26.63174165 12.95451122 26.63174165 12.125 28.7265625 C11.06498318 32.65745821 10.55065837 36.09792639 12 40 C12.53625 40.495 13.0725 40.99 13.625 41.5 C15 43 15 43 14.9375 45.5625 C14 48 14 48 12.1875 49.375 C9.62126654 50.10820956 8.44132813 50.05790886 6 49 C3.46237141 45.19355712 3.48057441 43.52642303 4 39 C5.12291885 36.91279025 6.41444641 35.00395203 7.73828125 33.0390625 C9.85960331 29.61079589 10.55067835 27.04389484 11 23 C9.96340799 20.34861643 8.61915991 18.38111751 7 16 C7 15.34 7 14.68 7 14 C7.66 14 8.32 14 9 14 C10.2890625 15.4609375 10.2890625 15.4609375 11.625 17.375 C12.07101562 18.00148437 12.51703125 18.62796875 12.9765625 19.2734375 C14 21 14 21 14 23 C14.66 23 15.32 23 16 23 C13.27079381 17.84699879 10.27013844 13.76729047 6.25 9.5625 C5.74339844 9.02173828 5.23679687 8.48097656 4.71484375 7.92382812 C3.48259301 6.61020234 2.24215581 5.3042636 1 4 C0.01 4.495 0.01 4.495 -1 5 C-0.67 3.35 -0.34 1.7 0 0 Z " transform="translate(444 171)" class="color12D864 svgShape"></path><path fill="#f4f5f5" d="M0 0 C9.9 0 19.8 0 30 0 C30 1.98 30 3.96 30 6 C26.37 6 22.74 6 19 6 C19 17.55 19 29.1 19 41 C16.36 41 13.72 41 11 41 C11 29.45 11 17.9 11 6 C7.37 6 3.74 6 0 6 C0 4.02 0 2.04 0 0 Z " transform="translate(601 184)" class="colorF4F5F5 svgShape"></path><path fill="#f5f6f6" d="M0 0 C9.57 0 19.14 0 29 0 C29 1.98 29 3.96 29 6 C25.7 6 22.4 6 19 6 C19 17.55 19 29.1 19 41 C16.36 41 13.72 41 11 41 C11 29.45 11 17.9 11 6 C7.37 6 3.74 6 0 6 C0 4.02 0 2.04 0 0 Z " transform="translate(781 184)" class="colorF5F6F6 svgShape"></path><path fill="#f6f6f7" d="M0 0 C1.134375 0.020625 2.26875 0.04125 3.4375 0.0625 C1.34990749 6.56897184 -1.01346929 12.92930213 -3.5390625 19.27734375 C-3.90977875 20.21429581 -4.280495 21.15124786 -4.66244507 22.11659241 C-5.43951539 24.0792372 -6.21773907 26.04142571 -6.99707031 28.00317383 C-8.19336344 31.01476081 -9.38603643 34.02776218 -10.578125 37.04101562 C-11.33572883 38.95320769 -12.09353407 40.86531997 -12.8515625 42.77734375 C-13.2088443 43.6793602 -13.5661261 44.58137665 -13.93423462 45.51072693 C-14.2648288 46.34241898 -14.59542297 47.17411102 -14.93603516 48.03100586 C-15.2267691 48.76330917 -15.51750305 49.49561249 -15.81704712 50.25010681 C-16.5625 52.0625 -16.5625 52.0625 -17.5625 54.0625 C-19.8725 54.0625 -22.1825 54.0625 -24.5625 54.0625 C-22.59601883 47.11834523 -20.25836202 40.4166292 -17.5859375 33.71484375 C-17.21522125 32.77693497 -16.844505 31.83902618 -16.46255493 30.87269592 C-15.68632484 28.91149815 -14.90809375 26.95109125 -14.12792969 24.99145508 C-12.92904701 21.9787583 -11.73752071 18.96322596 -10.546875 15.94726562 C-9.78949105 14.03628843 -9.03169369 12.12547502 -8.2734375 10.21484375 C-7.9161557 9.31080307 -7.5588739 8.40676239 -7.19076538 7.47532654 C-6.8601712 6.64678665 -6.52957703 5.81824677 -6.18896484 4.96459961 C-5.8982309 4.23309189 -5.60749695 3.50158417 -5.30795288 2.74790955 C-3.93317603 -0.36035135 -3.78458324 0.0663962 0 0 Z " transform="translate(698.563 177.938)" class="colorF6F6F7 svgShape"></path><path fill="#d3dfd9" d="M0 0 C6.27 0 12.54 0 19 0 C19 5.94 19 11.88 19 18 C12.73 18 6.46 18 0 18 C0 12.06 0 6.12 0 0 Z " transform="translate(707 89)" class="colorD3DFD9 svgShape"></path><path fill="#d4dfd9" d="M0 0 C5.94 0 11.88 0 18 0 C18 6.27 18 12.54 18 19 C12.06 19 6.12 19 0 19 C0 12.73 0 6.46 0 0 Z " transform="translate(792 60)" class="colorD4DFD9 svgShape"></path><path fill="#d4dfd9" d="M0 0 C5.94 0 11.88 0 18 0 C18 6.27 18 12.54 18 19 C12.06 19 6.12 19 0 19 C0 12.73 0 6.46 0 0 Z " transform="translate(736 60)" class="colorD4DFD9 svgShape"></path><path fill="#d3dfd9" d="M0 0 C6.27 0 12.54 0 19 0 C19 5.94 19 11.88 19 18 C12.73 18 6.46 18 0 18 C0 12.06 0 6.12 0 0 Z " transform="translate(707 32)" class="colorD3DFD9 svgShape"></path><path fill="#d3dfd9" d="M0 0 C5.94 0 11.88 0 18 0 C18 5.94 18 11.88 18 18 C12.06 18 6.12 18 0 18 C0 12.06 0 6.12 0 0 Z " transform="translate(820 89)" class="colorD3DFD9 svgShape"></path><path fill="#d3dfd9" d="M0 0 C5.94 0 11.88 0 18 0 C18 5.94 18 11.88 18 18 C12.06 18 6.12 18 0 18 C0 12.06 0 6.12 0 0 Z " transform="translate(764 89)" class="colorD3DFD9 svgShape"></path><path fill="#d3dfd9" d="M0 0 C5.94 0 11.88 0 18 0 C18 5.94 18 11.88 18 18 C12.06 18 6.12 18 0 18 C0 12.06 0 6.12 0 0 Z " transform="translate(820 32)" class="colorD3DFD9 svgShape"></path><path fill="#d3dfd9" d="M0 0 C5.94 0 11.88 0 18 0 C18 5.94 18 11.88 18 18 C12.06 18 6.12 18 0 18 C0 12.06 0 6.12 0 0 Z " transform="translate(764 32)" class="colorD3DFD9 svgShape"></path><path fill="#475a60" d="M0 0 C1.32 0 2.64 0 4 0 C4 3.3 4 6.6 4 10 C7.3 10 10.6 10 14 10 C6.88973384 24.63878327 6.88973384 24.63878327 3 30 C2.34 30 1.68 30 1 30 C-0.23681641 28.27172852 -0.23681641 28.27172852 -1.6015625 25.87890625 C-2.09140625 25.02619141 -2.58125 24.17347656 -3.0859375 23.29492188 C-3.59382812 22.39322266 -4.10171875 21.49152344 -4.625 20.5625 C-5.140625 19.66466797 -5.65625 18.76683594 -6.1875 17.84179688 C-10 11.1598359 -10 11.1598359 -10 10 C-6.7 10 -3.4 10 0 10 C0 6.7 0 3.4 0 0 Z " transform="translate(614 110)" class="color475A60 svgShape"></path><path fill="#f4f4f4" d="M0 0 C3.0625 2.0625 3.0625 2.0625 5 5 C5.56691566 8.9684096 5.351387 11.23029514 3.6875 14.875 C2 17 2 17 -1 18 C-7.86648501 18.4359673 -7.86648501 18.4359673 -11.4375 17.0625 C-13.97020319 13.71933178 -14.2025529 10.12339825 -14 6 C-11.11958487 -0.583806 -6.66975975 -1.00046396 0 0 Z " transform="translate(367 56)" class="colorF4F4F4 svgShape"></path><path fill="#f2f3f3" d="M0 0 C2.82594555 0.60664305 4.18489856 1.36767176 6.18359375 3.46875 C6.71484375 6.28125 6.71484375 6.28125 6.68359375 9.46875 C6.69390625 10.520625 6.70421875 11.5725 6.71484375 12.65625 C6.18359375 15.46875 6.18359375 15.46875 4.46484375 17.3125 C0.46241204 19.34112977 -3.45259555 19.22263092 -7.81640625 18.46875 C-10.6063402 16.34308604 -11.50822355 14.95281426 -12.21875 11.53125 C-12.52116289 7.6367621 -12.03526558 5.80762896 -9.87890625 2.46875 C-6.28789187 0.12359775 -4.18506279 -0.05802513 0 0 Z " transform="translate(347.816 31.531)" class="colorF2F3F3 svgShape"></path><path fill="#d5dfda" d="M0 0 C0.79792969 0.00386719 1.59585938 0.00773437 2.41796875 0.01171875 C3.21589844 0.00785156 4.01382813 0.00398438 4.8359375 0 C10.79136108 0.01011108 10.79136108 0.01011108 11.91796875 1.13671875 C12.0178385 3.98006923 12.05674756 6.79369038 12.04296875 9.63671875 C12.04876953 10.83361328 12.04876953 10.83361328 12.0546875 12.0546875 C12.04457642 18.01011108 12.04457642 18.01011108 10.91796875 19.13671875 C8.07461827 19.2365885 5.26099712 19.27549756 2.41796875 19.26171875 C1.62003906 19.26558594 0.82210937 19.26945312 0 19.2734375 C-5.95542358 19.26332642 -5.95542358 19.26332642 -7.08203125 18.13671875 C-7.181901 15.29336827 -7.22081006 12.47974712 -7.20703125 9.63671875 C-7.21089844 8.83878906 -7.21476563 8.04085937 -7.21875 7.21875 C-7.20677063 0.16289829 -7.05585171 0.01197937 0 0 Z M-2.08203125 5.13671875 C-2.08203125 8.10671875 -2.08203125 11.07671875 -2.08203125 14.13671875 C0.88796875 14.13671875 3.85796875 14.13671875 6.91796875 14.13671875 C6.91796875 11.16671875 6.91796875 8.19671875 6.91796875 5.13671875 C3.94796875 5.13671875 0.97796875 5.13671875 -2.08203125 5.13671875 Z " transform="translate(714.082 59.863)" class="colorD5DFDA svgShape"></path><path fill="#d4dfda" d="M0 0 C5.94 0 11.88 0 18 0 C18 6.27 18 12.54 18 19 C12.06 19 6.12 19 0 19 C0 12.73 0 6.46 0 0 Z M5 5 C5 7.97 5 10.94 5 14 C7.64 14 10.28 14 13 14 C13 11.03 13 8.06 13 5 C10.36 5 7.72 5 5 5 Z " transform="translate(820 60)" class="colorD4DFDA svgShape"></path><path fill="#d5dfda" d="M0 0 C5.94 0 11.88 0 18 0 C18 6.27 18 12.54 18 19 C12.06 19 6.12 19 0 19 C0 12.73 0 6.46 0 0 Z M5 5 C5 7.97 5 10.94 5 14 C7.64 14 10.28 14 13 14 C13 11.03 13 8.06 13 5 C10.36 5 7.72 5 5 5 Z " transform="translate(764 60)" class="colorD5DFDA svgShape"></path><path fill="#475b60" d="M0 0 C0.66 0 1.32 0 2 0 C3.23681641 1.72827148 3.23681641 1.72827148 4.6015625 4.12109375 C5.09140625 4.97380859 5.58125 5.82652344 6.0859375 6.70507812 C6.59382813 7.60677734 7.10171875 8.50847656 7.625 9.4375 C8.140625 10.33533203 8.65625 11.23316406 9.1875 12.15820312 C13 18.8401641 13 18.8401641 13 20 C5.08 20 -2.84 20 -11 20 C-5.22413793 8.44827586 -5.22413793 8.44827586 -2.8125 4.375 C-2.07966797 3.11816406 -2.07966797 3.11816406 -1.33203125 1.8359375 C-0.89246094 1.23007812 -0.45289062 0.62421875 0 0 Z " transform="translate(90 293)" class="color475B60 svgShape"></path><path fill="#d3dfd9" d="M0 0 C5.94 0 11.88 0 18 0 C18 5.94 18 11.88 18 18 C12.06 18 6.12 18 0 18 C0 12.06 0 6.12 0 0 Z M5 4 C5 6.97 5 9.94 5 13 C7.64 13 10.28 13 13 13 C13 10.03 13 7.06 13 4 C10.36 4 7.72 4 5 4 Z " transform="translate(792 89)" class="colorD3DFD9 svgShape"></path><path fill="#d3dfd9" d="M0 0 C5.94 0 11.88 0 18 0 C18 5.94 18 11.88 18 18 C12.06 18 6.12 18 0 18 C0 12.06 0 6.12 0 0 Z M5 5 C5 7.97 5 10.94 5 14 C7.64 14 10.28 14 13 14 C13 11.03 13 8.06 13 5 C10.36 5 7.72 5 5 5 Z " transform="translate(792 32)" class="colorD3DFD9 svgShape"></path><path fill="#d3dfd9" d="M0 0 C5.94 0 11.88 0 18 0 C18 5.94 18 11.88 18 18 C12.06 18 6.12 18 0 18 C0 12.06 0 6.12 0 0 Z M4 4 C4 6.97 4 9.94 4 13 C6.97 13 9.94 13 13 13 C13 10.03 13 7.06 13 4 C10.03 4 7.06 4 4 4 Z " transform="translate(736 89)" class="colorD3DFD9 svgShape"></path><path fill="#d3dfd9" d="M0 0 C5.94 0 11.88 0 18 0 C18 5.94 18 11.88 18 18 C12.06 18 6.12 18 0 18 C0 12.06 0 6.12 0 0 Z M4 5 C4 7.97 4 10.94 4 14 C6.97 14 9.94 14 13 14 C13 11.03 13 8.06 13 5 C10.03 5 7.06 5 4 5 Z " transform="translate(736 32)" class="colorD3DFD9 svgShape"></path><path fill="#031919" d="M0 0 C6.178894 4.8642357 11.62537212 10.43309829 16 17 C16 18.32 16 19.64 16 21 C14.576875 21.2475 14.576875 21.2475 13.125 21.5 C9.96801039 22.62491205 9.96801039 22.62491205 9.12109375 24.73828125 C8.06356686 28.6651818 7.55237178 32.1025394 9 36 C9.53625 36.495 10.0725 36.99 10.625 37.5 C12 39 12 39 11.9375 41.5625 C11 44 11 44 9.1875 45.375 C6.62126654 46.10820956 5.44132813 46.05790886 3 45 C0.46237141 41.19355712 0.48057441 39.52642303 1 35 C2.12291885 32.91279025 3.41444641 31.00395203 4.73828125 29.0390625 C6.85960331 25.61079589 7.55067835 23.04389484 8 19 C6.96340799 16.34861643 5.61915991 14.38111751 4 12 C4 11.34 4 10.68 4 10 C4.66 10 5.32 10 6 10 C7.2890625 11.4609375 7.2890625 11.4609375 8.625 13.375 C9.07101562 14.00148437 9.51703125 14.62796875 9.9765625 15.2734375 C11 17 11 17 11 19 C11.66 19 12.32 19 13 19 C10.09123613 13.18247226 6.30072618 8.84737774 1.828125 4.13671875 C0 2 0 2 0 0 Z " transform="translate(447 175)" class="color031919 svgShape"></path><path fill="#091920" d="M0 0 C1.95803507 -0.05389087 3.91648909 -0.09274217 5.875 -0.125 C7.51082031 -0.15980469 7.51082031 -0.15980469 9.1796875 -0.1953125 C12 0 12 0 14 2 C14.55335479 7.20153503 14.55335479 7.20153503 12.8359375 9.6796875 C9.18712662 12.30372596 4.29402433 11.1515538 0 11 C0 7.37 0 3.74 0 0 Z " transform="translate(574 207)" class="color091920 svgShape"></path><path fill="#f2a2ab" d="M0 0 C2.96315275 0.47410444 4.91300102 1.5661836 7.375 3.1875 C10.24822328 4.88559342 10.70906305 5.05134182 14.1875 4.4375 C16.99319217 3.11198419 16.99319217 3.11198419 19.1875 1.3125 C19.785625 0.879375 20.38375 0.44625 21 0 C21.99 0.33 22.98 0.66 24 1 C22.43159952 3.17899914 20.84706156 5.34217244 19.25 7.5 C18.8065625 8.12003906 18.363125 8.74007812 17.90625 9.37890625 C16.578125 11.15625 16.578125 11.15625 14 14 C12.68 14 11.36 14 10 14 C8.05972115 11.88627198 6.41541086 9.87422583 4.75 7.5625 C4.29109375 6.95083984 3.8321875 6.33917969 3.359375 5.70898438 C0 1.18482608 0 1.18482608 0 0 Z " transform="translate(400 211)" class="colorA2F2C3 svgShape"></path><path fill="#031d1a" d="M0 0 C2.23442825 0.54122146 4.46244736 1.10894058 6.6875 1.6875 C7.92886719 2.00074219 9.17023438 2.31398437 10.44921875 2.63671875 C14.4012514 4.15405582 16.35948549 5.71936076 19 9 C19.3125 12.3125 19.3125 12.3125 19 15 C18.01 15.495 18.01 15.495 17 16 C16.63003906 15.40445313 16.26007813 14.80890625 15.87890625 14.1953125 C13.52595707 11.44612864 11.20906063 10.39351296 7.9375 8.875 C2.18223235 6.18223235 2.18223235 6.18223235 0 4 C0 2.68 0 1.36 0 0 Z " transform="translate(475 195)" class="color031D1A svgShape"></path><path fill="#0a1b21" d="M0 0 C1.60875 -0.04125 3.2175 -0.0825 4.875 -0.125 C5.77992188 -0.14820313 6.68484375 -0.17140625 7.6171875 -0.1953125 C10 0 10 0 12 2 C12.1875 5.5625 12.1875 5.5625 12 9 C11 10 11 10 8.49609375 10.09765625 C6.98208984 10.08025391 6.98208984 10.08025391 5.4375 10.0625 C4.42558594 10.05347656 3.41367187 10.04445312 2.37109375 10.03515625 C1.58863281 10.02355469 0.80617188 10.01195312 0 10 C0 6.7 0 3.4 0 0 Z " transform="translate(574 190)" class="color0A1B21 svgShape"></path><path fill="#031c1a" d="M0 0 C3.875 1.875 3.875 1.875 5 3 C6.91289178 3.29632219 8.83056514 3.56203716 10.75 3.8125 C15.52992621 4.58455459 18.73173164 5.18702025 22 9 C22.70030376 10.65281483 23.37184681 12.31843948 24 14 C21.93514776 13.77023606 19.87308882 13.51529223 17.8125 13.25 C16.66394531 13.11078125 15.51539063 12.9715625 14.33203125 12.828125 C8.85796081 11.46762918 5.8943672 8.22469842 2.6875 3.75 C2.17574219 3.04359375 1.66398437 2.3371875 1.13671875 1.609375 C0.57404297 0.81273437 0.57404297 0.81273437 0 0 Z " transform="translate(466 183)" class="color031C1A svgShape"></path><path fill="#04211c" d="M0 0 C4.47832188 1.53542464 8.80427026 3.60854052 11 8 C11.41059292 12.61917038 10.83584686 15.29158487 8 19 C7.34 19 6.68 19 6 19 C5.62875 17.205625 5.62875 17.205625 5.25 15.375 C4.4801834 12.21205788 3.74498929 10.61748393 1.875 7.8125 C-0.12178098 4.81732853 -0.41256398 3.50679384 0 0 Z " transform="translate(481 205)" class="color04211C svgShape"></path><path fill="#04291f" d="M0 0 C3.71819473 2.72667613 4.84499731 4.27267969 5.8125 8.8125 C5.874375 9.864375 5.93625 10.91625 6 12 C5.34 12 4.68 12 4 12 C3.4225 10.865625 2.845 9.73125 2.25 8.5625 C0.64507365 5.62689703 0.64507365 5.62689703 -2.25 4.0625 C-3.11625 4.0315625 -3.11625 4.0315625 -4 4 C-4 5.32 -4 6.64 -4 8 C-2.68 7.34 -1.36 6.68 0 6 C-0.33 7.32 -0.66 8.64 -1 10 C-4.85630673 9.46440184 -7.02085954 8.48261705 -10 6 C-10.99 5.34 -11.98 4.68 -13 4 C-5.16961498 -1.01144641 -5.16961498 -1.01144641 0 0 Z " transform="translate(471 216)" class="color04291F svgShape"></path><path fill="#475b60" d="M0 0 C0.55042969 0.26167969 1.10085938 0.52335937 1.66796875 0.79296875 C1.07518557 5.93042294 -2.74037136 9.38856297 -6.45703125 12.66796875 C-8.33203125 13.79296875 -8.33203125 13.79296875 -11.33203125 13.79296875 C-12.125 12.125 -12.125 12.125 -12.33203125 9.79296875 C-10.3828125 7.1796875 -10.3828125 7.1796875 -7.64453125 4.48046875 C-6.75378906 3.57683594 -5.86304688 2.67320312 -4.9453125 1.7421875 C-2.33203125 -0.20703125 -2.33203125 -0.20703125 0 0 Z " transform="translate(609.332 343.207)" class="color475B60 svgShape"></path><path fill="#475b60" d="M0 0 C3.39852547 1.2735527 5.72895221 3.37174528 8.3125 5.875 C9.38951172 6.89207031 9.38951172 6.89207031 10.48828125 7.9296875 C12 10 12 10 11.73046875 12.2578125 C11.36888672 13.12019531 11.36888672 13.12019531 11 14 C5.86254581 13.40721682 2.40440578 9.59165989 -0.875 5.875 C-2 4 -2 4 -2 1 C-1.34 0.67 -0.68 0.34 0 0 Z " transform="translate(98 343)" class="color475B60 svgShape"></path><path fill="#053122" d="M0 0 C6.178894 4.8642357 11.62537212 10.43309829 16 17 C16 18.32 16 19.64 16 21 C14.88625 21.474375 13.7725 21.94875 12.625 22.4375 C10.73289006 23.25306463 8.84287291 24.07856355 7 25 C7.2475 24.154375 7.495 23.30875 7.75 22.4375 C8.09302553 17.72089892 6.50465359 15.94672686 4 12 C4 11.34 4 10.68 4 10 C4.66 10 5.32 10 6 10 C7.2890625 11.4609375 7.2890625 11.4609375 8.625 13.375 C9.07101562 14.00148437 9.51703125 14.62796875 9.9765625 15.2734375 C11 17 11 17 11 19 C11.66 19 12.32 19 13 19 C10.09123613 13.18247226 6.30072618 8.84737774 1.828125 4.13671875 C0 2 0 2 0 0 Z " transform="translate(447 175)" class="color053122 svgShape"></path><path fill="#475b60" d="M0 0 C5.13745419 0.59278318 8.59559422 4.40834011 11.875 8.125 C13 10 13 10 13 13 C11.33203125 13.79296875 11.33203125 13.79296875 9 14 C6.38671875 12.05078125 6.38671875 12.05078125 3.6875 9.3125 C2.78386719 8.42175781 1.88023437 7.53101562 0.94921875 6.61328125 C-1 4 -1 4 -0.79296875 1.66796875 C-0.40044922 0.84232422 -0.40044922 0.84232422 0 0 Z " transform="translate(598 57)" class="color475B60 svgShape"></path><path fill="#475a60" d="M0 0 C0.79296875 1.66796875 0.79296875 1.66796875 1 4 C-0.94921875 6.61328125 -0.94921875 6.61328125 -3.6875 9.3125 C-5.02361328 10.66794922 -5.02361328 10.66794922 -6.38671875 12.05078125 C-9 14 -9 14 -11.33203125 13.79296875 C-11.88246094 13.53128906 -12.43289062 13.26960938 -13 13 C-12.40721682 7.86254581 -8.59165989 4.40440578 -4.875 1.125 C-3 0 -3 0 0 0 Z " transform="translate(106 57)" class="color475A60 svgShape"></path><path fill="#475b60" d="M0 0 C0.5625 1.9375 0.5625 1.9375 1 4 C0 5 0 5 -3.81640625 5.09765625 C-5.39846682 5.09098089 -6.98051159 5.07901875 -8.5625 5.0625 C-9.36880859 5.05798828 -10.17511719 5.05347656 -11.00585938 5.04882812 C-13.00393756 5.03700518 -15.00197783 5.01906914 -17 5 C-17 3.68 -17 2.36 -17 1 C-5.47835991 -0.14806378 -5.47835991 -0.14806378 0 0 Z " transform="translate(584 359)" class="color475B60 svgShape"></path><path fill="#475b60" d="M0 0 C5.94 0 11.88 0 18 0 C18 1.32 18 2.64 18 4 C12.06 4 6.12 4 0 4 C0 2.68 0 1.36 0 0 Z " transform="translate(534 360)" class="color475B60 svgShape"></path><path fill="#475a60" d="M0 0 C5.94 0 11.88 0 18 0 C18 1.32 18 2.64 18 4 C12.06 4 6.12 4 0 4 C0 2.68 0 1.36 0 0 Z " transform="translate(468 360)" class="color475A60 svgShape"></path><path fill="#475a60" d="M0 0 C5.94 0 11.88 0 18 0 C18 1.32 18 2.64 18 4 C12.06 4 6.12 4 0 4 C0 2.68 0 1.36 0 0 Z " transform="translate(435 360)" class="color475A60 svgShape"></path><path fill="#475a60" d="M0 0 C5.94 0 11.88 0 18 0 C18 1.32 18 2.64 18 4 C12.06 4 6.12 4 0 4 C0 2.68 0 1.36 0 0 Z " transform="translate(402 360)" class="color475A60 svgShape"></path><path fill="#475b60" d="M0 0 C5.28 0.33 10.56 0.66 16 1 C16 2.32 16 3.64 16 5 C10.39 5 4.78 5 -1 5 C-0.67 3.35 -0.34 1.7 0 0 Z " transform="translate(123 359)" class="color475B60 svgShape"></path><path fill="#475a60" d="M0 0 C5.61 0 11.22 0 17 0 C16.67 1.65 16.34 3.3 16 5 C10.72 4.67 5.44 4.34 0 4 C0 2.68 0 1.36 0 0 Z " transform="translate(568 50)" class="color475A60 svgShape"></path><path fill="#475a60" d="M0 0 C1.32 0 2.64 0 4 0 C4.33 5.28 4.66 10.56 5 16 C3.68 16.33 2.36 16.66 1 17 C0 16 0 16 -0.09765625 12.40234375 C-0.0909822 10.91403133 -0.07902183 9.42573568 -0.0625 7.9375 C-0.05798828 7.17888672 -0.05347656 6.42027344 -0.04882812 5.63867188 C-0.0370068 3.75908129 -0.01907078 1.87953101 0 0 Z " transform="translate(89 314)" class="color475A60 svgShape"></path><path fill="#465b60" d="M0 0 C1.48831242 0.00667405 2.97660807 0.01863442 4.46484375 0.03515625 C5.22345703 0.03966797 5.98207031 0.04417969 6.76367188 0.04882812 C8.64326246 0.06064945 10.52281274 0.07858547 12.40234375 0.09765625 C12.40234375 1.41765625 12.40234375 2.73765625 12.40234375 4.09765625 C4.48234375 4.59265625 4.48234375 4.59265625 -3.59765625 5.09765625 C-3.92765625 3.77765625 -4.25765625 2.45765625 -4.59765625 1.09765625 C-3.59765625 0.09765625 -3.59765625 0.09765625 0 0 Z " transform="translate(123.598 49.902)" class="color465B60 svgShape"></path><path fill="#475b60" d="M0 0 C5.61 0 11.22 0 17 0 C17 1.32 17 2.64 17 4 C11.39 4 5.78 4 0 4 C0 2.68 0 1.36 0 0 Z " transform="translate(304 360)" class="color475B60 svgShape"></path><path fill="#475a60" d="M0 0 C5.61 0 11.22 0 17 0 C17 1.32 17 2.64 17 4 C11.39 4 5.78 4 0 4 C0 2.68 0 1.36 0 0 Z " transform="translate(271 360)" class="color475A60 svgShape"></path><path fill="#475a60" d="M0 0 C1.32 0 2.64 0 4 0 C4 5.28 4 10.56 4 16 C2.35 15.67 0.7 15.34 -1 15 C-0.67 10.05 -0.34 5.1 0 0 Z " transform="translate(614 315)" class="color475A60 svgShape"></path><path fill="#3c82cf" d="M0 0 C5 2 5 2 6 3 C6.37086093 8.8410596 6.37086093 8.8410596 6 11 C3 13 3 13 0 13 C0 8.71 0 4.42 0 0 Z " transform="translate(95 206)" class="color3C82CF svgShape"></path><path fill="#475b60" d="M0 0 C5.28 0 10.56 0 16 0 C16 1.32 16 2.64 16 4 C10.72 4 5.44 4 0 4 C0 2.68 0 1.36 0 0 Z " transform="translate(212 360)" class="color475B60 svgShape"></path><path fill="#475a60" d="M0 0 C5.28 0 10.56 0 16 0 C16 1.32 16 2.64 16 4 C10.72 4 5.44 4 0 4 C0 2.68 0 1.36 0 0 Z " transform="translate(182 360)" class="color475A60 svgShape"></path><path fill="#475b60" d="M0 0 C5.28 0 10.56 0 16 0 C16 1.32 16 2.64 16 4 C10.72 4 5.44 4 0 4 C0 2.68 0 1.36 0 0 Z " transform="translate(536 50)" class="color475B60 svgShape"></path><path fill="#475b60" d="M0 0 C5.28 0 10.56 0 16 0 C16 1.32 16 2.64 16 4 C10.72 4 5.44 4 0 4 C0 2.68 0 1.36 0 0 Z " transform="translate(504 50)" class="color475B60 svgShape"></path><path fill="#475b60" d="M0 0 C5.28 0 10.56 0 16 0 C16 1.32 16 2.64 16 4 C10.72 4 5.44 4 0 4 C0 2.68 0 1.36 0 0 Z " transform="translate(472 50)" class="color475B60 svgShape"></path><path fill="#475b60" d="M0 0 C5.28 0 10.56 0 16 0 C16 1.32 16 2.64 16 4 C10.72 4 5.44 4 0 4 C0 2.68 0 1.36 0 0 Z " transform="translate(440 50)" class="color475B60 svgShape"></path><path fill="#475b60" d="M0 0 C5.28 0 10.56 0 16 0 C16 1.32 16 2.64 16 4 C10.72 4 5.44 4 0 4 C0 2.68 0 1.36 0 0 Z " transform="translate(408 50)" class="color475B60 svgShape"></path><path fill="#475b60" d="M0 0 C5.28 0 10.56 0 16 0 C16 1.32 16 2.64 16 4 C10.72 4 5.44 4 0 4 C0 2.68 0 1.36 0 0 Z " transform="translate(280 50)" class="color475B60 svgShape"></path><path fill="#475b60" d="M0 0 C5.28 0 10.56 0 16 0 C16 1.32 16 2.64 16 4 C10.72 4 5.44 4 0 4 C0 2.68 0 1.36 0 0 Z " transform="translate(248 50)" class="color475B60 svgShape"></path><path fill="#475b60" d="M0 0 C5.28 0 10.56 0 16 0 C16 1.32 16 2.64 16 4 C10.72 4 5.44 4 0 4 C0 2.68 0 1.36 0 0 Z " transform="translate(152 50)" class="color475B60 svgShape"></path><path fill="#475b60" d="M0 0 C0.66 0.33 1.32 0.66 2 1 C2 5.62 2 10.24 2 15 C0.68 15 -0.64 15 -2 15 C-2.33 10.38 -2.66 5.76 -3 1 C-2.01 0.67 -1.02 0.34 0 0 Z " transform="translate(616 83)" class="color475B60 svgShape"></path><path fill="#475b60" d="M0 0 C4.95 0 9.9 0 15 0 C15 1.32 15 2.64 15 4 C10.05 4 5.1 4 0 4 C0 2.68 0 1.36 0 0 Z " transform="translate(242 360)" class="color475B60 svgShape"></path><path fill="#475b60" d="M0 0 C4.95 0 9.9 0 15 0 C15 1.32 15 2.64 15 4 C10.05 4 5.1 4 0 4 C0 2.68 0 1.36 0 0 Z " transform="translate(153 360)" class="color475B60 svgShape"></path><path fill="#475a60" d="M0 0 C1.32 0 2.64 0 4 0 C4 4.95 4 9.9 4 15 C2.68 15 1.36 15 0 15 C0 10.05 0 5.1 0 0 Z " transform="translate(614 287)" class="color475A60 svgShape"></path><path fill="#475b60" d="M0 0 C4.29 0 8.58 0 13 0 C13 1.32 13 2.64 13 4 C8.71 4 4.42 4 0 4 C0 2.68 0 1.36 0 0 Z " transform="translate(337 360)" class="color475B60 svgShape"></path><path fill="#475b60" d="M0 0 C2.475 0.495 2.475 0.495 5 1 C4.67 4.63 4.34 8.26 4 12 C2.68 12 1.36 12 0 12 C0 8.04 0 4.08 0 0 Z " transform="translate(86 83)" class="color475B60 svgShape"></path><path fill="#253135" d="M0 0 C2.5 0.125 2.5 0.125 3.5 1.125 C3.625 4.125 3.625 4.125 3.5 7.125 C2.5 8.125 2.5 8.125 0 8.25 C-2.5 8.125 -2.5 8.125 -3.5 7.125 C-3.625 4.125 -3.625 4.125 -3.5 1.125 C-2.5 0.125 -2.5 0.125 0 0 Z " transform="translate(362.5 60.875)" class="color253135 svgShape"></path><path fill="#263236" d="M0 0 C2.5 0.125 2.5 0.125 3.5 1.125 C3.625 4.125 3.625 4.125 3.5 7.125 C2.5 8.125 2.5 8.125 0 8.25 C-2.5 8.125 -2.5 8.125 -3.5 7.125 C-3.625 4.125 -3.625 4.125 -3.5 1.125 C-2.5 0.125 -2.5 0.125 0 0 Z " transform="translate(345.5 36.875)" class="color263236 svgShape"></path><path fill="#317bcc" d="M0 0 C0 3.63 0 7.26 0 11 C-2.475 10.01 -2.475 10.01 -5 9 C-6 6.0625 -6 6.0625 -6 3 C-4.11242974 0.16864461 -3.46862106 0 0 0 Z " transform="translate(87 182)" class="color317BCC svgShape"></path><path fill="#b3c7bd" d="M0 0 C-0.33 0.66 -0.66 1.32 -1 2 C-5.07657438 3.20255163 -9.08964742 3.10196591 -13.3125 3.0625 C-14.56675781 3.05347656 -15.82101562 3.04445313 -17.11328125 3.03515625 C-18.06589844 3.02355469 -19.01851563 3.01195313 -20 3 C-19.67 2.34 -19.34 1.68 -19 1 C-16.35350385 0.493791 -13.79556542 0.11206777 -11.125 -0.1875 C-10.02478516 -0.32961914 -10.02478516 -0.32961914 -8.90234375 -0.47460938 C-5.55009285 -0.87455916 -3.24049693 -1.08016564 0 0 Z " transform="translate(367 99)" class="colorB3C7BD svgShape"></path><path fill="#a2b6ae" d="M0 0 C4.62 0 9.24 0 14 0 C14 0.99 14 1.98 14 3 C9.38 3 4.76 3 0 3 C0 2.01 0 1.02 0 0 Z " transform="translate(347 1)" class="colorA2B6AE svgShape"></path><path fill="#031d1a" d="M0 0 C4.875 1.875 4.875 1.875 6 3 C6.04092937 5.33297433 6.04241723 7.66705225 6 10 C3.54896452 9.01958581 2.23241214 8.3486182 0.75 6.125 C0 4 0 4 0 0 Z " transform="translate(461 183)" class="color031D1A svgShape"></path><path fill="#475b60" d="M0 0 C3.3 0 6.6 0 10 0 C10 1.32 10 2.64 10 4 C6.7 4 3.4 4 0 4 C0 2.68 0 1.36 0 0 Z " transform="translate(222 50)" class="color475B60 svgShape"></path><path fill="#a6bbb1" d="M0 0 C-2.75473082 3.06081203 -4.99574049 4.89882863 -9 6 C-11.3125 5.625 -11.3125 5.625 -13 5 C-11.5977422 2.1954844 -9.93929378 1.9557882 -7.0625 0.8125 C-6.16660156 0.44769531 -5.27070313 0.08289063 -4.34765625 -0.29296875 C-2 -1 -2 -1 0 0 Z " transform="translate(379 94)" class="colorA6BBB1 svgShape"></path><path fill="#062420" d="M0 0 C3.90243902 3.90243902 3.90243902 3.90243902 4 8 C2.68 9.65 1.36 11.3 0 13 C0 8.71 0 4.42 0 0 Z " transform="translate(445 182)" class="color062420 svgShape"></path><path fill="#475b60" d="M0 0 C1.32 0 2.64 0 4 0 C4 2.64 4 5.28 4 8 C2.68 8 1.36 8 0 8 C0 5.36 0 2.72 0 0 Z " transform="translate(614 267)" class="color475B60 svgShape"></path><path fill="#04241d" d="M0 0 C-0.33 1.32 -0.66 2.64 -1 4 C-2.65 4 -4.3 4 -6 4 C-6 2.68 -6 1.36 -6 0 C-3.50907189 -1.24546405 -2.58919267 -0.7767578 0 0 Z " transform="translate(468 198)" class="color04241D svgShape"></path><path fill="#475b60" d="M0 0 C1.98 0 3.96 0 6 0 C6 1.32 6 2.64 6 4 C4.02 4 2.04 4 0 4 C0 2.68 0 1.36 0 0 Z " transform="translate(184 50)" class="color475B60 svgShape"></path><path fill="#ae0f2a" d="M0 0 C7.42857143 -0.28571429 7.42857143 -0.28571429 11 2 C10.67 2.99 10.34 3.98 10 5 C2.25 3.375 2.25 3.375 0 0 Z " transform="translate(480 195)" class="color0FAE54 svgShape"></path><path fill="#475b60" d="M0 0 C1.65 0 3.3 0 5 0 C5 1.32 5 2.64 5 4 C3.35 4 1.7 4 0 4 C0 2.68 0 1.36 0 0 Z " transform="translate(382 360)" class="color475B60 svgShape"></path><path fill="#cc1127" d="M0 0 C3 1 3 1 5 4 C5 4.99 5 5.98 5 7 C4.34 7 3.68 7 3 7 C0.70351351 4.4385343 0 3.52032428 0 0 Z " transform="translate(455 187)" class="color11CC5F svgShape"></path><path fill="#aec3b8" d="M0 0 C0.66 0.33 1.32 0.66 2 1 C-1.44615385 5.8 -1.44615385 5.8 -4.25 6.8125 C-5.11625 6.9053125 -5.11625 6.9053125 -6 7 C-4.60667426 3.63279613 -3.0210714 2.0140476 0 0 Z " transform="translate(383 89)" class="colorAEC3B8 svgShape"></path><path fill="#475b60" d="M0 0 C1.32 0 2.64 0 4 0 C4 0.99 4 1.98 4 3 C2.68 3 1.36 3 0 3 C0 2.01 0 1.02 0 0 Z " transform="translate(86 101)" class="color475B60 svgShape"></path></svg></g></svg>