<svg xmlns="http://www.w3.org/2000/svg" width="26" height="26" viewBox="0 0 26 26" fill="none">
<rect x="1" y="1" width="24" height="24" rx="8" fill="#022410"/>
<rect x="1" y="1" width="24" height="24" rx="8" stroke="#480304" fill="#000000"/>
<path d="M10.8066 7.20341C7.35905 8.52901 7.04324 11.9239 6.0547 13.5093C5.05443 15.1136 2.76287 15.9988 3.07624 16.8164C3.38959 17.6339 5.68389 16.7558 7.499 17.2775C9.2926 17.793 11.7952 20.1044 15.2427 18.7787C16.999 18.1035 18.2707 16.7136 18.8555 15.0672C18.9184 14.8906 18.8009 14.7016 18.6143 14.6841C18.4983 14.6732 18.387 14.734 18.3347 14.8382C17.8058 15.8935 16.8983 16.7627 15.7108 17.2191C13.7502 17.973 11.6051 17.3811 10.2877 15.8968C9.98848 15.5598 9.73257 15.1761 9.53055 14.752C9.47501 14.6353 9.42219 14.5167 9.37537 14.394C9.32827 14.2712 9.28824 14.1478 9.25149 14.0237C10.2877 13.5399 11.4834 13.0275 12.839 12.5064C14.1681 11.9953 15.3777 11.5808 16.4548 11.2492C17.1834 11.025 17.8512 10.8385 18.4542 10.6861C18.4978 10.6752 18.5408 10.6643 18.5835 10.6536C18.6747 10.631 18.7684 10.6798 18.8021 10.7676L18.8028 10.7692C18.8227 10.8213 18.8397 10.8737 18.8582 10.926C18.9774 11.2639 19.0669 11.6053 19.1259 11.9476C19.1517 12.0973 19.3151 12.1789 19.449 12.1069C19.944 11.8406 20.3967 11.5811 20.8012 11.3313C22.3088 10.4014 23.1447 9.61272 22.9731 9.16576C22.8019 8.71853 21.654 8.6929 19.9123 9.01196C19.3589 9.11341 18.7453 9.24975 18.084 9.41855C17.9696 9.44774 17.854 9.478 17.7368 9.50909C17.1803 9.6569 16.5934 9.82624 15.9822 10.0158C14.8455 10.3684 13.626 10.7908 12.3671 11.2748C11.1894 11.7278 10.0732 12.1974 9.04947 12.6653C9.03696 10.6793 10.2357 8.8017 12.1962 8.04796C13.3835 7.59146 14.6386 7.62883 15.7368 8.05887C15.8452 8.1014 15.9685 8.07196 16.0478 7.98607C16.1747 7.84834 16.1357 7.62908 15.9709 7.53964C14.4365 6.70873 12.5629 6.5282 10.8066 7.20341Z" fill="#f74f52"/>
</svg>