<svg id="SvgjsSvg1001" width="288" height="288" xmlns="http://www.w3.org/2000/svg" version="1.1" xmlns:xlink="http://www.w3.org/1999/xlink" xmlns:svgjs="http://svgjs.com/svgjs"><defs id="SvgjsDefs1002"></defs><g id="SvgjsG1008" transform="matrix(1,0,0,1,0,0)"><svg xmlns="http://www.w3.org/2000/svg" fill="none" viewBox="0 0 24 24" width="288" height="288"><g clip-path="url(#a)"><path fill="#f41414" fill-rule="evenodd" d="M12 22.2322C17.6511 22.2322 22.2322 17.6511 22.2322 12C22.2322 6.34892 17.6511 1.76782 12 1.76782C6.34892 1.76782 1.76782 6.34892 1.76782 12C1.76782 17.6511 6.34892 22.2322 12 22.2322ZM23.2322 12C23.2322 18.2034 18.2034 23.2322 12 23.2322C5.79664 23.2322 0.767822 18.2034 0.767822 12C0.767822 5.79664 5.79664 0.767822 12 0.767822C18.2034 0.767822 23.2322 5.79664 23.2322 12Z" clip-rule="evenodd" class="color14F46F svgShape"></path><path fill="#f41414" d="M9.43261 10.6896C9.45071 10.1072 9.66877 9.58983 9.99036 9.11264 10.3699 8.54935 10.8683 8.10881 11.4122 7.70818 12.3027 7.05226 13.0484 6.27239 13.4369 5.20653 13.6514 4.61807 13.7561 4.00763 13.8072 3.38613 13.8148 3.29289 13.816 3.19879 13.8298 3.10654 13.8354 3.06901 13.867 3.03539 13.8868 3 13.9098 3.03312 13.9493 3.06436 13.9533 3.09965 13.9971 3.48252 14.0431 3.8654 14.0731 4.24949 14.1098 4.71955 14.1317 5.19076 14.1599 5.66147 14.1761 6.20497 14.1823 6.74638 14.0764 7.28414 13.8971 8.19365 13.3817 8.85408 12.6022 9.33383 12.313 9.51177 12.0372 9.71414 11.7681 9.92202 11.0792 10.4543 10.7221 11.1771 10.6005 12.0255 10.5681 12.2511 10.559 12.4799 10.5361 12.7069 10.5326 12.7406 10.519 12.7813 10.4954 12.8017 10.483 12.8123 10.4307 12.7943 10.4098 12.7748 9.80582 12.2105 9.40597 11.5469 9.43261 10.6896zM20 20.1881L13.718 13C13.6398 13 13.6021 13 13.5239 13L12.0783 14.6542C12.0132 14.7288 11.8966 14.7288 11.8314 14.6542L10.3858 13C10.3076 13 10.2698 13 10.1917 13L4 20.0847C6.18054 21.9019 8.99027 23 12.0609 23 15.0738 23 17.8372 21.9445 20 20.1881z" class="color14F46F svgShape"></path><path stroke="#f41414" stroke-width=".5" d="M12 23.2322C18.2034 23.2322 23.2322 18.2034 23.2322 12C23.2322 5.79664 18.2034 0.767822 12 0.767822C5.79664 0.767822 0.767822 5.79664 0.767822 12C0.767822 18.2034 5.79664 23.2322 12 23.2322Z" class="colorStroke14F46F svgStroke"></path></g><defs><clipPath id="a"><rect width="24" height="24" fill="#ffffff" class="colorfff svgShape"></rect></clipPath></defs></svg></g></svg>