<?xml version="1.0" encoding="UTF-8"?>
<svg version="1.1" xmlns="http://www.w3.org/2000/svg" width="876" height="452">
<path d="M0 0 C1.98 0 3.96 0 6 0 C6 15.18 6 30.36 6 46 C9.96 46 13.92 46 18 46 C22.52535229 47.9962553 22.52535229 47.9962553 24 51 C24.85864218 55.6082804 24.78404006 60.18219482 24.7215271 64.85066223 C24.72414366 66.29453975 24.72939735 67.7384145 24.7370621 69.18227404 C24.75048826 73.1504912 24.72646688 77.11773803 24.69639373 81.08583152 C24.67050386 85.36458364 24.67924969 89.64328022 24.68380737 93.92208862 C24.68695484 101.33553362 24.66811612 108.748662 24.63438034 116.16202736 C24.58563594 126.88047787 24.56999351 137.59877514 24.56245239 148.31732448 C24.54931778 165.7069978 24.50938046 183.09650233 24.45263672 200.48608398 C24.39756994 217.37930455 24.35509578 234.27247929 24.32958984 251.16577148 C24.3280135 252.20691932 24.32643716 253.24806716 24.32481305 254.32076494 C24.31698288 259.54385234 24.30940062 264.76694007 24.30194163 269.99002802 C24.23973246 313.32680339 24.13360004 356.66339035 24 400 C18.06 400 12.12 400 6 400 C6 404.62 6 409.24 6 414 C84.54 414 163.08 414 244 414 C244 414.66 244 415.32 244 416 C-45.08 416 -334.16 416 -632 416 C-632 415.34 -632 414.68 -632 414 C-423.44 414 -214.88 414 0 414 C0 409.38 0 404.76 0 400 C-5.28 400 -10.56 400 -16 400 C-16.11401716 355.7690202 -16.20252467 311.53805976 -16.25532665 267.30696192 C-16.26158032 262.08729078 -16.26805192 256.86761993 -16.2746582 251.64794922 C-16.27596976 250.60878914 -16.27728131 249.56962906 -16.2786326 248.49897929 C-16.30040022 231.66415253 -16.33982922 214.82941097 -16.38576398 197.99463479 C-16.43249087 180.72576163 -16.46028742 163.45693315 -16.47044247 146.18799937 C-16.47730945 135.52865639 -16.49901253 124.86955424 -16.53958233 114.21028538 C-16.56597419 106.90480369 -16.57400907 99.59944684 -16.56750689 92.29392092 C-16.56429844 88.07640737 -16.56928074 83.8593152 -16.59602737 79.64187622 C-16.62033205 75.78135572 -16.6216063 71.92154053 -16.60449447 68.06098779 C-16.60237916 66.66383707 -16.60874609 65.26664261 -16.62441591 63.86957817 C-16.74808034 52.16425065 -16.74808034 52.16425065 -14.14992046 48.12919044 C-11 46 -11 46 0 46 C0 30.82 0 15.64 0 0 Z " fill="#14F36F" transform="translate(632,0)"/>
<path d="M0 0 C1.23685547 -0.020625 2.47371094 -0.04125 3.74804688 -0.0625 C5.53758789 -0.07023438 5.53758789 -0.07023438 7.36328125 -0.078125 C9.0016394 -0.09214355 9.0016394 -0.09214355 10.6730957 -0.10644531 C14.10659033 0.29955632 15.93305891 1.19072881 18.6875 3.25 C21.18521033 6.9965655 20.93427894 8.92644972 20.92800903 13.40629578 C20.92971788 14.13981492 20.93142673 14.87333407 20.93318737 15.62908107 C20.93648865 18.09355819 20.92546818 20.55776465 20.91455078 23.0222168 C20.9139868 24.78618361 20.91430296 26.55015089 20.91543579 28.31411743 C20.91601083 33.10928233 20.90423201 37.90434765 20.89028788 42.69948936 C20.87780576 47.70833062 20.87661201 52.71717403 20.87423706 57.72602844 C20.86801487 67.21388825 20.85159407 76.70170209 20.83153808 86.18954164 C20.80920204 96.98988296 20.79819143 107.79022645 20.78814721 118.59058511 C20.76722848 140.81042144 20.73054303 163.03019475 20.6875 185.25 C7.4875 185.25 -5.7125 185.25 -19.3125 185.25 C-19.4027613 161.99764807 -19.4764593 138.74543777 -19.51974869 115.49295521 C-19.5403821 104.69665573 -19.56851765 93.90047275 -19.61425781 83.10424805 C-19.65410165 73.6952784 -19.67992714 64.28639311 -19.68885398 54.87734145 C-19.69407287 49.89436157 -19.70635543 44.91162306 -19.73542023 39.92872047 C-19.76255052 35.23952258 -19.77094981 30.55066571 -19.76493073 25.86139679 C-19.76603203 24.13965439 -19.77400016 22.4179007 -19.7893219 20.69622612 C-19.80921307 18.34599926 -19.80444321 15.99706126 -19.79351807 13.64680481 C-19.79720524 12.33140622 -19.80089241 11.01600763 -19.80469131 9.66074848 C-19.2322612 5.6939675 -18.11396169 4.0585001 -15.3125 1.25 C-10.8830385 -0.96473075 -4.8639539 0.02008861 0 0 Z " fill="#078F3F" transform="translate(591.3125,214.75)"/>
<path d="M0 0 C1.23685547 -0.020625 2.47371094 -0.04125 3.74804688 -0.0625 C5.53758789 -0.07023438 5.53758789 -0.07023438 7.36328125 -0.078125 C9.0016394 -0.09214355 9.0016394 -0.09214355 10.6730957 -0.10644531 C14.10659033 0.29955632 15.93305891 1.19072881 18.6875 3.25 C21.18521033 6.9965655 20.93427894 8.92644972 20.92800903 13.40629578 C20.92971788 14.13981492 20.93142673 14.87333407 20.93318737 15.62908107 C20.93648865 18.09355819 20.92546818 20.55776465 20.91455078 23.0222168 C20.9139868 24.78618361 20.91430296 26.55015089 20.91543579 28.31411743 C20.91601083 33.10928233 20.90423201 37.90434765 20.89028788 42.69948936 C20.87780576 47.70833062 20.87661201 52.71717403 20.87423706 57.72602844 C20.86801487 67.21388825 20.85159407 76.70170209 20.83153808 86.18954164 C20.80920204 96.98988296 20.79819143 107.79022645 20.78814721 118.59058511 C20.76722848 140.81042144 20.73054303 163.03019475 20.6875 185.25 C7.4875 185.25 -5.7125 185.25 -19.3125 185.25 C-19.4027613 161.99764807 -19.4764593 138.74543777 -19.51974869 115.49295521 C-19.5403821 104.69665573 -19.56851765 93.90047275 -19.61425781 83.10424805 C-19.65410165 73.6952784 -19.67992714 64.28639311 -19.68885398 54.87734145 C-19.69407287 49.89436157 -19.70635543 44.91162306 -19.73542023 39.92872047 C-19.76255052 35.23952258 -19.77094981 30.55066571 -19.76493073 25.86139679 C-19.76603203 24.13965439 -19.77400016 22.4179007 -19.7893219 20.69622612 C-19.80921307 18.34599926 -19.80444321 15.99706126 -19.79351807 13.64680481 C-19.79720524 12.33140622 -19.80089241 11.01600763 -19.80469131 9.66074848 C-19.2322612 5.6939675 -18.11396169 4.0585001 -15.3125 1.25 C-10.8830385 -0.96473075 -4.8639539 0.02008861 0 0 Z " fill="#078F3F" transform="translate(547.3125,214.75)"/>
<path d="M0 0 C0 116.82 0 233.64 0 354 C-5.28 354 -10.56 354 -16 354 C-16.11401716 309.7690202 -16.20252467 265.53805976 -16.25532665 221.30696192 C-16.26158032 216.08729078 -16.26805192 210.86761993 -16.2746582 205.64794922 C-16.27662553 204.0892091 -16.27662553 204.0892091 -16.2786326 202.49897929 C-16.30040022 185.66415253 -16.33982922 168.82941097 -16.38576398 151.99463479 C-16.43249087 134.72576163 -16.46028742 117.45693315 -16.47044247 100.18799937 C-16.47730945 89.52865639 -16.49901253 78.86955424 -16.53958233 68.21028538 C-16.56597419 60.90480369 -16.57400907 53.59944684 -16.56750689 46.29392092 C-16.56429844 42.07640737 -16.56928074 37.8593152 -16.59602737 33.64187622 C-16.62033205 29.78135572 -16.6216063 25.92154053 -16.60449447 22.06098779 C-16.60237916 20.66383707 -16.60874609 19.26664261 -16.62441591 17.86957817 C-16.74808034 6.16425065 -16.74808034 6.16425065 -14.14992046 2.12919044 C-11 0 -11 0 0 0 Z " fill="#14F46F" transform="translate(632,46)"/>
<path d="M0 0 C1.89782227 -0.00483398 1.89782227 -0.00483398 3.83398438 -0.00976562 C5.14818359 0.01794922 6.46238281 0.04566406 7.81640625 0.07421875 C9.12673828 0.05939453 10.43707031 0.04457031 11.78710938 0.02929688 C22.83154447 0.1248467 22.83154447 0.1248467 27.11211109 3.89453983 C29.95931893 8.09115079 29.14649015 13.57307676 29.06005859 18.4465332 C29.06137283 20.37883537 29.06137283 20.37883537 29.06271362 22.35017395 C29.0644329 25.87506353 29.02919696 29.3987243 28.98726988 32.92332864 C28.94972288 36.6094819 28.94623445 40.29566438 28.93911743 43.98197937 C28.92048002 50.95902968 28.87125873 57.93551487 28.81102049 64.9123165 C28.74392033 72.85657858 28.71095767 80.80086787 28.68084788 88.74534285 C28.61815785 105.08451765 28.50814011 121.42291419 28.37890625 137.76171875 C15.17890625 137.76171875 1.97890625 137.76171875 -11.62109375 137.76171875 C-11.73400289 120.78504755 -11.82609034 103.80869722 -11.88015461 86.83175468 C-11.90592587 78.94889754 -11.94105543 71.06629041 -11.99829102 63.18359375 C-12.04815944 56.31224973 -12.08039261 49.4410868 -12.09153622 42.56956685 C-12.09804931 38.93173817 -12.1133333 35.29442748 -12.14974403 31.65676498 C-12.19008215 27.59369779 -12.19104101 23.53152854 -12.1887207 19.46826172 C-12.20669708 18.26488663 -12.22467346 17.06151154 -12.24319458 15.82167053 C-12.18689423 6.72539024 -12.18689423 6.72539024 -9.28152466 3.01509094 C-5.97920959 0.21804595 -4.29198448 0.00150269 0 0 Z " fill="#078F3F" transform="translate(671.62109375,262.23828125)"/>
<path d="M0 0 C1.89782227 -0.00483398 1.89782227 -0.00483398 3.83398438 -0.00976562 C5.14818359 0.01794922 6.46238281 0.04566406 7.81640625 0.07421875 C9.12673828 0.05939453 10.43707031 0.04457031 11.78710938 0.02929688 C22.83154447 0.1248467 22.83154447 0.1248467 27.11211109 3.89453983 C29.95931893 8.09115079 29.14649015 13.57307676 29.06005859 18.4465332 C29.06137283 20.37883537 29.06137283 20.37883537 29.06271362 22.35017395 C29.0644329 25.87506353 29.02919696 29.3987243 28.98726988 32.92332864 C28.94972288 36.6094819 28.94623445 40.29566438 28.93911743 43.98197937 C28.92048002 50.95902968 28.87125873 57.93551487 28.81102049 64.9123165 C28.74392033 72.85657858 28.71095767 80.80086787 28.68084788 88.74534285 C28.61815785 105.08451765 28.50814011 121.42291419 28.37890625 137.76171875 C15.17890625 137.76171875 1.97890625 137.76171875 -11.62109375 137.76171875 C-11.73400289 120.78504755 -11.82609034 103.80869722 -11.88015461 86.83175468 C-11.90592587 78.94889754 -11.94105543 71.06629041 -11.99829102 63.18359375 C-12.04815944 56.31224973 -12.08039261 49.4410868 -12.09153622 42.56956685 C-12.09804931 38.93173817 -12.1133333 35.29442748 -12.14974403 31.65676498 C-12.19008215 27.59369779 -12.19104101 23.53152854 -12.1887207 19.46826172 C-12.20669708 18.26488663 -12.22467346 17.06151154 -12.24319458 15.82167053 C-12.18689423 6.72539024 -12.18689423 6.72539024 -9.28152466 3.01509094 C-5.97920959 0.21804595 -4.29198448 0.00150269 0 0 Z " fill="#056C2F" transform="translate(495.62109375,262.23828125)"/>
<path d="M0 0 C1.89782227 -0.00483398 1.89782227 -0.00483398 3.83398438 -0.00976562 C5.14818359 0.01794922 6.46238281 0.04566406 7.81640625 0.07421875 C9.12673828 0.05939453 10.43707031 0.04457031 11.78710938 0.02929688 C22.83154447 0.1248467 22.83154447 0.1248467 27.11211109 3.89453983 C29.95931893 8.09115079 29.14649015 13.57307676 29.06005859 18.4465332 C29.06137283 20.37883537 29.06137283 20.37883537 29.06271362 22.35017395 C29.0644329 25.87506353 29.02919696 29.3987243 28.98726988 32.92332864 C28.94972288 36.6094819 28.94623445 40.29566438 28.93911743 43.98197937 C28.92048002 50.95902968 28.87125873 57.93551487 28.81102049 64.9123165 C28.74392033 72.85657858 28.71095767 80.80086787 28.68084788 88.74534285 C28.61815785 105.08451765 28.50814011 121.42291419 28.37890625 137.76171875 C15.17890625 137.76171875 1.97890625 137.76171875 -11.62109375 137.76171875 C-11.73400289 120.78504755 -11.82609034 103.80869722 -11.88015461 86.83175468 C-11.90592587 78.94889754 -11.94105543 71.06629041 -11.99829102 63.18359375 C-12.04815944 56.31224973 -12.08039261 49.4410868 -12.09153622 42.56956685 C-12.09804931 38.93173817 -12.1133333 35.29442748 -12.14974403 31.65676498 C-12.19008215 27.59369779 -12.19104101 23.53152854 -12.1887207 19.46826172 C-12.20669708 18.26488663 -12.22467346 17.06151154 -12.24319458 15.82167053 C-12.18689423 6.72539024 -12.18689423 6.72539024 -9.28152466 3.01509094 C-5.97920959 0.21804595 -4.29198448 0.00150269 0 0 Z " fill="#056C2F" transform="translate(451.62109375,262.23828125)"/>
<path d="M0 0 C1.89782227 -0.00483398 1.89782227 -0.00483398 3.83398438 -0.00976562 C5.14818359 0.01794922 6.46238281 0.04566406 7.81640625 0.07421875 C9.12673828 0.05939453 10.43707031 0.04457031 11.78710938 0.02929688 C22.83154447 0.1248467 22.83154447 0.1248467 27.11211109 3.89453983 C29.95931893 8.09115079 29.14649015 13.57307676 29.06005859 18.4465332 C29.06137283 20.37883537 29.06137283 20.37883537 29.06271362 22.35017395 C29.0644329 25.87506353 29.02919696 29.3987243 28.98726988 32.92332864 C28.94972288 36.6094819 28.94623445 40.29566438 28.93911743 43.98197937 C28.92048002 50.95902968 28.87125873 57.93551487 28.81102049 64.9123165 C28.74392033 72.85657858 28.71095767 80.80086787 28.68084788 88.74534285 C28.61815785 105.08451765 28.50814011 121.42291419 28.37890625 137.76171875 C15.17890625 137.76171875 1.97890625 137.76171875 -11.62109375 137.76171875 C-11.73400289 120.78504755 -11.82609034 103.80869722 -11.88015461 86.83175468 C-11.90592587 78.94889754 -11.94105543 71.06629041 -11.99829102 63.18359375 C-12.04815944 56.31224973 -12.08039261 49.4410868 -12.09153622 42.56956685 C-12.09804931 38.93173817 -12.1133333 35.29442748 -12.14974403 31.65676498 C-12.19008215 27.59369779 -12.19104101 23.53152854 -12.1887207 19.46826172 C-12.20669708 18.26488663 -12.22467346 17.06151154 -12.24319458 15.82167053 C-12.18689423 6.72539024 -12.18689423 6.72539024 -9.28152466 3.01509094 C-5.97920959 0.21804595 -4.29198448 0.00150269 0 0 Z " fill="#03481F" transform="translate(407.62109375,262.23828125)"/>
<path d="M0 0 C1.98 0 3.96 0 6 0 C6 136.62 6 273.24 6 414 C84.54 414 163.08 414 244 414 C244 414.66 244 415.32 244 416 C-45.08 416 -334.16 416 -632 416 C-632 415.34 -632 414.68 -632 414 C-423.44 414 -214.88 414 0 414 C0 277.38 0 140.76 0 0 Z " fill="#ADB3B5" transform="translate(632,0)"/>
<path d="M0 0 C1.17626953 -0.02900391 2.35253906 -0.05800781 3.56445312 -0.08789062 C14.42468981 -0.16770017 14.42468981 -0.16770017 19.1875 4.3125 C20.73508217 7.40766435 20.3170989 10.67106074 20.30102539 14.06689453 C20.30117142 14.86697937 20.30131744 15.66706421 20.3014679 16.49139404 C20.3007698 19.14272753 20.29298221 21.79399125 20.28515625 24.4453125 C20.2832917 26.28091392 20.28186797 28.11651583 20.28086853 29.95211792 C20.27704623 34.78873055 20.26721839 39.62531327 20.25616455 44.46191406 C20.24414805 50.26219565 20.23954682 56.06248724 20.23371124 61.86277771 C20.2240065 70.67937263 20.20484792 79.49590187 20.1875 88.3125 C6.9875 88.3125 -6.2125 88.3125 -19.8125 88.3125 C-19.97293524 68.04863822 -19.97293524 68.04863822 -20.0078125 59.40820312 C-20.03172022 53.51328117 -20.0599972 47.61860784 -20.11425781 41.72387695 C-20.15773227 36.97116052 -20.18164066 32.21871071 -20.19200897 27.46581078 C-20.19939746 25.65290314 -20.21382554 23.84001003 -20.23542023 22.02721596 C-20.26447587 19.48698059 -20.26845516 16.94784562 -20.26660156 14.4074707 C-20.28098267 13.65868652 -20.29536377 12.90990234 -20.31018066 12.13842773 C-20.28162099 8.51911686 -19.90797122 6.46515155 -17.97161865 3.36906433 C-13.16888466 -1.20554828 -6.23585506 0.05075303 0 0 Z " fill="#078F3F" transform="translate(723.8125,311.6875)"/>
<path d="M0 0 C1.17626953 -0.02900391 2.35253906 -0.05800781 3.56445312 -0.08789062 C14.42468981 -0.16770017 14.42468981 -0.16770017 19.1875 4.3125 C20.73508217 7.40766435 20.3170989 10.67106074 20.30102539 14.06689453 C20.30117142 14.86697937 20.30131744 15.66706421 20.3014679 16.49139404 C20.3007698 19.14272753 20.29298221 21.79399125 20.28515625 24.4453125 C20.2832917 26.28091392 20.28186797 28.11651583 20.28086853 29.95211792 C20.27704623 34.78873055 20.26721839 39.62531327 20.25616455 44.46191406 C20.24414805 50.26219565 20.23954682 56.06248724 20.23371124 61.86277771 C20.2240065 70.67937263 20.20484792 79.49590187 20.1875 88.3125 C6.9875 88.3125 -6.2125 88.3125 -19.8125 88.3125 C-19.97293524 68.04863822 -19.97293524 68.04863822 -20.0078125 59.40820312 C-20.03172022 53.51328117 -20.0599972 47.61860784 -20.11425781 41.72387695 C-20.15773227 36.97116052 -20.18164066 32.21871071 -20.19200897 27.46581078 C-20.19939746 25.65290314 -20.21382554 23.84001003 -20.23542023 22.02721596 C-20.26447587 19.48698059 -20.26845516 16.94784562 -20.26660156 14.4074707 C-20.28098267 13.65868652 -20.29536377 12.90990234 -20.31018066 12.13842773 C-20.28162099 8.51911686 -19.90797122 6.46515155 -17.97161865 3.36906433 C-13.16888466 -1.20554828 -6.23585506 0.05075303 0 0 Z " fill="#03481F" transform="translate(371.8125,311.6875)"/>
<path d="M0 0 C1.17626953 -0.02900391 2.35253906 -0.05800781 3.56445312 -0.08789062 C14.42468981 -0.16770017 14.42468981 -0.16770017 19.1875 4.3125 C20.73508217 7.40766435 20.3170989 10.67106074 20.30102539 14.06689453 C20.30117142 14.86697937 20.30131744 15.66706421 20.3014679 16.49139404 C20.3007698 19.14272753 20.29298221 21.79399125 20.28515625 24.4453125 C20.2832917 26.28091392 20.28186797 28.11651583 20.28086853 29.95211792 C20.27704623 34.78873055 20.26721839 39.62531327 20.25616455 44.46191406 C20.24414805 50.26219565 20.23954682 56.06248724 20.23371124 61.86277771 C20.2240065 70.67937263 20.20484792 79.49590187 20.1875 88.3125 C6.9875 88.3125 -6.2125 88.3125 -19.8125 88.3125 C-19.97293524 68.04863822 -19.97293524 68.04863822 -20.0078125 59.40820312 C-20.03172022 53.51328117 -20.0599972 47.61860784 -20.11425781 41.72387695 C-20.15773227 36.97116052 -20.18164066 32.21871071 -20.19200897 27.46581078 C-20.19939746 25.65290314 -20.21382554 23.84001003 -20.23542023 22.02721596 C-20.26447587 19.48698059 -20.26845516 16.94784562 -20.26660156 14.4074707 C-20.28098267 13.65868652 -20.29536377 12.90990234 -20.31018066 12.13842773 C-20.28162099 8.51911686 -19.90797122 6.46515155 -17.97161865 3.36906433 C-13.16888466 -1.20554828 -6.23585506 0.05075303 0 0 Z " fill="#03481F" transform="translate(327.8125,311.6875)"/>
<path d="M0 0 C1.17626953 -0.02900391 2.35253906 -0.05800781 3.56445312 -0.08789062 C14.42468981 -0.16770017 14.42468981 -0.16770017 19.1875 4.3125 C20.73508217 7.40766435 20.3170989 10.67106074 20.30102539 14.06689453 C20.30117142 14.86697937 20.30131744 15.66706421 20.3014679 16.49139404 C20.3007698 19.14272753 20.29298221 21.79399125 20.28515625 24.4453125 C20.2832917 26.28091392 20.28186797 28.11651583 20.28086853 29.95211792 C20.27704623 34.78873055 20.26721839 39.62531327 20.25616455 44.46191406 C20.24414805 50.26219565 20.23954682 56.06248724 20.23371124 61.86277771 C20.2240065 70.67937263 20.20484792 79.49590187 20.1875 88.3125 C6.9875 88.3125 -6.2125 88.3125 -19.8125 88.3125 C-19.97293524 68.04863822 -19.97293524 68.04863822 -20.0078125 59.40820312 C-20.03172022 53.51328117 -20.0599972 47.61860784 -20.11425781 41.72387695 C-20.15773227 36.97116052 -20.18164066 32.21871071 -20.19200897 27.46581078 C-20.19939746 25.65290314 -20.21382554 23.84001003 -20.23542023 22.02721596 C-20.26447587 19.48698059 -20.26845516 16.94784562 -20.26660156 14.4074707 C-20.28098267 13.65868652 -20.29536377 12.90990234 -20.31018066 12.13842773 C-20.28162099 8.51911686 -19.90797122 6.46515155 -17.97161865 3.36906433 C-13.16888466 -1.20554828 -6.23585506 0.05075303 0 0 Z " fill="#03481F" transform="translate(283.8125,311.6875)"/>
<path d="M0 0 C1.17626953 -0.02900391 2.35253906 -0.05800781 3.56445312 -0.08789062 C14.42468981 -0.16770017 14.42468981 -0.16770017 19.1875 4.3125 C20.73508217 7.40766435 20.3170989 10.67106074 20.30102539 14.06689453 C20.30117142 14.86697937 20.30131744 15.66706421 20.3014679 16.49139404 C20.3007698 19.14272753 20.29298221 21.79399125 20.28515625 24.4453125 C20.2832917 26.28091392 20.28186797 28.11651583 20.28086853 29.95211792 C20.27704623 34.78873055 20.26721839 39.62531327 20.25616455 44.46191406 C20.24414805 50.26219565 20.23954682 56.06248724 20.23371124 61.86277771 C20.2240065 70.67937263 20.20484792 79.49590187 20.1875 88.3125 C6.9875 88.3125 -6.2125 88.3125 -19.8125 88.3125 C-19.97293524 68.04863822 -19.97293524 68.04863822 -20.0078125 59.40820312 C-20.03172022 53.51328117 -20.0599972 47.61860784 -20.11425781 41.72387695 C-20.15773227 36.97116052 -20.18164066 32.21871071 -20.19200897 27.46581078 C-20.19939746 25.65290314 -20.21382554 23.84001003 -20.23542023 22.02721596 C-20.26447587 19.48698059 -20.26845516 16.94784562 -20.26660156 14.4074707 C-20.28098267 13.65868652 -20.29536377 12.90990234 -20.31018066 12.13842773 C-20.28162099 8.51911686 -19.90797122 6.46515155 -17.97161865 3.36906433 C-13.16888466 -1.20554828 -6.23585506 0.05075303 0 0 Z " fill="#03481F" transform="translate(239.8125,311.6875)"/>
<path d="M0 0 C1.13021576 -0.0131424 1.13021576 -0.0131424 2.28326416 -0.02655029 C4.76495569 -0.04849233 7.24485402 -0.03401173 9.7265625 -0.01708984 C11.45622091 -0.02045951 13.18587702 -0.02531339 14.91552734 -0.03158569 C18.53701364 -0.03894992 22.15788247 -0.02826648 25.77929688 -0.00488281 C30.41674955 0.02360527 35.05275542 0.0071988 39.69015503 -0.02274513 C43.2607713 -0.0408306 46.83104568 -0.03505448 50.40167236 -0.02210617 C52.11126884 -0.01877558 53.82089656 -0.02284706 55.53045654 -0.03450394 C57.92217977 -0.04723405 60.31157482 -0.02780947 62.703125 0 C63.406651 -0.01012115 64.110177 -0.02024231 64.83502197 -0.03067017 C68.70073776 0.05242011 70.2568957 0.56941608 73.28915405 3.05361938 C75.36639466 5.6656232 75.98927678 6.64484894 76.015625 9.89697266 C76.02207031 10.67041016 76.02851562 11.44384766 76.03515625 12.24072266 C76.00615234 13.43181641 76.00615234 13.43181641 75.9765625 14.64697266 C75.99589844 15.44103516 76.01523437 16.23509766 76.03515625 17.05322266 C76.02871094 17.82666016 76.02226563 18.60009766 76.015625 19.39697266 C76.00998535 20.09306641 76.0043457 20.78916016 75.99853516 21.50634766 C74.96918265 24.91214492 73.07736381 26.41383688 70.3515625 28.64697266 C67.59446761 29.14304087 65.45296939 29.33350547 62.703125 29.29394531 C61.57290924 29.30708771 61.57290924 29.30708771 60.41986084 29.32049561 C57.93816931 29.34243764 55.45827098 29.32795704 52.9765625 29.31103516 C51.24690409 29.31440483 49.51724798 29.31925871 47.78759766 29.32553101 C44.16611136 29.33289523 40.54524253 29.32221179 36.92382812 29.29882812 C32.28637545 29.27034004 27.65036958 29.28674651 23.01296997 29.31669044 C19.4423537 29.33477592 15.87207932 29.32899979 12.30145264 29.31605148 C10.59185616 29.3127209 8.88222844 29.31679237 7.17266846 29.32844925 C4.78094523 29.34117937 2.39155018 29.32175478 0 29.29394531 C-0.703526 29.30406647 -1.407052 29.31418762 -2.13189697 29.32461548 C-5.99761276 29.2415252 -7.5537707 28.72452923 -10.58602905 26.24032593 C-12.66326966 23.62832212 -13.28615178 22.64909638 -13.3125 19.39697266 C-13.31894531 18.62353516 -13.32539062 17.85009766 -13.33203125 17.05322266 C-13.31269531 16.25916016 -13.29335938 15.46509766 -13.2734375 14.64697266 C-13.29277344 13.85291016 -13.31210937 13.05884766 -13.33203125 12.24072266 C-13.32236328 11.08056641 -13.32236328 11.08056641 -13.3125 9.89697266 C-13.30686035 9.20087891 -13.3012207 8.50478516 -13.29541016 7.78759766 C-11.3004679 1.18697363 -6.17458611 -0.08882961 0 0 Z " fill="#F9F9FA" transform="translate(604.6484375,423.35302734375)"/>
<path d="M0 0 C1.77697266 -0.0309375 1.77697266 -0.0309375 3.58984375 -0.0625 C4.73324219 -0.06765625 5.87664063 -0.0728125 7.0546875 -0.078125 C8.62065674 -0.09214355 8.62065674 -0.09214355 10.21826172 -0.10644531 C13.58585228 0.30651305 15.41417348 1.23765781 18.125 3.25 C20.18537303 6.34055955 20.37299242 6.95926162 20.35205078 10.44604492 C20.35189972 11.28668991 20.35174866 12.1273349 20.35159302 12.99345398 C20.34127045 13.89666885 20.33094788 14.79988373 20.3203125 15.73046875 C20.3174826 16.65845779 20.31465271 17.58644684 20.31173706 18.54255676 C20.30053836 21.50766879 20.27543435 24.47247921 20.25 27.4375 C20.2399698 29.44726126 20.23084402 31.45702726 20.22265625 33.46679688 C20.20230126 38.39474105 20.163152 43.32203275 20.125 48.25 C6.925 48.25 -6.275 48.25 -19.875 48.25 C-19.96692212 42.35932416 -20.04653199 36.47114438 -20.09472656 30.58032227 C-20.11481991 28.57730672 -20.14209965 26.57434968 -20.17675781 24.5715332 C-20.22537611 21.68946892 -20.24799152 18.80818134 -20.265625 15.92578125 C-20.28627014 15.03288895 -20.30691528 14.13999664 -20.32818604 13.220047 C-20.32967755 9.0707301 -20.22488133 6.82946188 -18.03808594 3.20776367 C-13.12790109 -1.23634155 -6.24293785 0.02699649 0 0 Z " fill="#03481F" transform="translate(855.875,351.75)"/>
<path d="M0 0 C1.77697266 -0.0309375 1.77697266 -0.0309375 3.58984375 -0.0625 C4.73324219 -0.06765625 5.87664063 -0.0728125 7.0546875 -0.078125 C8.62065674 -0.09214355 8.62065674 -0.09214355 10.21826172 -0.10644531 C13.58585228 0.30651305 15.41417348 1.23765781 18.125 3.25 C20.18537303 6.34055955 20.37299242 6.95926162 20.35205078 10.44604492 C20.35189972 11.28668991 20.35174866 12.1273349 20.35159302 12.99345398 C20.34127045 13.89666885 20.33094788 14.79988373 20.3203125 15.73046875 C20.3174826 16.65845779 20.31465271 17.58644684 20.31173706 18.54255676 C20.30053836 21.50766879 20.27543435 24.47247921 20.25 27.4375 C20.2399698 29.44726126 20.23084402 31.45702726 20.22265625 33.46679688 C20.20230126 38.39474105 20.163152 43.32203275 20.125 48.25 C6.925 48.25 -6.275 48.25 -19.875 48.25 C-19.96692212 42.35932416 -20.04653199 36.47114438 -20.09472656 30.58032227 C-20.11481991 28.57730672 -20.14209965 26.57434968 -20.17675781 24.5715332 C-20.22537611 21.68946892 -20.24799152 18.80818134 -20.265625 15.92578125 C-20.28627014 15.03288895 -20.30691528 14.13999664 -20.32818604 13.220047 C-20.32967755 9.0707301 -20.22488133 6.82946188 -18.03808594 3.20776367 C-13.12790109 -1.23634155 -6.24293785 0.02699649 0 0 Z " fill="#056C2F" transform="translate(811.875,351.75)"/>
<path d="M0 0 C1.77697266 -0.0309375 1.77697266 -0.0309375 3.58984375 -0.0625 C4.73324219 -0.06765625 5.87664063 -0.0728125 7.0546875 -0.078125 C8.62065674 -0.09214355 8.62065674 -0.09214355 10.21826172 -0.10644531 C13.58585228 0.30651305 15.41417348 1.23765781 18.125 3.25 C20.18537303 6.34055955 20.37299242 6.95926162 20.35205078 10.44604492 C20.35189972 11.28668991 20.35174866 12.1273349 20.35159302 12.99345398 C20.34127045 13.89666885 20.33094788 14.79988373 20.3203125 15.73046875 C20.3174826 16.65845779 20.31465271 17.58644684 20.31173706 18.54255676 C20.30053836 21.50766879 20.27543435 24.47247921 20.25 27.4375 C20.2399698 29.44726126 20.23084402 31.45702726 20.22265625 33.46679688 C20.20230126 38.39474105 20.163152 43.32203275 20.125 48.25 C6.925 48.25 -6.275 48.25 -19.875 48.25 C-19.96692212 42.35932416 -20.04653199 36.47114438 -20.09472656 30.58032227 C-20.11481991 28.57730672 -20.14209965 26.57434968 -20.17675781 24.5715332 C-20.22537611 21.68946892 -20.24799152 18.80818134 -20.265625 15.92578125 C-20.28627014 15.03288895 -20.30691528 14.13999664 -20.32818604 13.220047 C-20.32967755 9.0707301 -20.22488133 6.82946188 -18.03808594 3.20776367 C-13.12790109 -1.23634155 -6.24293785 0.02699649 0 0 Z " fill="#056C2F" transform="translate(767.875,351.75)"/>
<path d="M0 0 C1.77697266 -0.0309375 1.77697266 -0.0309375 3.58984375 -0.0625 C4.73324219 -0.06765625 5.87664062 -0.0728125 7.0546875 -0.078125 C8.62065674 -0.09214355 8.62065674 -0.09214355 10.21826172 -0.10644531 C13.58585228 0.30651305 15.41417348 1.23765781 18.125 3.25 C20.18537303 6.34055955 20.37299242 6.95926162 20.35205078 10.44604492 C20.35189972 11.28668991 20.35174866 12.1273349 20.35159302 12.99345398 C20.34127045 13.89666885 20.33094788 14.79988373 20.3203125 15.73046875 C20.3174826 16.65845779 20.31465271 17.58644684 20.31173706 18.54255676 C20.30053836 21.50766879 20.27543435 24.47247921 20.25 27.4375 C20.2399698 29.44726126 20.23084402 31.45702726 20.22265625 33.46679688 C20.20230126 38.39474105 20.163152 43.32203275 20.125 48.25 C6.925 48.25 -6.275 48.25 -19.875 48.25 C-19.96692212 42.35932416 -20.04653199 36.47114438 -20.09472656 30.58032227 C-20.11481991 28.57730672 -20.14209965 26.57434968 -20.17675781 24.5715332 C-20.22537611 21.68946892 -20.24799152 18.80818134 -20.265625 15.92578125 C-20.28627014 15.03288895 -20.30691528 14.13999664 -20.32818604 13.220047 C-20.32967755 9.0707301 -20.22488133 6.82946188 -18.03808594 3.20776367 C-13.12790109 -1.23634155 -6.24293785 0.02699649 0 0 Z " fill="#03481F" transform="translate(195.875,351.75)"/>
<path d="M0 0 C1.77697266 -0.0309375 1.77697266 -0.0309375 3.58984375 -0.0625 C4.73324219 -0.06765625 5.87664062 -0.0728125 7.0546875 -0.078125 C8.62065674 -0.09214355 8.62065674 -0.09214355 10.21826172 -0.10644531 C13.58585228 0.30651305 15.41417348 1.23765781 18.125 3.25 C20.18537303 6.34055955 20.37299242 6.95926162 20.35205078 10.44604492 C20.35189972 11.28668991 20.35174866 12.1273349 20.35159302 12.99345398 C20.34127045 13.89666885 20.33094788 14.79988373 20.3203125 15.73046875 C20.3174826 16.65845779 20.31465271 17.58644684 20.31173706 18.54255676 C20.30053836 21.50766879 20.27543435 24.47247921 20.25 27.4375 C20.2399698 29.44726126 20.23084402 31.45702726 20.22265625 33.46679688 C20.20230126 38.39474105 20.163152 43.32203275 20.125 48.25 C6.925 48.25 -6.275 48.25 -19.875 48.25 C-19.96692212 42.35932416 -20.04653199 36.47114438 -20.09472656 30.58032227 C-20.11481991 28.57730672 -20.14209965 26.57434968 -20.17675781 24.5715332 C-20.22537611 21.68946892 -20.24799152 18.80818134 -20.265625 15.92578125 C-20.28627014 15.03288895 -20.30691528 14.13999664 -20.32818604 13.220047 C-20.32967755 9.0707301 -20.22488133 6.82946188 -18.03808594 3.20776367 C-13.12790109 -1.23634155 -6.24293785 0.02699649 0 0 Z " fill="#03481F" transform="translate(151.875,351.75)"/>
<path d="M0 0 C1.77697266 -0.0309375 1.77697266 -0.0309375 3.58984375 -0.0625 C4.73324219 -0.06765625 5.87664062 -0.0728125 7.0546875 -0.078125 C8.62065674 -0.09214355 8.62065674 -0.09214355 10.21826172 -0.10644531 C13.58585228 0.30651305 15.41417348 1.23765781 18.125 3.25 C20.18537303 6.34055955 20.37299242 6.95926162 20.35205078 10.44604492 C20.35189972 11.28668991 20.35174866 12.1273349 20.35159302 12.99345398 C20.34127045 13.89666885 20.33094788 14.79988373 20.3203125 15.73046875 C20.3174826 16.65845779 20.31465271 17.58644684 20.31173706 18.54255676 C20.30053836 21.50766879 20.27543435 24.47247921 20.25 27.4375 C20.2399698 29.44726126 20.23084402 31.45702726 20.22265625 33.46679688 C20.20230126 38.39474105 20.163152 43.32203275 20.125 48.25 C6.925 48.25 -6.275 48.25 -19.875 48.25 C-19.96692212 42.35932416 -20.04653199 36.47114438 -20.09472656 30.58032227 C-20.11481991 28.57730672 -20.14209965 26.57434968 -20.17675781 24.5715332 C-20.22537611 21.68946892 -20.24799152 18.80818134 -20.265625 15.92578125 C-20.28627014 15.03288895 -20.30691528 14.13999664 -20.32818604 13.220047 C-20.32967755 9.0707301 -20.22488133 6.82946188 -18.03808594 3.20776367 C-13.12790109 -1.23634155 -6.24293785 0.02699649 0 0 Z " fill="#03481F" transform="translate(107.875,351.75)"/>
<path d="M0 0 C1.77697266 -0.0309375 1.77697266 -0.0309375 3.58984375 -0.0625 C4.73324219 -0.06765625 5.87664062 -0.0728125 7.0546875 -0.078125 C8.62065674 -0.09214355 8.62065674 -0.09214355 10.21826172 -0.10644531 C13.58585228 0.30651305 15.41417348 1.23765781 18.125 3.25 C20.18537303 6.34055955 20.37299242 6.95926162 20.35205078 10.44604492 C20.35189972 11.28668991 20.35174866 12.1273349 20.35159302 12.99345398 C20.34127045 13.89666885 20.33094788 14.79988373 20.3203125 15.73046875 C20.3174826 16.65845779 20.31465271 17.58644684 20.31173706 18.54255676 C20.30053836 21.50766879 20.27543435 24.47247921 20.25 27.4375 C20.2399698 29.44726126 20.23084402 31.45702726 20.22265625 33.46679688 C20.20230126 38.39474105 20.163152 43.32203275 20.125 48.25 C6.925 48.25 -6.275 48.25 -19.875 48.25 C-19.96692212 42.35932416 -20.04653199 36.47114438 -20.09472656 30.58032227 C-20.11481991 28.57730672 -20.14209965 26.57434968 -20.17675781 24.5715332 C-20.22537611 21.68946892 -20.24799152 18.80818134 -20.265625 15.92578125 C-20.28627014 15.03288895 -20.30691528 14.13999664 -20.32818604 13.220047 C-20.32967755 9.0707301 -20.22488133 6.82946188 -18.03808594 3.20776367 C-13.12790109 -1.23634155 -6.24293785 0.02699649 0 0 Z " fill="#03481F" transform="translate(63.875,351.75)"/>
<path d="M0 0 C1.77697266 -0.0309375 1.77697266 -0.0309375 3.58984375 -0.0625 C4.73324219 -0.06765625 5.87664063 -0.0728125 7.0546875 -0.078125 C8.62065674 -0.09214355 8.62065674 -0.09214355 10.21826172 -0.10644531 C13.58585228 0.30651305 15.41417348 1.23765781 18.125 3.25 C20.18537303 6.34055955 20.37299242 6.95926162 20.35205078 10.44604492 C20.35189972 11.28668991 20.35174866 12.1273349 20.35159302 12.99345398 C20.34127045 13.89666885 20.33094788 14.79988373 20.3203125 15.73046875 C20.3174826 16.65845779 20.31465271 17.58644684 20.31173706 18.54255676 C20.30053836 21.50766879 20.27543435 24.47247921 20.25 27.4375 C20.2399698 29.44726126 20.23084402 31.45702726 20.22265625 33.46679688 C20.20230126 38.39474105 20.163152 43.32203275 20.125 48.25 C6.925 48.25 -6.275 48.25 -19.875 48.25 C-19.96692212 42.35932416 -20.04653199 36.47114438 -20.09472656 30.58032227 C-20.11481991 28.57730672 -20.14209965 26.57434968 -20.17675781 24.5715332 C-20.22537611 21.68946892 -20.24799152 18.80818134 -20.265625 15.92578125 C-20.28627014 15.03288895 -20.30691528 14.13999664 -20.32818604 13.220047 C-20.32967755 9.0707301 -20.22488133 6.82946188 -18.03808594 3.20776367 C-13.12790109 -1.23634155 -6.24293785 0.02699649 0 0 Z " fill="#03481F" transform="translate(19.875,351.75)"/>
<path d="M0 0 C7.71484375 -0.09765625 7.71484375 -0.09765625 10 0 C11 1 11 1 11.0625 3.875 C11.041875 4.90625 11.02125 5.9375 11 7 C11 10.11227195 11.45627049 12.94152152 12 16 C10.68 15.67 9.36 15.34 8 15 C7.67 13.35 7.34 11.7 7 10 C5.68 9.67 4.36 9.34 3 9 C3 11.31 3 13.62 3 16 C2.01 16 1.02 16 0 16 C0 10.72 0 5.44 0 0 Z " fill="#101D22" transform="translate(615,430)"/>
<path d="M0 0 C3.3 0 6.6 0 10 0 C10 1.32 10 2.64 10 4 C8.02 4 6.04 4 4 4 C4 4.99 4 5.98 4 7 C5.98 7 7.96 7 10 7 C10 7.99 10 8.98 10 10 C8.02 10 6.04 10 4 10 C4 11.32 4 12.64 4 14 C6.31 14 8.62 14 11 14 C11 14.99 11 15.98 11 17 C7.37 17 3.74 17 0 17 C0 11.39 0 5.78 0 0 Z " fill="#384346" transform="translate(659,429)"/>
<path d="M0 0 C6.8359375 -0.1953125 6.8359375 -0.1953125 9 0 C11 2 11 2 11.25 5 C11 8 11 8 9 10 C5.875 10.125 5.875 10.125 3 10 C3 11.98 3 13.96 3 16 C2.01 16 1.02 16 0 16 C0 10.72 0 5.44 0 0 Z " fill="#0D1B1F" transform="translate(601,430)"/>
<path d="M0 0 C2.1640625 -0.29296875 2.1640625 -0.29296875 4.625 -0.1875 C5.44226563 -0.16042969 6.25953125 -0.13335937 7.1015625 -0.10546875 C8.04128906 -0.05326172 8.04128906 -0.05326172 9 0 C9.33 1.32 9.66 2.64 10 4 C7.33333333 3.33333333 4.66666667 2.66666667 2 2 C2 5.3 2 8.6 2 12 C3.32 12.33 4.64 12.66 6 13 C6.33 12.34 6.66 11.68 7 11 C7.99 11 8.98 11 10 11 C9.125 14.875 9.125 14.875 8 16 C2.1589404 16.37086093 2.1589404 16.37086093 0 16 C-2.15942819 12.76085771 -2.27232978 11.75140267 -2.25 8 C-2.25515625 7.13375 -2.2603125 6.2675 -2.265625 5.375 C-2 3 -2 3 0 0 Z " fill="#122024" transform="translate(646,430)"/>
<path d="M0 0 C2.64 0 5.28 0 8 0 C8 0.66 8 1.32 8 2 C7.34 2 6.68 2 6 2 C6 5.63 6 9.26 6 13 C6.99 13 7.98 13 9 13 C9 13.99 9 14.98 9 16 C6.03 16 3.06 16 0 16 C0 15.34 0 14.68 0 14 C0.99 14 1.98 14 3 14 C3 10.04 3 6.08 3 2 C2.01 2 1.02 2 0 2 C0 1.34 0 0.68 0 0 Z " fill="#121F24" transform="translate(631,430)"/>
<path d="M0 0 C1.32 0 2.64 0 4 0 C4 2.31 4 4.62 4 7 C2.68 7 1.36 7 0 7 C0 4.69 0 2.38 0 0 Z " fill="#B964FF" transform="translate(676,251)"/>
<path d="M0 0 C1.32 0 2.64 0 4 0 C4 2.31 4 4.62 4 7 C2.68 7 1.36 7 0 7 C0 4.69 0 2.38 0 0 Z " fill="#A369E7" transform="translate(588,239)"/>
<path d="M0 0 C1.32 0 2.64 0 4 0 C4 2.31 4 4.62 4 7 C2.68 7 1.36 7 0 7 C0 4.69 0 2.38 0 0 Z " fill="#B964FF" transform="translate(676,239)"/>
<path d="M0 0 C1.32 0 2.64 0 4 0 C4 2.31 4 4.62 4 7 C2.68 7 1.36 7 0 7 C0 4.69 0 2.38 0 0 Z " fill="#BA63FF" transform="translate(676,227)"/>
<path d="M0 0 C1.32 0 2.64 0 4 0 C4 2.31 4 4.62 4 7 C2.68 7 1.36 7 0 7 C0 4.69 0 2.38 0 0 Z " fill="#BA63FF" transform="translate(676,215)"/>
<path d="M0 0 C1.32 0 2.64 0 4 0 C4 2.31 4 4.62 4 7 C2.68 7 1.36 7 0 7 C0 4.69 0 2.38 0 0 Z " fill="#B964FF" transform="translate(676,203)"/>
<path d="M0 0 C1.32 0 2.64 0 4 0 C4 2.31 4 4.62 4 7 C2.68 7 1.36 7 0 7 C0 4.69 0 2.38 0 0 Z " fill="#B964FF" transform="translate(588,203)"/>
<path d="M0 0 C1.32 0 2.64 0 4 0 C4 2.31 4 4.62 4 7 C2.68 7 1.36 7 0 7 C0 4.69 0 2.38 0 0 Z " fill="#B964FF" transform="translate(676,190)"/>
<path d="M0 0 C1.32 0 2.64 0 4 0 C4 2.31 4 4.62 4 7 C2.68 7 1.36 7 0 7 C0 4.69 0 2.38 0 0 Z " fill="#B964FF" transform="translate(588,190)"/>
<path d="M0 0 C1.32 0 2.64 0 4 0 C4 2.31 4 4.62 4 7 C2.68 7 1.36 7 0 7 C0 4.69 0 2.38 0 0 Z " fill="#BA63FF" transform="translate(676,178)"/>
<path d="M0 0 C1.32 0 2.64 0 4 0 C4 2.31 4 4.62 4 7 C2.68 7 1.36 7 0 7 C0 4.69 0 2.38 0 0 Z " fill="#BA63FF" transform="translate(588,178)"/>
<path d="M0 0 C1.32 0 2.64 0 4 0 C4 2.31 4 4.62 4 7 C2.68 7 1.36 7 0 7 C0 4.69 0 2.38 0 0 Z " fill="#BA63FF" transform="translate(676,166)"/>
<path d="M0 0 C1.32 0 2.64 0 4 0 C4 2.31 4 4.62 4 7 C2.68 7 1.36 7 0 7 C0 4.69 0 2.38 0 0 Z " fill="#BA63FF" transform="translate(588,166)"/>
<path d="M0 0 C1.32 0 2.64 0 4 0 C4 2.31 4 4.62 4 7 C2.68 7 1.36 7 0 7 C0 4.69 0 2.38 0 0 Z " fill="#B964FF" transform="translate(676,154)"/>
<path d="M0 0 C1.32 0 2.64 0 4 0 C4 2.31 4 4.62 4 7 C2.68 7 1.36 7 0 7 C0 4.69 0 2.38 0 0 Z " fill="#B964FF" transform="translate(588,154)"/>
<path d="M0 0 C1.32 0 2.64 0 4 0 C4 2.31 4 4.62 4 7 C2.68 7 1.36 7 0 7 C0 4.69 0 2.38 0 0 Z " fill="#B964FF" transform="translate(676,142)"/>
<path d="M0 0 C1.32 0 2.64 0 4 0 C4 2.31 4 4.62 4 7 C2.68 7 1.36 7 0 7 C0 4.69 0 2.38 0 0 Z " fill="#B964FF" transform="translate(588,142)"/>
<path d="M0 0 C1.32 0 2.64 0 4 0 C4 2.31 4 4.62 4 7 C2.68 7 1.36 7 0 7 C0 4.69 0 2.38 0 0 Z " fill="#BA63FF" transform="translate(676,130)"/>
<path d="M0 0 C1.32 0 2.64 0 4 0 C4 2.31 4 4.62 4 7 C2.68 7 1.36 7 0 7 C0 4.69 0 2.38 0 0 Z " fill="#BA63FF" transform="translate(588,130)"/>
<path d="M0 0 C1.32 0 2.64 0 4 0 C4 2.31 4 4.62 4 7 C2.68 7 1.36 7 0 7 C0 4.69 0 2.38 0 0 Z " fill="#BA63FF" transform="translate(676,118)"/>
<path d="M0 0 C1.32 0 2.64 0 4 0 C4 2.31 4 4.62 4 7 C2.68 7 1.36 7 0 7 C0 4.69 0 2.38 0 0 Z " fill="#BA63FF" transform="translate(588,118)"/>
<path d="M0 0 C1.32 0 2.64 0 4 0 C4 2.31 4 4.62 4 7 C2.68 7 1.36 7 0 7 C0 4.69 0 2.38 0 0 Z " fill="#B964FF" transform="translate(676,106)"/>
<path d="M0 0 C1.32 0 2.64 0 4 0 C4 2.31 4 4.62 4 7 C2.68 7 1.36 7 0 7 C0 4.69 0 2.38 0 0 Z " fill="#B964FF" transform="translate(588,106)"/>
<path d="M0 0 C1.32 0 2.64 0 4 0 C4 2.31 4 4.62 4 7 C2.68 7 1.36 7 0 7 C0 4.69 0 2.38 0 0 Z " fill="#B964FF" transform="translate(676,81)"/>
<path d="M0 0 C1.32 0 2.64 0 4 0 C4 2.31 4 4.62 4 7 C2.68 7 1.36 7 0 7 C0 4.69 0 2.38 0 0 Z " fill="#B964FF" transform="translate(588,81)"/>
<path d="M0 0 C1.32 0 2.64 0 4 0 C4 2.31 4 4.62 4 7 C2.68 7 1.36 7 0 7 C0 4.69 0 2.38 0 0 Z " fill="#BA64FF" transform="translate(676,69)"/>
<path d="M0 0 C1.32 0 2.64 0 4 0 C4 2.31 4 4.62 4 7 C2.68 7 1.36 7 0 7 C0 4.69 0 2.38 0 0 Z " fill="#BA64FF" transform="translate(588,69)"/>
<path d="M0 0 C1.32 0 2.64 0 4 0 C4 2.31 4 4.62 4 7 C2.68 7 1.36 7 0 7 C0 4.69 0 2.38 0 0 Z " fill="#BA63FF" transform="translate(676,57)"/>
<path d="M0 0 C1.32 0 2.64 0 4 0 C4 2.31 4 4.62 4 7 C2.68 7 1.36 7 0 7 C0 4.69 0 2.38 0 0 Z " fill="#BA63FF" transform="translate(588,57)"/>
<path d="M0 0 C1.32 0 2.64 0 4 0 C4 2.31 4 4.62 4 7 C2.68 7 1.36 7 0 7 C0 4.69 0 2.38 0 0 Z " fill="#B964FF" transform="translate(676,45)"/>
<path d="M0 0 C1.32 0 2.64 0 4 0 C4 2.31 4 4.62 4 7 C2.68 7 1.36 7 0 7 C0 4.69 0 2.38 0 0 Z " fill="#B964FF" transform="translate(588,45)"/>
<path d="M0 0 C1.32 0 2.64 0 4 0 C4 2.31 4 4.62 4 7 C2.68 7 1.36 7 0 7 C0 4.69 0 2.38 0 0 Z " fill="#BA63FF" transform="translate(676,33)"/>
<path d="M0 0 C1.32 0 2.64 0 4 0 C4 2.31 4 4.62 4 7 C2.68 7 1.36 7 0 7 C0 4.69 0 2.38 0 0 Z " fill="#BA63FF" transform="translate(588,33)"/>
<path d="M0 0 C1.32 0 2.64 0 4 0 C4 2.31 4 4.62 4 7 C2.68 7 1.36 7 0 7 C0 4.69 0 2.38 0 0 Z " fill="#BA64FF" transform="translate(676,21)"/>
<path d="M0 0 C1.32 0 2.64 0 4 0 C4 2.31 4 4.62 4 7 C2.68 7 1.36 7 0 7 C0 4.69 0 2.38 0 0 Z " fill="#BA64FF" transform="translate(588,21)"/>
<path d="M0 0 C1.32 0 2.64 0 4 0 C4 2.31 4 4.62 4 7 C2.68 7 1.36 7 0 7 C0 4.69 0 2.38 0 0 Z " fill="#B964FF" transform="translate(676,9)"/>
<path d="M0 0 C1.32 0 2.64 0 4 0 C4 2.31 4 4.62 4 7 C2.68 7 1.36 7 0 7 C0 4.69 0 2.38 0 0 Z " fill="#B964FF" transform="translate(588,9)"/>
<path d="M0 0 C1.65 0 3.3 0 5 0 C5 1.65 5 3.3 5 5 C3.35 5 1.7 5 0 5 C0 3.35 0 1.7 0 0 Z " fill="#CDCFD0" transform="translate(618,432)"/>
<path d="M0 0 C2.475 0.495 2.475 0.495 5 1 C5 2.32 5 3.64 5 5 C3.35 5 1.7 5 0 5 C0 3.35 0 1.7 0 0 Z " fill="#EBECED" transform="translate(604,432)"/>
<path d="M0 0 C1.32 0 2.64 0 4 0 C4 1.98 4 3.96 4 6 C2.68 6 1.36 6 0 6 C0 4.02 0 2.04 0 0 Z " fill="#B664FB" transform="translate(676,385)"/>
<path d="M0 0 C1.32 0 2.64 0 4 0 C4 1.98 4 3.96 4 6 C2.68 6 1.36 6 0 6 C0 4.02 0 2.04 0 0 Z " fill="#B664FB" transform="translate(588,385)"/>
<path d="M0 0 C1.32 0 2.64 0 4 0 C4 1.98 4 3.96 4 6 C2.68 6 1.36 6 0 6 C0 4.02 0 2.04 0 0 Z " fill="#B265F7" transform="translate(676,373)"/>
<path d="M0 0 C1.32 0 2.64 0 4 0 C4 1.98 4 3.96 4 6 C2.68 6 1.36 6 0 6 C0 4.02 0 2.04 0 0 Z " fill="#B265F7" transform="translate(588,373)"/>
<path d="M0 0 C1.32 0 2.64 0 4 0 C4 1.98 4 3.96 4 6 C2.68 6 1.36 6 0 6 C0 4.02 0 2.04 0 0 Z " fill="#AE66F3" transform="translate(676,361)"/>
<path d="M0 0 C1.32 0 2.64 0 4 0 C4 1.98 4 3.96 4 6 C2.68 6 1.36 6 0 6 C0 4.02 0 2.04 0 0 Z " fill="#AE66F3" transform="translate(588,361)"/>
<path d="M0 0 C1.32 0 2.64 0 4 0 C4 1.98 4 3.96 4 6 C2.68 6 1.36 6 0 6 C0 4.02 0 2.04 0 0 Z " fill="#AE66F3" transform="translate(676,336)"/>
<path d="M0 0 C1.32 0 2.64 0 4 0 C4 1.98 4 3.96 4 6 C2.68 6 1.36 6 0 6 C0 4.02 0 2.04 0 0 Z " fill="#AE66F3" transform="translate(588,336)"/>
<path d="M0 0 C1.32 0 2.64 0 4 0 C4 1.98 4 3.96 4 6 C2.68 6 1.36 6 0 6 C0 4.02 0 2.04 0 0 Z " fill="#B265F7" transform="translate(676,324)"/>
<path d="M0 0 C1.32 0 2.64 0 4 0 C4 1.98 4 3.96 4 6 C2.68 6 1.36 6 0 6 C0 4.02 0 2.04 0 0 Z " fill="#B265F7" transform="translate(588,324)"/>
<path d="M0 0 C1.32 0 2.64 0 4 0 C4 1.98 4 3.96 4 6 C2.68 6 1.36 6 0 6 C0 4.02 0 2.04 0 0 Z " fill="#B664FB" transform="translate(676,312)"/>
<path d="M0 0 C1.32 0 2.64 0 4 0 C4 1.98 4 3.96 4 6 C2.68 6 1.36 6 0 6 C0 4.02 0 2.04 0 0 Z " fill="#B664FB" transform="translate(588,312)"/>
<path d="M0 0 C1.32 0 2.64 0 4 0 C4 1.98 4 3.96 4 6 C2.68 6 1.36 6 0 6 C0 4.02 0 2.04 0 0 Z " fill="#BA64FF" transform="translate(676,300)"/>
<path d="M0 0 C1.32 0 2.64 0 4 0 C4 1.98 4 3.96 4 6 C2.68 6 1.36 6 0 6 C0 4.02 0 2.04 0 0 Z " fill="#BA64FF" transform="translate(588,300)"/>
<path d="M0 0 C1.32 0 2.64 0 4 0 C4 1.98 4 3.96 4 6 C2.68 6 1.36 6 0 6 C0 4.02 0 2.04 0 0 Z " fill="#BA64FF" transform="translate(676,288)"/>
<path d="M0 0 C1.32 0 2.64 0 4 0 C4 1.98 4 3.96 4 6 C2.68 6 1.36 6 0 6 C0 4.02 0 2.04 0 0 Z " fill="#BA64FF" transform="translate(588,288)"/>
<path d="M0 0 C1.32 0 2.64 0 4 0 C4 1.98 4 3.96 4 6 C2.68 6 1.36 6 0 6 C0 4.02 0 2.04 0 0 Z " fill="#B664FB" transform="translate(676,276)"/>
<path d="M0 0 C1.32 0 2.64 0 4 0 C4 1.98 4 3.96 4 6 C2.68 6 1.36 6 0 6 C0 4.02 0 2.04 0 0 Z " fill="#B664FB" transform="translate(588,276)"/>
<path d="M0 0 C1.32 0 2.64 0 4 0 C4 1.98 4 3.96 4 6 C2.68 6 1.36 6 0 6 C0 4.02 0 2.04 0 0 Z " fill="#B265F7" transform="translate(676,264)"/>
<path d="M0 0 C1.32 0 2.64 0 4 0 C4 1.98 4 3.96 4 6 C2.68 6 1.36 6 0 6 C0 4.02 0 2.04 0 0 Z " fill="#B265F7" transform="translate(588,264)"/>
<path d="M0 0 C1.32 0 2.64 0 4 0 C4 1.98 4 3.96 4 6 C2.68 6 1.36 6 0 6 C0 4.02 0 2.04 0 0 Z " fill="#AE66F3" transform="translate(588,252)"/>
<path d="M0 0 C1.32 0 2.64 0 4 0 C4 1.98 4 3.96 4 6 C2.68 6 1.36 6 0 6 C0 4.02 0 2.04 0 0 Z " fill="#B265F7" transform="translate(588,227)"/>
<path d="M0 0 C1.32 0 2.64 0 4 0 C4 1.98 4 3.96 4 6 C2.68 6 1.36 6 0 6 C0 4.02 0 2.04 0 0 Z " fill="#BA63FF" transform="translate(588,215)"/>
<path d="M0 0 C1.32 0 2.64 0 4 0 C4 1.98 4 3.96 4 6 C2.68 6 1.36 6 0 6 C0 4.02 0 2.04 0 0 Z " fill="#BA64FF" transform="translate(676,94)"/>
<path d="M0 0 C1.32 0 2.64 0 4 0 C4 1.98 4 3.96 4 6 C2.68 6 1.36 6 0 6 C0 4.02 0 2.04 0 0 Z " fill="#BA64FF" transform="translate(588,94)"/>
<path d="M0 0 C1.32 0 2.64 0 4 0 C4 1.65 4 3.3 4 5 C2.68 5 1.36 5 0 5 C0 3.35 0 1.7 0 0 Z " fill="#BA64FF" transform="translate(676,349)"/>
<path d="M0 0 C1.32 0 2.64 0 4 0 C4 1.65 4 3.3 4 5 C2.68 5 1.36 5 0 5 C0 3.35 0 1.7 0 0 Z " fill="#BA64FF" transform="translate(588,349)"/>
<path d="M0 0 C1.32 0 2.64 0 4 0 C4 0.99 4 1.98 4 3 C2.68 3 1.36 3 0 3 C0 2.01 0 1.02 0 0 Z " fill="#BA64FF" transform="translate(676,0)"/>
<path d="M0 0 C1.32 0 2.64 0 4 0 C4 0.99 4 1.98 4 3 C2.68 3 1.36 3 0 3 C0 2.01 0 1.02 0 0 Z " fill="#BA64FF" transform="translate(588,0)"/>
</svg>
